<svg width="400" height="139" viewBox="0 0 400 139" fill="none" xmlns="http://www.w3.org/2000/svg">
<g clip-path="url(#clip0_361_1270)">
<rect width="400" height="139" fill="url(#paint0_linear_361_1270)"/>
<path d="M42.52 62.2C42.52 63.9067 42.12 65.4667 41.32 66.88C40.5467 68.2667 39.36 69.3867 37.76 70.24C36.1867 71.0667 34.2533 71.48 31.96 71.48H28.08V81H20.24V52.8H31.96C34.2267 52.8 36.1467 53.2 37.72 54C39.32 54.8 40.52 55.9067 41.32 57.32C42.12 58.7333 42.52 60.36 42.52 62.2ZM31.2 65.24C33.4133 65.24 34.52 64.2267 34.52 62.2C34.52 60.1467 33.4133 59.12 31.2 59.12H28.08V65.24H31.2ZM44.3897 69.76C44.3897 67.44 44.803 65.4133 45.6297 63.68C46.483 61.9467 47.6297 60.6133 49.0697 59.68C50.5364 58.7467 52.163 58.28 53.9497 58.28C55.4964 58.28 56.8297 58.5867 57.9497 59.2C59.0697 59.8133 59.9364 60.64 60.5497 61.68V58.56H68.3897V81H60.5497V77.88C59.9364 78.92 59.0564 79.7467 57.9097 80.36C56.7897 80.9733 55.4697 81.28 53.9497 81.28C52.163 81.28 50.5364 80.8133 49.0697 79.88C47.6297 78.9467 46.483 77.6133 45.6297 75.88C44.803 74.12 44.3897 72.08 44.3897 69.76ZM60.5497 69.76C60.5497 68.32 60.1497 67.1867 59.3497 66.36C58.5764 65.5333 57.6164 65.12 56.4697 65.12C55.2964 65.12 54.323 65.5333 53.5497 66.36C52.7764 67.16 52.3897 68.2933 52.3897 69.76C52.3897 71.2 52.7764 72.3467 53.5497 73.2C54.323 74.0267 55.2964 74.44 56.4697 74.44C57.6164 74.44 58.5764 74.0267 59.3497 73.2C60.1497 72.3733 60.5497 71.2267 60.5497 69.76ZM95.8172 58.56V81H87.9372V77.8C87.2705 78.8133 86.3505 79.64 85.1772 80.28C84.0039 80.8933 82.6572 81.2 81.1372 81.2C78.5239 81.2 76.4572 80.3467 74.9372 78.64C73.4439 76.9067 72.6972 74.56 72.6972 71.6V58.56H80.4972V70.6C80.4972 71.88 80.8305 72.8933 81.4972 73.64C82.1905 74.36 83.0972 74.72 84.2172 74.72C85.3639 74.72 86.2705 74.36 86.9372 73.64C87.6039 72.8933 87.9372 71.88 87.9372 70.6V58.56H95.8172ZM108.119 51.4V81H100.279V51.4H108.119ZM111.304 69.76C111.304 67.44 111.717 65.4133 112.544 63.68C113.397 61.9467 114.544 60.6133 115.984 59.68C117.45 58.7467 119.077 58.28 120.864 58.28C122.41 58.28 123.744 58.5867 124.864 59.2C125.984 59.8133 126.85 60.64 127.464 61.68V58.56H135.304V81H127.464V77.88C126.85 78.92 125.97 79.7467 124.824 80.36C123.704 80.9733 122.384 81.28 120.864 81.28C119.077 81.28 117.45 80.8133 115.984 79.88C114.544 78.9467 113.397 77.6133 112.544 75.88C111.717 74.12 111.304 72.08 111.304 69.76ZM127.464 69.76C127.464 68.32 127.064 67.1867 126.264 66.36C125.49 65.5333 124.53 65.12 123.384 65.12C122.21 65.12 121.237 65.5333 120.464 66.36C119.69 67.16 119.304 68.2933 119.304 69.76C119.304 71.2 119.69 72.3467 120.464 73.2C121.237 74.0267 122.21 74.44 123.384 74.44C124.53 74.44 125.49 74.0267 126.264 73.2C127.064 72.3733 127.464 71.2267 127.464 69.76ZM154.451 58.36C157.038 58.36 159.091 59.2267 160.611 60.96C162.131 62.6667 162.891 64.9867 162.891 67.92V81H155.051V68.96C155.051 67.68 154.718 66.68 154.051 65.96C153.385 65.2133 152.491 64.84 151.371 64.84C150.198 64.84 149.278 65.2133 148.611 65.96C147.945 66.68 147.611 67.68 147.611 68.96V81H139.771V58.56H147.611V61.76C148.305 60.7467 149.238 59.9333 150.411 59.32C151.585 58.68 152.931 58.36 154.451 58.36ZM188.633 69.52C188.633 70.1333 188.593 70.7467 188.513 71.36H173.673C173.753 72.5867 174.086 73.5067 174.673 74.12C175.286 74.7067 176.06 75 176.993 75C178.3 75 179.233 74.4133 179.793 73.24H188.153C187.806 74.7867 187.126 76.1733 186.113 77.4C185.126 78.6 183.873 79.5467 182.353 80.24C180.833 80.9333 179.153 81.28 177.313 81.28C175.1 81.28 173.126 80.8133 171.393 79.88C169.686 78.9467 168.34 77.6133 167.353 75.88C166.393 74.1467 165.913 72.1067 165.913 69.76C165.913 67.4133 166.393 65.3867 167.353 63.68C168.313 61.9467 169.646 60.6133 171.353 59.68C173.086 58.7467 175.073 58.28 177.313 58.28C179.526 58.28 181.486 58.7333 183.193 59.64C184.9 60.5467 186.233 61.8533 187.193 63.56C188.153 65.24 188.633 67.2267 188.633 69.52ZM180.633 67.56C180.633 66.6 180.313 65.8533 179.673 65.32C179.033 64.76 178.233 64.48 177.273 64.48C176.313 64.48 175.526 64.7467 174.913 65.28C174.3 65.7867 173.9 66.5467 173.713 67.56H180.633ZM199.682 62.52C200.562 61.24 201.628 60.2267 202.882 59.48C204.135 58.7333 205.482 58.36 206.922 58.36V66.72H204.722C203.015 66.72 201.748 67.0533 200.922 67.72C200.095 68.3867 199.682 69.5467 199.682 71.2V81H191.842V58.56H199.682V62.52Z" fill="#1E234C"/>
<rect x="220" y="-1" width="180" height="140" fill="#6ECEAD"/>
<path d="M250.144 54.312C251.136 54.536 251.92 55.032 252.496 55.8C253.088 56.552 253.384 57.416 253.384 58.392C253.384 59.832 252.888 60.96 251.896 61.776C250.904 62.592 249.512 63 247.72 63H239.344V46.08H247.456C249.184 46.08 250.536 46.464 251.512 47.232C252.504 48 253 49.08 253 50.472C253 51.464 252.736 52.296 252.208 52.968C251.696 53.624 251.008 54.072 250.144 54.312ZM244.048 52.8H246.424C247.608 52.8 248.2 52.312 248.2 51.336C248.2 50.328 247.608 49.824 246.424 49.824H244.048V52.8ZM246.784 59.208C247.968 59.208 248.56 58.712 248.56 57.72C248.56 57.208 248.4 56.816 248.08 56.544C247.776 56.272 247.336 56.136 246.76 56.136H244.048V59.208H246.784ZM268.55 56.112C268.55 56.48 268.526 56.848 268.478 57.216H259.574C259.622 57.952 259.822 58.504 260.174 58.872C260.542 59.224 261.006 59.4 261.566 59.4C262.35 59.4 262.91 59.048 263.246 58.344H268.262C268.054 59.272 267.646 60.104 267.038 60.84C266.446 61.56 265.694 62.128 264.782 62.544C263.87 62.96 262.862 63.168 261.758 63.168C260.43 63.168 259.246 62.888 258.206 62.328C257.182 61.768 256.374 60.968 255.782 59.928C255.206 58.888 254.918 57.664 254.918 56.256C254.918 54.848 255.206 53.632 255.782 52.608C256.358 51.568 257.158 50.768 258.182 50.208C259.222 49.648 260.414 49.368 261.758 49.368C263.086 49.368 264.262 49.64 265.286 50.184C266.31 50.728 267.11 51.512 267.686 52.536C268.262 53.544 268.55 54.736 268.55 56.112ZM263.75 54.936C263.75 54.36 263.558 53.912 263.174 53.592C262.79 53.256 262.31 53.088 261.734 53.088C261.158 53.088 260.686 53.248 260.318 53.568C259.95 53.872 259.71 54.328 259.598 54.936H263.75ZM269.947 56.256C269.947 54.864 270.195 53.648 270.691 52.608C271.203 51.568 271.891 50.768 272.755 50.208C273.635 49.648 274.611 49.368 275.683 49.368C276.611 49.368 277.411 49.552 278.083 49.92C278.755 50.288 279.275 50.784 279.643 51.408V49.536H284.347V63H279.643V61.128C279.275 61.752 278.747 62.248 278.059 62.616C277.387 62.984 276.595 63.168 275.683 63.168C274.611 63.168 273.635 62.888 272.755 62.328C271.891 61.768 271.203 60.968 270.691 59.928C270.195 58.872 269.947 57.648 269.947 56.256ZM279.643 56.256C279.643 55.392 279.403 54.712 278.923 54.216C278.459 53.72 277.883 53.472 277.195 53.472C276.491 53.472 275.907 53.72 275.443 54.216C274.979 54.696 274.747 55.376 274.747 56.256C274.747 57.12 274.979 57.808 275.443 58.32C275.907 58.816 276.491 59.064 277.195 59.064C277.883 59.064 278.459 58.816 278.923 58.32C279.403 57.824 279.643 57.136 279.643 56.256ZM286.499 56.256C286.499 54.864 286.787 53.648 287.363 52.608C287.939 51.568 288.739 50.768 289.763 50.208C290.803 49.648 291.987 49.368 293.315 49.368C295.027 49.368 296.467 49.84 297.635 50.784C298.803 51.712 299.555 53.016 299.891 54.696H294.899C294.611 53.816 294.051 53.376 293.219 53.376C292.627 53.376 292.155 53.624 291.803 54.12C291.467 54.6 291.299 55.312 291.299 56.256C291.299 57.2 291.467 57.92 291.803 58.416C292.155 58.912 292.627 59.16 293.219 59.16C294.067 59.16 294.627 58.72 294.899 57.84H299.891C299.555 59.504 298.803 60.808 297.635 61.752C296.467 62.696 295.027 63.168 293.315 63.168C291.987 63.168 290.803 62.888 289.763 62.328C288.739 61.768 287.939 60.968 287.363 59.928C286.787 58.888 286.499 57.664 286.499 56.256ZM310.941 49.416C312.477 49.416 313.693 49.936 314.589 50.976C315.501 52 315.957 53.392 315.957 55.152V63H311.253V55.776C311.253 55.008 311.053 54.408 310.653 53.976C310.253 53.528 309.717 53.304 309.045 53.304C308.341 53.304 307.789 53.528 307.389 53.976C306.989 54.408 306.789 55.008 306.789 55.776V63H302.085V45.24H306.789V51.456C307.205 50.848 307.765 50.36 308.469 49.992C309.189 49.608 310.013 49.416 310.941 49.416Z" fill="white"/>
<path d="M333.144 84.312C334.136 84.536 334.92 85.032 335.496 85.8C336.088 86.552 336.384 87.416 336.384 88.392C336.384 89.832 335.888 90.96 334.896 91.776C333.904 92.592 332.512 93 330.72 93H322.344V76.08H330.456C332.184 76.08 333.536 76.464 334.512 77.232C335.504 78 336 79.08 336 80.472C336 81.464 335.736 82.296 335.208 82.968C334.696 83.624 334.008 84.072 333.144 84.312ZM327.048 82.8H329.424C330.608 82.8 331.2 82.312 331.2 81.336C331.2 80.328 330.608 79.824 329.424 79.824H327.048V82.8ZM329.784 89.208C330.968 89.208 331.56 88.712 331.56 87.72C331.56 87.208 331.4 86.816 331.08 86.544C330.776 86.272 330.336 86.136 329.76 86.136H327.048V89.208H329.784ZM337.918 86.256C337.918 84.864 338.166 83.648 338.662 82.608C339.174 81.568 339.862 80.768 340.726 80.208C341.606 79.648 342.582 79.368 343.654 79.368C344.582 79.368 345.382 79.552 346.054 79.92C346.726 80.288 347.246 80.784 347.614 81.408V79.536H352.318V93H347.614V91.128C347.246 91.752 346.718 92.248 346.03 92.616C345.358 92.984 344.566 93.168 343.654 93.168C342.582 93.168 341.606 92.888 340.726 92.328C339.862 91.768 339.174 90.968 338.662 89.928C338.166 88.872 337.918 87.648 337.918 86.256ZM347.614 86.256C347.614 85.392 347.374 84.712 346.894 84.216C346.43 83.72 345.854 83.472 345.166 83.472C344.462 83.472 343.878 83.72 343.414 84.216C342.95 84.696 342.718 85.376 342.718 86.256C342.718 87.12 342.95 87.808 343.414 88.32C343.878 88.816 344.462 89.064 345.166 89.064C345.854 89.064 346.43 88.816 346.894 88.32C347.374 87.824 347.614 87.136 347.614 86.256ZM359.942 81.912C360.47 81.144 361.11 80.536 361.862 80.088C362.614 79.64 363.422 79.416 364.286 79.416V84.432H362.966C361.942 84.432 361.182 84.632 360.686 85.032C360.19 85.432 359.942 86.128 359.942 87.12V93H355.238V79.536H359.942V81.912Z" fill="white"/>
<path d="M245.782 28L243.822 24.36H243.528V28H240.784V18.13H245.11C245.903 18.13 246.575 18.27 247.126 18.55C247.677 18.8207 248.092 19.1987 248.372 19.684C248.652 20.16 248.792 20.6967 248.792 21.294C248.792 21.966 248.605 22.5587 248.232 23.072C247.868 23.576 247.331 23.9353 246.622 24.15L248.848 28H245.782ZM243.528 22.484H244.886C245.259 22.484 245.539 22.3953 245.726 22.218C245.913 22.0407 246.006 21.784 246.006 21.448C246.006 21.1307 245.908 20.8833 245.712 20.706C245.525 20.5193 245.25 20.426 244.886 20.426H243.528V22.484ZM257.684 23.982C257.684 24.1967 257.67 24.4113 257.642 24.626H252.448C252.476 25.0553 252.593 25.3773 252.798 25.592C253.013 25.7973 253.283 25.9 253.61 25.9C254.067 25.9 254.394 25.6947 254.59 25.284H257.516C257.395 25.8253 257.157 26.3107 256.802 26.74C256.457 27.16 256.018 27.4913 255.486 27.734C254.954 27.9767 254.366 28.098 253.722 28.098C252.947 28.098 252.257 27.9347 251.65 27.608C251.053 27.2813 250.581 26.8147 250.236 26.208C249.9 25.6013 249.732 24.8873 249.732 24.066C249.732 23.2447 249.9 22.5353 250.236 21.938C250.572 21.3313 251.039 20.8647 251.636 20.538C252.243 20.2113 252.938 20.048 253.722 20.048C254.497 20.048 255.183 20.2067 255.78 20.524C256.377 20.8413 256.844 21.2987 257.18 21.896C257.516 22.484 257.684 23.1793 257.684 23.982ZM254.884 23.296C254.884 22.96 254.772 22.6987 254.548 22.512C254.324 22.316 254.044 22.218 253.708 22.218C253.372 22.218 253.097 22.3113 252.882 22.498C252.667 22.6753 252.527 22.9413 252.462 23.296H254.884ZM261.691 17.64V28H258.947V17.64H261.691ZM262.945 24.066C262.945 23.254 263.09 22.5447 263.379 21.938C263.678 21.3313 264.079 20.8647 264.583 20.538C265.097 20.2113 265.666 20.048 266.291 20.048C266.833 20.048 267.299 20.1553 267.691 20.37C268.083 20.5847 268.387 20.874 268.601 21.238V20.146H271.345V28H268.601V26.908C268.387 27.272 268.079 27.5613 267.677 27.776C267.285 27.9907 266.823 28.098 266.291 28.098C265.666 28.098 265.097 27.9347 264.583 27.608C264.079 27.2813 263.678 26.8147 263.379 26.208C263.09 25.592 262.945 24.878 262.945 24.066ZM268.601 24.066C268.601 23.562 268.461 23.1653 268.181 22.876C267.911 22.5867 267.575 22.442 267.173 22.442C266.763 22.442 266.422 22.5867 266.151 22.876C265.881 23.156 265.745 23.5527 265.745 24.066C265.745 24.57 265.881 24.9713 266.151 25.27C266.422 25.5593 266.763 25.704 267.173 25.704C267.575 25.704 267.911 25.5593 268.181 25.27C268.461 24.9807 268.601 24.5793 268.601 24.066ZM277.949 28L276.535 26.026L275.415 28H272.405L275.023 23.926L272.293 20.146H275.373L276.787 22.12L277.921 20.146H280.931L278.257 24.15L281.029 28H277.949Z" fill="#1E234C"/>
<path d="M334.528 21.328V22.938H337.678V25.024H334.528V26.802H338.098V29H331.784V19.13H338.098V21.328H334.528ZM344.732 21.076C345.637 21.076 346.356 21.3793 346.888 21.986C347.42 22.5833 347.686 23.3953 347.686 24.422V29H344.942V24.786C344.942 24.338 344.825 23.988 344.592 23.736C344.359 23.4747 344.046 23.344 343.654 23.344C343.243 23.344 342.921 23.4747 342.688 23.736C342.455 23.988 342.338 24.338 342.338 24.786V29H339.594V21.146H342.338V22.266C342.581 21.9113 342.907 21.6267 343.318 21.412C343.729 21.188 344.2 21.076 344.732 21.076ZM350.704 20.418C350.218 20.418 349.826 20.2873 349.528 20.026C349.238 19.7553 349.094 19.4193 349.094 19.018C349.094 18.6073 349.238 18.2667 349.528 17.996C349.826 17.7253 350.218 17.59 350.704 17.59C351.18 17.59 351.562 17.7253 351.852 17.996C352.15 18.2667 352.3 18.6073 352.3 19.018C352.3 19.4193 352.15 19.7553 351.852 20.026C351.562 20.2873 351.18 20.418 350.704 20.418ZM352.076 29.77C352.076 31.758 351.077 32.752 349.08 32.752H348.086V30.414H348.674C348.907 30.414 349.075 30.3673 349.178 30.274C349.28 30.1807 349.332 30.0267 349.332 29.812V21.146H352.076V29.77ZM357.419 29.098C356.635 29.098 355.93 28.9347 355.305 28.608C354.689 28.2813 354.203 27.8147 353.849 27.208C353.494 26.6013 353.317 25.8873 353.317 25.066C353.317 24.254 353.494 23.5447 353.849 22.938C354.213 22.3313 354.703 21.8647 355.319 21.538C355.944 21.2113 356.649 21.048 357.433 21.048C358.217 21.048 358.917 21.2113 359.533 21.538C360.158 21.8647 360.648 22.3313 361.003 22.938C361.367 23.5447 361.549 24.254 361.549 25.066C361.549 25.878 361.367 26.592 361.003 27.208C360.648 27.8147 360.158 28.2813 359.533 28.608C358.907 28.9347 358.203 29.098 357.419 29.098ZM357.419 26.718C357.801 26.718 358.119 26.578 358.371 26.298C358.632 26.0087 358.763 25.598 358.763 25.066C358.763 24.534 358.632 24.128 358.371 23.848C358.119 23.568 357.806 23.428 357.433 23.428C357.059 23.428 356.747 23.568 356.495 23.848C356.243 24.128 356.117 24.534 356.117 25.066C356.117 25.6073 356.238 26.018 356.481 26.298C356.723 26.578 357.036 26.718 357.419 26.718ZM371.261 21.146L366.277 32.738H363.295L365.171 28.664L361.951 21.146H365.003L366.655 25.598L368.251 21.146H371.261Z" fill="#1E234C"/>
<path d="M336.782 122L334.822 118.36H334.528V122H331.784V112.13H336.11C336.903 112.13 337.575 112.27 338.126 112.55C338.677 112.821 339.092 113.199 339.372 113.684C339.652 114.16 339.792 114.697 339.792 115.294C339.792 115.966 339.605 116.559 339.232 117.072C338.868 117.576 338.331 117.935 337.622 118.15L339.848 122H336.782ZM334.528 116.484H335.886C336.259 116.484 336.539 116.395 336.726 116.218C336.913 116.041 337.006 115.784 337.006 115.448C337.006 115.131 336.908 114.883 336.712 114.706C336.525 114.519 336.25 114.426 335.886 114.426H334.528V116.484ZM348.684 117.982C348.684 118.197 348.67 118.411 348.642 118.626H343.448C343.476 119.055 343.593 119.377 343.798 119.592C344.013 119.797 344.283 119.9 344.61 119.9C345.067 119.9 345.394 119.695 345.59 119.284H348.516C348.395 119.825 348.157 120.311 347.802 120.74C347.457 121.16 347.018 121.491 346.486 121.734C345.954 121.977 345.366 122.098 344.722 122.098C343.947 122.098 343.257 121.935 342.65 121.608C342.053 121.281 341.581 120.815 341.236 120.208C340.9 119.601 340.732 118.887 340.732 118.066C340.732 117.245 340.9 116.535 341.236 115.938C341.572 115.331 342.039 114.865 342.636 114.538C343.243 114.211 343.938 114.048 344.722 114.048C345.497 114.048 346.183 114.207 346.78 114.524C347.377 114.841 347.844 115.299 348.18 115.896C348.516 116.484 348.684 117.179 348.684 117.982ZM345.884 117.296C345.884 116.96 345.772 116.699 345.548 116.512C345.324 116.316 345.044 116.218 344.708 116.218C344.372 116.218 344.097 116.311 343.882 116.498C343.667 116.675 343.527 116.941 343.462 117.296H345.884ZM352.691 115.238C352.905 114.874 353.209 114.585 353.601 114.37C353.993 114.155 354.455 114.048 354.987 114.048C355.612 114.048 356.177 114.211 356.681 114.538C357.194 114.865 357.595 115.331 357.885 115.938C358.183 116.545 358.333 117.254 358.333 118.066C358.333 118.878 358.183 119.592 357.885 120.208C357.595 120.815 357.194 121.281 356.681 121.608C356.177 121.935 355.612 122.098 354.987 122.098C354.455 122.098 353.993 121.991 353.601 121.776C353.218 121.561 352.915 121.272 352.691 120.908V125.752H349.947V114.146H352.691V115.238ZM355.547 118.066C355.547 117.553 355.407 117.156 355.127 116.876C354.856 116.587 354.52 116.442 354.119 116.442C353.717 116.442 353.377 116.587 353.097 116.876C352.826 117.165 352.691 117.562 352.691 118.066C352.691 118.579 352.826 118.981 353.097 119.27C353.377 119.559 353.717 119.704 354.119 119.704C354.52 119.704 354.856 119.559 355.127 119.27C355.407 118.971 355.547 118.57 355.547 118.066ZM367.106 117.982C367.106 118.197 367.092 118.411 367.064 118.626H361.87C361.898 119.055 362.015 119.377 362.22 119.592C362.435 119.797 362.706 119.9 363.032 119.9C363.49 119.9 363.816 119.695 364.012 119.284H366.938C366.817 119.825 366.579 120.311 366.224 120.74C365.879 121.16 365.44 121.491 364.908 121.734C364.376 121.977 363.788 122.098 363.144 122.098C362.37 122.098 361.679 121.935 361.072 121.608C360.475 121.281 360.004 120.815 359.658 120.208C359.322 119.601 359.154 118.887 359.154 118.066C359.154 117.245 359.322 116.535 359.658 115.938C359.994 115.331 360.461 114.865 361.058 114.538C361.665 114.211 362.36 114.048 363.144 114.048C363.919 114.048 364.605 114.207 365.202 114.524C365.8 114.841 366.266 115.299 366.602 115.896C366.938 116.484 367.106 117.179 367.106 117.982ZM364.306 117.296C364.306 116.96 364.194 116.699 363.97 116.512C363.746 116.316 363.466 116.218 363.13 116.218C362.794 116.218 362.519 116.311 362.304 116.498C362.09 116.675 361.95 116.941 361.884 117.296H364.306ZM367.921 118.066C367.921 117.254 368.066 116.545 368.355 115.938C368.654 115.331 369.055 114.865 369.559 114.538C370.073 114.211 370.642 114.048 371.267 114.048C371.809 114.048 372.275 114.155 372.667 114.37C373.059 114.585 373.363 114.874 373.577 115.238V114.146H376.321V122H373.577V120.908C373.363 121.272 373.055 121.561 372.653 121.776C372.261 121.991 371.799 122.098 371.267 122.098C370.642 122.098 370.073 121.935 369.559 121.608C369.055 121.281 368.654 120.815 368.355 120.208C368.066 119.592 367.921 118.878 367.921 118.066ZM373.577 118.066C373.577 117.562 373.437 117.165 373.157 116.876C372.887 116.587 372.551 116.442 372.149 116.442C371.739 116.442 371.398 116.587 371.127 116.876C370.857 117.156 370.721 117.553 370.721 118.066C370.721 118.57 370.857 118.971 371.127 119.27C371.398 119.559 371.739 119.704 372.149 119.704C372.551 119.704 372.887 119.559 373.157 119.27C373.437 118.981 373.577 118.579 373.577 118.066ZM382.659 119.662V122H381.469C379.462 122 378.459 121.006 378.459 119.018V116.428H377.493V114.146H378.459V112.242H381.217V114.146H382.645V116.428H381.217V119.06C381.217 119.275 381.264 119.429 381.357 119.522C381.46 119.615 381.628 119.662 381.861 119.662H382.659Z" fill="#1E234C"/>
<path d="M244.782 122L242.822 118.36H242.528V122H239.784V112.13H244.11C244.903 112.13 245.575 112.27 246.126 112.55C246.677 112.821 247.092 113.199 247.372 113.684C247.652 114.16 247.792 114.697 247.792 115.294C247.792 115.966 247.605 116.559 247.232 117.072C246.868 117.576 246.331 117.935 245.622 118.15L247.848 122H244.782ZM242.528 116.484H243.886C244.259 116.484 244.539 116.395 244.726 116.218C244.913 116.041 245.006 115.784 245.006 115.448C245.006 115.131 244.908 114.883 244.712 114.706C244.525 114.519 244.25 114.426 243.886 114.426H242.528V116.484ZM256.684 117.982C256.684 118.197 256.67 118.411 256.642 118.626H251.448C251.476 119.055 251.593 119.377 251.798 119.592C252.013 119.797 252.283 119.9 252.61 119.9C253.067 119.9 253.394 119.695 253.59 119.284H256.516C256.395 119.825 256.157 120.311 255.802 120.74C255.457 121.16 255.018 121.491 254.486 121.734C253.954 121.977 253.366 122.098 252.722 122.098C251.947 122.098 251.257 121.935 250.65 121.608C250.053 121.281 249.581 120.815 249.236 120.208C248.9 119.601 248.732 118.887 248.732 118.066C248.732 117.245 248.9 116.535 249.236 115.938C249.572 115.331 250.039 114.865 250.636 114.538C251.243 114.211 251.938 114.048 252.722 114.048C253.497 114.048 254.183 114.207 254.78 114.524C255.377 114.841 255.844 115.299 256.18 115.896C256.516 116.484 256.684 117.179 256.684 117.982ZM253.884 117.296C253.884 116.96 253.772 116.699 253.548 116.512C253.324 116.316 253.044 116.218 252.708 116.218C252.372 116.218 252.097 116.311 251.882 116.498C251.667 116.675 251.527 116.941 251.462 117.296H253.884ZM262.189 116.428H260.957V122H258.199V116.428H257.345V114.146H258.199V114.076C258.199 113.068 258.493 112.298 259.081 111.766C259.678 111.225 260.532 110.954 261.643 110.954C261.867 110.954 262.039 110.959 262.161 110.968V113.306C262.086 113.297 261.983 113.292 261.853 113.292C261.554 113.292 261.335 113.362 261.195 113.502C261.055 113.633 260.975 113.847 260.957 114.146H262.189V116.428ZM266.053 115.532C266.361 115.084 266.735 114.729 267.173 114.468C267.612 114.207 268.083 114.076 268.587 114.076V117.002H267.817C267.22 117.002 266.777 117.119 266.487 117.352C266.198 117.585 266.053 117.991 266.053 118.57V122H263.309V114.146H266.053V115.532ZM277.215 117.982C277.215 118.197 277.201 118.411 277.173 118.626H271.979C272.007 119.055 272.124 119.377 272.329 119.592C272.544 119.797 272.815 119.9 273.141 119.9C273.599 119.9 273.925 119.695 274.121 119.284H277.047C276.926 119.825 276.688 120.311 276.333 120.74C275.988 121.16 275.549 121.491 275.017 121.734C274.485 121.977 273.897 122.098 273.253 122.098C272.479 122.098 271.788 121.935 271.181 121.608C270.584 121.281 270.113 120.815 269.767 120.208C269.431 119.601 269.263 118.887 269.263 118.066C269.263 117.245 269.431 116.535 269.767 115.938C270.103 115.331 270.57 114.865 271.167 114.538C271.774 114.211 272.469 114.048 273.253 114.048C274.028 114.048 274.714 114.207 275.311 114.524C275.909 114.841 276.375 115.299 276.711 115.896C277.047 116.484 277.215 117.179 277.215 117.982ZM274.415 117.296C274.415 116.96 274.303 116.699 274.079 116.512C273.855 116.316 273.575 116.218 273.239 116.218C272.903 116.218 272.628 116.311 272.413 116.498C272.199 116.675 272.059 116.941 271.993 117.296H274.415ZM281.824 122.098C281.115 122.098 280.48 121.981 279.92 121.748C279.369 121.505 278.931 121.179 278.604 120.768C278.287 120.348 278.109 119.877 278.072 119.354H280.732C280.769 119.606 280.886 119.802 281.082 119.942C281.278 120.082 281.521 120.152 281.81 120.152C282.034 120.152 282.211 120.105 282.342 120.012C282.473 119.919 282.538 119.797 282.538 119.648C282.538 119.452 282.431 119.307 282.216 119.214C282.001 119.121 281.647 119.018 281.152 118.906C280.592 118.794 280.125 118.668 279.752 118.528C279.379 118.388 279.052 118.159 278.772 117.842C278.501 117.525 278.366 117.095 278.366 116.554C278.366 116.087 278.492 115.667 278.744 115.294C278.996 114.911 279.365 114.608 279.85 114.384C280.345 114.16 280.937 114.048 281.628 114.048C282.655 114.048 283.462 114.3 284.05 114.804C284.638 115.308 284.979 115.971 285.072 116.792H282.594C282.547 116.54 282.435 116.349 282.258 116.218C282.09 116.078 281.861 116.008 281.572 116.008C281.348 116.008 281.175 116.05 281.054 116.134C280.942 116.218 280.886 116.335 280.886 116.484C280.886 116.671 280.993 116.815 281.208 116.918C281.423 117.011 281.768 117.109 282.244 117.212C282.813 117.333 283.285 117.469 283.658 117.618C284.041 117.767 284.372 118.01 284.652 118.346C284.941 118.673 285.086 119.121 285.086 119.69C285.086 120.147 284.951 120.558 284.68 120.922C284.419 121.286 284.041 121.575 283.546 121.79C283.061 121.995 282.487 122.098 281.824 122.098ZM291.741 114.076C292.637 114.076 293.347 114.379 293.869 114.986C294.401 115.583 294.667 116.395 294.667 117.422V122H291.923V117.786C291.923 117.338 291.807 116.988 291.573 116.736C291.34 116.475 291.027 116.344 290.635 116.344C290.225 116.344 289.903 116.475 289.669 116.736C289.436 116.988 289.319 117.338 289.319 117.786V122H286.575V111.64H289.319V115.266C289.562 114.911 289.889 114.627 290.299 114.412C290.719 114.188 291.2 114.076 291.741 114.076Z" fill="#1E234C"/>
</g>
<defs>
<linearGradient id="paint0_linear_361_1270" x1="0" y1="0" x2="222" y2="164" gradientUnits="userSpaceOnUse">
<stop stop-color="white"/>
<stop offset="1" stop-color="#6ECEAD"/>
</linearGradient>
<clipPath id="clip0_361_1270">
<rect width="400" height="139" fill="white"/>
</clipPath>
</defs>
</svg>
