<?xml version="1.0" encoding="UTF-8"?>
<svg xmlns="http://www.w3.org/2000/svg" version="1.1" xmlns:xlink="http://www.w3.org/1999/xlink" viewBox="0 0 500 500">
  <defs>
    <style>
      .cls-1 {
        fill: #f3ead8;
      }

      .cls-1, .cls-2, .cls-3, .cls-4, .cls-5, .cls-6, .cls-7, .cls-8, .cls-9 {
        stroke-width: 0px;
      }

      .cls-1, .cls-4 {
        mix-blend-mode: soft-light;
      }

      .cls-10 {
        letter-spacing: .2em;
      }

      .cls-10, .cls-11 {
        font-size: 12.57px;
      }

      .cls-10, .cls-11, .cls-6, .cls-12 {
        fill: #28292b;
      }

      .cls-10, .cls-11, .cls-12 {
        font-family: LondrinaSolid-Regular, 'LondrinaSolid Regular';
      }

      .cls-2 {
        fill: #df6e10;
      }

      .cls-3, .cls-7 {
        fill: #f7ae1c;
      }

      .cls-13 {
        isolation: isolate;
      }

      .cls-4 {
        fill: #f4ebd9;
      }

      .cls-5 {
        fill: #cec7c2;
      }

      .cls-11 {
        letter-spacing: .2em;
      }

      .cls-12 {
        font-size: 48.18px;
      }

      .cls-14 {
        stroke-width: 2px;
      }

      .cls-14, .cls-15 {
        fill: none;
        stroke: #28292b;
        stroke-linecap: round;
        stroke-miterlimit: 10;
      }

      .cls-7 {
        opacity: .25;
      }

      .cls-7, .cls-8, .cls-9 {
        mix-blend-mode: multiply;
      }

      .cls-8, .cls-9 {
        fill: #b8bcbf;
      }

      .cls-9 {
        opacity: .4;
      }

      .cls-15 {
        stroke-width: 3px;
      }
    </style>
    <path id="path" d="M141.94,314.68c-11.58-19.08-18.24-41.48-18.24-65.43,0-62.09,44.8-113.72,103.85-124.31"/>
    <path id="path-2" d="M267.62,124.17c61.41,8.57,108.68,61.31,108.68,125.08,0,49.51-28.49,92.37-69.97,113.07"/>
  </defs>
  <g class="cls-13">
    <g id="OBJECTS">
      <g>
        <path class="cls-6" d="M205.56,102.92l2.4,4.04c.13.21.33.36.57.42l4.59,1.03c.66.15.93.96.48,1.47l-3.11,3.53c-.16.19-.24.43-.22.68l.44,4.68c.06.68-.62,1.18-1.25.91l-4.32-1.86c-.23-.1-.48-.1-.71,0l-4.32,1.86c-.62.27-1.31-.23-1.25-.91l.44-4.68c.02-.25-.06-.49-.22-.68l-3.11-3.53c-.45-.51-.19-1.32.48-1.47l4.59-1.03c.24-.05.45-.21.57-.42l2.4-4.04c.35-.59,1.19-.59,1.54,0Z"/>
        <path class="cls-6" d="M293.51,102.92l2.4,4.04c.13.21.33.36.57.42l4.59,1.03c.66.15.93.96.48,1.47l-3.11,3.53c-.16.19-.24.43-.22.68l.44,4.68c.06.68-.62,1.18-1.25.91l-4.32-1.86c-.23-.1-.48-.1-.71,0l-4.32,1.86c-.62.27-1.31-.23-1.25-.91l.44-4.68c.02-.25-.06-.49-.22-.68l-3.11-3.53c-.45-.51-.19-1.32.48-1.47l4.59-1.03c.24-.05.45-.21.57-.42l2.4-4.04c.35-.59,1.19-.59,1.54,0Z"/>
        <path class="cls-6" d="M342.35,350.59l2.4,4.04c.13.21.33.36.57.42l4.59,1.03c.66.15.93.96.48,1.47l-3.11,3.53c-.16.19-.24.43-.22.68l.44,4.68c.06.68-.62,1.18-1.25.91l-4.32-1.86c-.23-.1-.48-.1-.71,0l-4.32,1.86c-.62.27-1.31-.23-1.25-.91l.44-4.68c.02-.25-.06-.49-.22-.68l-3.11-3.53c-.45-.51-.19-1.32.48-1.47l4.59-1.03c.24-.05.45-.21.57-.42l2.4-4.04c.35-.59,1.19-.59,1.54,0Z"/>
        <path class="cls-6" d="M123.5,309.49l2.4,4.04c.13.21.33.36.57.42l4.59,1.03c.66.15.93.96.48,1.47l-3.11,3.53c-.16.19-.24.43-.22.68l.44,4.68c.06.68-.62,1.18-1.25.91l-4.32-1.86c-.23-.1-.48-.1-.71,0l-4.32,1.86c-.62.27-1.31-.23-1.25-.91l.44-4.68c.02-.25-.06-.49-.22-.68l-3.11-3.53c-.45-.51-.19-1.32.48-1.47l4.59-1.03c.24-.05.45-.21.57-.42l2.4-4.04c.35-.59,1.19-.59,1.54,0Z"/>
      </g>
      <g>
        <path class="cls-7" d="M334.93,253.64c-1.47-1.87-3.37-3.43-5.48-4.54-1.06-.56-2.18-1.02-3.33-1.36-.64-.19-1.28-.34-1.94-.45-.2-.03-.7-.04-1.11-.09.08-.37.19-.74.25-1.09.11-.68.19-1.36.21-2.05.05-1.3-.08-2.6-.34-3.87-.52-2.61-1.72-5.06-3.42-7.1-3-3.61-7.7-5.66-12.37-5.63.12-3.28-1.67-6.49-4.8-7.86-1.65-.72-3.45-.9-5.17-.41-.03-.06-.07-.12-.1-.18-1.41-2.37-3.53-4.29-6.21-5.06-5.64-1.61-11.47,1.67-14.17,6.61-1.07,1.95-1.83,4.23-2.05,6.51-.27-.17-.53-.34-.8-.5-2.26-1.27-4.85-2.05-7.32-.87-2.02.96-3.38,2.99-3.97,5.1-.34,1.19-.48,2.45-.48,3.69,0,1.13-.06,2.73.85,3.56.04.03.08.05.11.08.17,2.18.13,4.25-.54,6.38-.64,2.02-1.54,3.95-2.16,5.99-.63,2.07-1.01,4.2-1.24,6.35-.46,4.27-.13,8.59.61,12.8.37,2.08.9,4.12,1.41,6.17.51,2.03.97,4.13.4,6.2-.57,2.05-.81,3.61.14,5.61.79,1.67,2.01,3.16,3.34,4.43,2.87,2.71,6.47,4.71,10.14,6.12,7.34,2.83,16.15,2.69,22.77-1.92,3.66-2.55,6.6-6.28,9.27-9.81,1.34-1.76,2.97-4.05,3.84-6.43,1.72.73,3.53,1.22,5.4,1.42,4.85.54,9.87-.92,13.88-3.65,3.92-2.67,6.92-6.49,7.68-11.26.73-4.57-.41-9.25-3.29-12.89Z"/>
        <path class="cls-7" d="M233.33,234.67c2.75-3.44,4.57-8.17,2.32-12.37-1.14-2.13-3.17-3.05-5.29-3.97-2.09-.91-3.65-2.35-4.02-4.69-.37-2.33,1.3-4.26.44-6.6-.43-1.18-1.17-2.22-1.65-3.38-.53-1.28-.88-2.67-1.01-4.05-.24-2.58.47-5.26-.44-7.77-.76-2.1-2.38-3.87-4.39-4.85-4.85-2.36-10.66.01-13.14,4.67-1.62,3.05-1.81,6.93-.78,10.38-.86.27-1.7.6-2.53.94-1.39.57-2.77,1.23-3.81,2.31-.96-5.09-6.99-7.71-11.9-8.46-6.59-.99-12.97.63-17.71,5.44-8.48,8.59-10.87,23.64-3.15,33.47,2.14,2.73,4.91,4.64,8.19,5.77,1.96.67,3.99,1.17,6,1.66.11.03.23.06.34.08-.17.34-.31.66-.42.92-.99,2.3-1.67,4.82-2.14,7.27-.97,5.03.92,9.71,4.9,12.92,3.66,2.95,8.42,4.14,13.02,3.02,4.74-1.16,8.32-4.67,10.22-9.08,1.09-2.54,1.64-5.24,1.85-7.99.03-.42.06-.84.08-1.26,1.56.02,3.23-.35,4.51-.7.1-.03.2-.06.29-.09-.51,3.73.89,7.52,3.3,10.43,2.94,3.54,8.55,6.28,12.9,3.61,2.01-1.24,3.16-3.42,2.97-5.78-.22-2.78-1.77-5.32-2.8-7.86-.94-2.32-2.88-5.78-1.39-8.19,1.35-2.17,3.63-3.81,5.23-5.81Z"/>
        <path class="cls-6" d="M224.73,197.19c1.36-2.11.09-5.61-.98-7.58-1.36-2.5-3.78-3.87-6.52-4.45-6.02-1.26-12.49,2.47-13.38,8.79-.23,1.64-.07,3.33.52,4.88.3.8.67,1.57,1.16,2.27.24.34.48.64.81.9.39.31.84.43,1.24.71.77.55,1.47-.59.95-1.23-.19-.23-.26-.61-.4-.88-.18-.36-.41-.67-.62-1.01-.42-.67-.76-1.37-.98-2.14-.4-1.4-.41-2.86,0-4.26.87-2.99,3.44-5.08,6.45-5.7,2.54-.52,6.17.1,7.92,2.16.81.95,1.34,2.15,1.69,3.33.4,1.33.35,2.67.64,4,.16.73,1.14.76,1.5.2h0Z"/>
        <path class="cls-6" d="M212.95,202.66c-1.8-2.6-5.58-2.72-8.35-1.88-2.84.86-5.29,2.72-7.02,5.11-1.79,2.46-2.64,5.55-2.42,8.58.12,1.65.49,3.25,1.16,4.77.64,1.46,1.4,2.8,2.92,3,.51.07.85-.46.89-.89.12-1.3-.92-2.38-1.42-3.51-.46-1.05-.77-2.22-.87-3.37-.21-2.46.44-4.85,1.8-6.9,1.24-1.87,3.13-3.41,5.25-4.17,2.4-.86,4.59-.59,6.86.46.72.34,1.76-.41,1.21-1.21h0Z"/>
        <path class="cls-6" d="M199.78,205.9c-.04-4.29-4.91-6.75-8.34-8.12-4.18-1.67-8.81-2.21-13.24-1.34-5.87,1.14-10.86,4.8-14.09,9.79-6.42,9.91-6.04,24.67,2.97,32.93,3.4,3.11,7.68,5.31,12.17,6.31,4.61,1.03,9.97,1.12,14.04-1.56.89-.59.3-1.82-.7-1.66-3.78.62-7.59,1.27-11.42.62-3.83-.64-7.45-2.19-10.59-4.47-4.3-3.12-6.98-7.94-7.89-13.12-1.75-9.94,3.07-21.57,12.71-25.61,3.63-1.52,7.71-1.76,11.54-.94,2.37.51,4.65,1.37,6.76,2.57,1.96,1.11,3.74,2.52,4.18,4.85.21,1.09,1.92.82,1.91-.26h0Z"/>
        <path class="cls-6" d="M181.05,243.79c-7.39,5.36-5.42,17.49,1.27,22.5,7.41,5.55,18.32,3.37,23.22-4.37,1.32-2.09,2.19-4.49,2.55-6.93.33-2.25.53-5.2-1-7.07-.49-.59-1.56-.26-1.72.45-.38,1.72.08,3.59-.07,5.35-.15,1.72-.62,3.46-1.37,5.02-1.55,3.24-4.22,5.91-7.66,7.07-7.15,2.41-15.16-1.21-16.97-8.76-1.03-4.29.24-8.38,2.9-11.79.58-.75-.19-2.15-1.13-1.47h0Z"/>
        <path class="cls-6" d="M202.02,244.09c.72,2.09,1.73,4.18,3.63,5.44,2.12,1.41,5,1.29,7.31.45,4.33-1.58,8.7-6.61,6.7-11.44-.26-.62-1.15-.72-1.37,0-.54,1.74-1.09,3.64-2.05,5.2-.94,1.53-2.39,2.71-4.06,3.37-1.66.66-3.66,1-5.24,0-1.47-.92-2.55-2.45-3.63-3.77-.48-.59-1.51.04-1.27.74h0Z"/>
        <path class="cls-6" d="M212.34,248.1c-.6.82-.65,2.18-.61,3.16.06,1.28.3,2.55.68,3.77.67,2.17,1.86,4.14,3.55,5.68,3.21,2.94,7.8,4.14,12.06,3.39,1.75-.31,5.53-1.3,5.49-3.57,0-.39-.28-.8-.68-.89-1.22-.26-2.1.58-3.14,1.05-.9.41-1.89.67-2.87.8-2.15.28-4.41,0-6.4-.89-2.1-.93-4-2.53-5.05-4.59-.58-1.14-.91-2.43-1.13-3.69-.11-.62-.18-1.25-.21-1.88-.04-.63.06-1.28,0-1.9-.11-.91-1.12-1.2-1.67-.45h0Z"/>
        <path class="cls-6" d="M259.77,285.76c1.44,5.14,6.09,9.3,10.58,11.87,4.79,2.74,10.39,4.07,15.9,3.67,11.63-.84,22.18-8.55,25.85-19.71,1.03-3.12,1.5-6.43,1.45-9.71-.05-3.15-.45-6.74-1.89-9.58-.71-1.4-2.74-.39-2.43,1.03.57,2.62,1.37,5.06,1.5,7.76.13,2.64-.13,5.29-.78,7.85-1.31,5.12-4.13,9.68-8.15,13.12-7.77,6.64-19.14,8.49-28.43,4.08-2.46-1.17-4.74-2.68-6.73-4.54-2.07-1.94-3.61-4.23-5.24-6.53-.56-.79-1.92-.34-1.63.69h0Z"/>
        <path class="cls-6" d="M310.59,280.19c2.97,2.87,7.62,3.72,11.61,3.28,4.17-.46,8-2.44,10.91-5.44,6.29-6.5,7.96-17.07,3.3-24.96-2.4-4.07-6.32-7.39-10.91-8.68-1.84-.52-2.59,2.27-.79,2.86,3.44,1.11,6.57,3.1,8.7,6.07,2.37,3.3,3.34,7.4,3.04,11.42-.54,7.3-5.6,14.34-12.91,16.05-4.22.99-8.12.03-11.8-2.11-.93-.54-1.95.74-1.16,1.5h0Z"/>
        <path class="cls-6" d="M323.45,248.34c1.25-1.61,1.59-3.96,1.66-5.95.07-2.01-.18-4.09-.82-6-1.13-3.36-3.41-6.32-6.47-8.14-3.15-1.88-6.89-2.28-10.44-1.51-1.74.38-3.43,1.06-4.98,1.93-1.35.77-3.83,2.05-3.85,3.8,0,.68.56,1.17,1.21,1.21.93.06,1.43-.54,2.11-1.07.55-.43,1.13-.82,1.73-1.18,1.27-.75,2.62-1.32,4.06-1.69,2.86-.73,5.92-.5,8.5,1,2.44,1.42,4.33,3.77,5.24,6.44.57,1.68.81,3.43.75,5.21-.05,1.72-.59,3.52-.47,5.22.06.78,1.16,1.51,1.77.73h0Z"/>
        <path class="cls-6" d="M297.7,219.65c.85-.02,1.69-.16,2.55-.13.76.03,1.51.11,2.25.34,1.33.41,2.44,1.32,3.08,2.52.26.48.43,1.13.45,1.65.01.33,0,.67-.04,1-.01.09,0,.09,0,0,0,.09-.03.18-.06.26-.04.18-.09.35-.14.53-.04.13-.08.26-.12.39-.03.08-.06.17-.1.25.05-.11.04-.1-.03.05-.15.27-.29.53-.47.78-.05.07-.1.14-.15.2.08-.1.07-.08-.03.03-.12.15-.23.3-.34.46-.16.24-.29.45-.49.65-.34.35-.24,1.11.32,1.19.68.1,1.4.1,2.01-.26.63-.36,1.12-1.02,1.43-1.66.64-1.33.84-2.54.75-3.95-.19-3.2-2.71-5.78-5.77-6.5-1.74-.41-3.99-.36-5.5.72-.6.43-.44,1.49.4,1.47h0Z"/>
        <path class="cls-6" d="M278.33,232.16c-3.19-4.41-2.56-10.81,1.53-14.43,3.8-3.37,10.13-3.79,13.77.01.94.98,1.64,2.18,2,3.49.36,1.32.11,2.73.56,4.02.24.7,1.07.96,1.63.43,2.31-2.17.57-6.59-.98-8.71-1.97-2.72-4.89-4.43-8.24-4.76-6.55-.64-12.95,4.06-14.08,10.55-.63,3.63.17,7.27,2.4,10.22.62.82,2.03.04,1.41-.82h0Z"/>
        <path class="cls-6" d="M263.36,237.67c-.18-.95-.44-1.87-.47-2.84-.03-.92.08-1.82.32-2.71.43-1.61,1.35-3.04,2.58-4.16,1.25-1.14,2.93-2.01,4.64-2.11.86-.05,1.74.06,2.51.48.72.39,1.23,1.2,2.07,1.35.42.07.8-.11.94-.53.37-1.2-.77-2.15-1.68-2.69-.95-.56-2.04-.85-3.13-.9-2.4-.11-4.74.99-6.55,2.49-1.63,1.36-2.86,3.23-3.43,5.28-.6,2.18-.5,5.03.83,6.94.49.71,1.54.27,1.38-.58h0Z"/>
        <path class="cls-6" d="M208.59,193.7c-.77,1.55-.61,3.43-.08,5.04.27.82.65,1.61,1.11,2.34.44.68,1,1.42,1.88,1.49.1,0,.17-.1.14-.19-.19-.75-.78-1.25-1.22-1.84-.48-.63-.84-1.34-1.09-2.09-.5-1.52-.47-3.07-.39-4.65,0-.18-.27-.26-.35-.09h0Z"/>
        <path class="cls-6" d="M215.18,190.96c2.32.05,4.64,1.03,6.28,2.68.8.8,1.42,1.8,1.75,2.88.43,1.37.5,2.83.99,4.18.08.21.4.25.46,0,.68-2.84-.35-5.83-2.49-7.78-1.89-1.72-4.45-2.55-7-2.37-.26.02-.26.4,0,.41h0Z"/>
        <path class="cls-6" d="M201.88,217.49c-.97-2.58.02-5.68,1.1-8.07.51-1.14,1.22-1.94,2.37-2.45.54-.24,1.12-.4,1.69-.56.59-.17,1.09-.43,1.64-.7.27-.14.1-.49-.14-.52-.73-.09-1.37-.12-2.1.04-.64.14-1.26.33-1.86.59-1.34.58-2.51,1.47-3.15,2.82-.68,1.43-1.12,3.07-1.14,4.65-.02,1.62.25,3.02.96,4.47.17.35.77.1.64-.27h0Z"/>
        <path class="cls-6" d="M203.91,214.37c.24-.74.26-1.53.59-2.24.17-.37.39-.69.62-1.01.1-.14.2-.29.31-.42.15-.18.32-.35.34-.6-.03.07-.06.15-.09.22.17-.18.35-.35.51-.53.12-.13,0-.32-.16-.28-.25.05-.44.18-.67.28.14-.06-.13.03-.14.04-.06.03-.12.06-.17.1-.11.07-.2.15-.3.23-.41.35-.71.78-.94,1.26-.23.46-.4.96-.49,1.47-.04.26-.07.53-.04.79.03.29.09.5.24.75.1.17.34.12.39-.05h0Z"/>
        <path class="cls-6" d="M223.49,258.19c-2.16-1.18-4-3.02-5.14-5.2-.62-1.19-1.01-2.5-1.21-3.82-.21-1.36-.18-2.75-.51-4.09-.04-.17-.27-.18-.36-.05-.89,1.29-.9,2.85-.68,4.34.23,1.52.77,3,1.55,4.33,1.39,2.39,3.51,4.16,6.05,5.2.41.17.68-.5.3-.71h0Z"/>
        <path class="cls-6" d="M221.92,251.52c-1.05-1.1-1.9-2.42-2.42-3.85-.55-1.5-.47-3.1-.89-4.61-.05-.19-.29-.2-.39-.05-1.01,1.49-.39,3.51.31,4.99.71,1.51,1.83,2.76,3.05,3.88.24.22.58-.12.35-.35h0Z"/>
        <path class="cls-6" d="M193.77,260.68c.8-.11,1.57-.02,2.34-.26.73-.23,1.4-.53,2.04-.96,1.4-.93,2.44-2.08,3.25-3.55.86-1.55,1.59-3.15,2.07-4.86.25-.88.43-1.78.57-2.69.13-.86.34-1.66-.07-2.47-.09-.19-.34-.15-.45,0-.49.69-.44,1.47-.56,2.28-.12.8-.28,1.59-.48,2.37-.41,1.57-1.01,3.22-2.03,4.5-.83,1.04-1.91,2.07-2.98,2.86-.55.41-1.14.78-1.73,1.13-.63.37-1.33.86-2.05,1-.35.07-.28.69.09.64h0Z"/>
        <path class="cls-6" d="M184.96,257.75c-1.15-2-1.65-4.44-1.3-6.73.17-1.1.49-2.21.94-3.23.23-.52.49-1.01.75-1.51.24-.46.31-.9.37-1.41.02-.18-.2-.34-.37-.28-1.19.43-1.76,1.45-2.23,2.58-.51,1.2-.78,2.47-.81,3.78-.05,2.55.73,4.98,2.19,7.07.19.28.63.03.46-.27h0Z"/>
        <path class="cls-6" d="M188.05,251.83c-.5-1.01-.6-2.3-.43-3.4.09-.55.25-1.11.46-1.63.1-.25.25-.5.31-.76.06-.27.18-.56.18-.84,0-.16-.16-.3-.33-.25-.61.2-1,.89-1.21,1.45-.23.63-.33,1.28-.35,1.95-.03,1.34.35,2.54,1,3.69.14.24.48.03.36-.21h0Z"/>
        <path class="cls-6" d="M175.79,204.81c1.76-.36,3.48-.82,5.27-1,1.72-.18,3.47-.17,5.19.09,3.08.47,5.85,1.66,8.29,3.59.55.43,2.52,2.66,3.13,1.38.3-.63-.23-1.18-.64-1.6-.57-.57-1.26-1.06-1.94-1.48-2.5-1.52-5.49-2.39-8.39-2.66-1.91-.18-3.85-.1-5.75.16-1.78.24-3.59.62-5.23,1.35-.11.05-.03.2.08.18h0Z"/>
        <path class="cls-6" d="M187.25,207.88c2.05.29,4.08,1.23,5.62,2.63.75.68,1.43,1.43,2.05,2.23.31.41.59.84.89,1.26.32.43.69.7,1.12,1.02.19.14.43-.05.43-.25.03-.61-.03-1.11-.32-1.65-.26-.47-.62-.91-.96-1.32-.73-.86-1.64-1.6-2.61-2.18-1.92-1.14-3.95-1.85-6.18-2.09-.21-.02-.26.34-.05.37h0Z"/>
        <path class="cls-6" d="M167.9,229.61c1.08,1.57,2.39,2.97,3.67,4.37,1.31,1.44,3.17,2.39,4.96,3.11,2,.81,4.17,1.08,6.31,1.18,1.03.05,2.1.05,3.13-.1,1.05-.16,2.07-.6,3.02-1.06.24-.12.12-.51-.14-.5-1.04.05-2.06-.03-3.09.01-.98.04-1.94.09-2.92.02-1.96-.13-3.87-.73-5.69-1.42-1.65-.63-3.15-1.56-4.72-2.36-1.66-.84-2.95-2.12-4.11-3.58-.18-.23-.58.07-.41.32h0Z"/>
        <path class="cls-6" d="M173.64,230.6c.57.82,1.44,1.34,2.34,1.74.99.45,2.02.47,3.07.67.99.19,1.97.39,2.98.48.54.05,1.06.02,1.6-.04.5-.06,1.07-.17,1.54-.35.13-.05.17-.27,0-.31-1.92-.39-3.92-.09-5.84-.46-.95-.19-1.79-.72-2.7-1.06-.9-.34-1.78-.8-2.72-1.02-.19-.04-.4.17-.27.36h0Z"/>
        <path class="cls-6" d="M215.44,234.92c-.33,1.38-.76,2.76-1.45,4-.34.61-.73,1.19-1.12,1.75-.2.29-.43.58-.58.9-.15.32-.22.71-.27,1.06-.03.17.1.33.28.28.79-.21,1.31-.65,1.76-1.33.44-.67.76-1.39,1.05-2.13.55-1.43.92-2.92.92-4.46,0-.33-.5-.4-.58-.08h0Z"/>
        <path class="cls-6" d="M219.18,230.42c.71,0,1.4-.28,2.04-.57.67-.3,1.31-.66,1.9-1.09.59-.43,1.15-.88,1.61-1.45.52-.63,1.14-1.47,1.21-2.31.03-.3-.23-.59-.5-.66-.3-.08-.61.06-.78.32-.19.29-.27.67-.42.99-.15.33-.33.64-.53.94-.36.53-.79,1.03-1.28,1.44-.49.41-1.04.76-1.61,1.06-.58.31-1.22.55-1.76.94-.16.12-.12.39.11.39h0Z"/>
        <path class="cls-6" d="M222.74,231.81c.06-.01.14.02.21.02.07,0,.19-.02.23-.02.13-.01.32-.06.47-.13.32-.13.63-.27.93-.43.27-.14.54-.29.8-.44.16-.09.31-.2.44-.32.11-.11.22-.25.25-.41.04-.15.02-.32-.02-.47-.07-.25-.29-.43-.53-.46-.26-.04-.5.09-.64.31.01-.02.1-.12.03-.05-.08.08-.12.16-.16.26-.04.1-.05.11-.02.04.02-.05.02-.06,0-.02-.02.02-.03.05-.05.07-.04.07.1-.11,0-.01-.02.02-.04.04-.06.06-.04.05-.09.09-.13.14-.05.05-.1.1-.16.15-.02.02-.05.04-.07.06-.06.06.07-.05,0,0-.12.09-.23.17-.36.26-.23.16-.46.29-.7.43-.11.07-.27.17-.34.23-.06.05-.13.09-.19.15-.05.05-.09.11-.14.15-.25.15-.07.48.19.44h0Z"/>
        <path class="cls-6" d="M277.4,293.14c1.04.59,2.18,1.11,3.35,1.38,1.15.26,2.38.3,3.56.28,2.61-.05,5.29-.38,7.77-1.22,4.13-1.39,7.62-4.22,9.91-7.92,1.21-1.95,2.44-4.29,2.49-6.63,0-.21-.31-.31-.41-.11-.89,1.77-1.54,3.6-2.67,5.24-1.12,1.62-2.54,3.08-4.08,4.3-1.47,1.17-3.17,2.18-4.91,2.9-2.21.91-4.6,1.29-6.95,1.65-1.27.19-2.54.36-3.83.38-1.39.02-2.74,0-4.02-.61-.25-.12-.46.23-.22.37h0Z"/>
        <path class="cls-6" d="M329.67,270.98c-.64,1.28-1.82,2.25-2.98,3.05-1.24.85-2.59,1.44-4.06,1.77-1.62.36-3.27.42-4.92.27-.77-.07-1.53-.17-2.29-.34-.84-.19-1.61-.54-2.42-.81-1.07-.35-1.65,1.2-.75,1.77,1.53.96,3.7,1.19,5.46,1.27,1.86.07,3.79-.08,5.57-.63,1.57-.49,3.13-1.25,4.35-2.38,1.15-1.06,1.82-2.38,2.41-3.8.09-.21-.27-.36-.37-.16h0Z"/>
        <path class="cls-6" d="M322.88,271.48c-3.09,1.56-6.56.22-9.56-.85-.91-.33-1.44,1.06-.65,1.53.77.46,1.76.62,2.63.79.95.18,1.92.31,2.89.29,1.78-.03,3.41-.41,4.96-1.29.31-.17.04-.63-.28-.47h0Z"/>
        <path class="cls-6" d="M318.56,267.9c-.99.21-2.12,0-3.07-.26-.47-.13-.92-.31-1.36-.51-.51-.24-.95-.58-1.49-.73-.29-.08-.62.05-.77.31-.16.28-.08.58.11.82.39.49,1.02.72,1.59.94.56.22,1.17.32,1.76.39.56.07,1.13.05,1.69-.02.59-.07,1.13-.25,1.7-.4.34-.09.2-.6-.15-.53h0Z"/>
        <path class="cls-6" d="M325.52,252.63c1.82,1.44,3.49,3.14,4.5,5.25.49,1.03.84,2.13,1.13,3.23.29,1.09.46,2.26,1.07,3.23.13.21.51.27.63,0,.97-2.27-.57-5.09-1.82-6.94-1.38-2.05-3.02-3.94-5.19-5.17-.24-.14-.55.22-.31.4h0Z"/>
        <path class="cls-6" d="M301.84,223.59c.36,1.02.61,2.09.66,3.18.02.5.02,1.01-.04,1.51-.03.23-.08.46-.13.68-.06.27-.06.53-.1.79-.04.29-.1.98.29,1.07.18.04.39-.09.53-.19.23-.15.38-.41.51-.65.13-.25.24-.46.28-.74.05-.29.07-.58.08-.87.01-.53-.05-1.06-.16-1.58-.25-1.21-.82-2.33-1.31-3.46-.15-.34-.73-.1-.61.26h0Z"/>
        <path class="cls-6" d="M280.36,223.78c.31-1.02,1.28-2.02,2.18-2.53,1.07-.61,2.29-.88,3.49-1.09,1.19-.2,2.17.18,3.07.96.39.35.77.72,1.15,1.08.36.34.73.78,1.19.97.16.07.36-.1.35-.26-.05-.57-.46-1.16-.77-1.63-.37-.55-.83-1.04-1.35-1.45-1.13-.9-2.51-1.32-3.95-1.3-1.52.03-2.99.64-4.11,1.65-.48.43-.89.93-1.23,1.48-.37.61-.49,1.27-.63,1.96-.08.4.49.56.61.17h0Z"/>
        <path class="cls-6" d="M273.77,268.51c.61,1.82,2.58,2.73,4.33,3.16,1.82.44,3.75.43,5.55-.12,1.73-.53,3.33-1.5,4.6-2.78,1.38-1.4,2.63-3.35,2.46-5.4-.07-.86-1.46-1.2-1.62-.22-.52,3.12-3.17,5.69-6.16,6.53-1.47.41-3.03.42-4.51.05-1.49-.38-2.84-1.21-4.33-1.54-.18-.04-.39.12-.32.32h0Z"/>
        <path class="cls-6" d="M280.52,274.64c.37.13.71.32,1.1.43.4.11.79.21,1.21.23.81.05,1.67-.05,2.44-.32.76-.27,1.48-.72,2.12-1.21.58-.45,1.28-1.14,1.42-1.89.04-.2-.12-.41-.34-.34-.3.09-.61.27-.88.44-.29.19-.61.35-.91.52-.63.34-1.26.54-1.94.76-.67.21-1.36.4-2.05.51-.67.1-1.39.3-2.07.21-.4-.05-.42.54-.09.66h0Z"/>
        <path class="cls-6" d="M303.13,261.45c.51.72,1.04,1.27,1.86,1.63.85.37,1.83.43,2.75.39,1.98-.1,4.06-.72,5.63-1.97.7-.55,1.53-1.4,1.77-2.29.11-.39.02-.99-.29-1.28-.33-.3-.73-.18-1.07.05-.42.29-.56.73-.84,1.13-.25.35-.57.67-.91.93-.8.61-1.76.96-2.73,1.2-.92.23-1.86.33-2.8.25-.9-.08-1.99-.21-2.79-.62-.35-.18-.85.21-.58.58h0Z"/>
        <path class="cls-6" d="M305.5,259.38c.82.11,1.6.15,2.41-.03.21-.05.4-.14.59-.23.18-.08.36-.15.53-.26.17-.11.3-.24.46-.37.14-.11.29-.22.38-.37.05-.08-.01-.2-.11-.19-.18.01-.35.08-.52.14-.17.05-.33.06-.5.1-.19.04-.38.11-.57.15-.17.04-.34.06-.51.11-.7.2-1.43.38-2.16.37-.38,0-.36.53,0,.58h0Z"/>
        <path class="cls-6" d="M317.65,238.67c.46,1.48.54,3.12.45,4.66-.04.76-.2,1.51-.38,2.25-.1.4-.31.9-.2,1.32.12.42.52.68.94.61.93-.14.98-1.55,1.07-2.28.09-.79.11-1.6.03-2.4-.08-.78-.16-1.55-.4-2.3-.24-.74-.55-1.44-.88-2.14-.17-.35-.74-.1-.63.26h0Z"/>
        <path class="cls-6" d="M315.16,242.42c.02.55,0,1.04-.04,1.57-.02.28-.1.44-.1.77,0,.12-.02.25-.02.37,0,.28.16.48.42.58-.12-.15-.23-.31-.35-.46.02.2.05.38.16.56.07.12.24.17.37.1.16-.1.28-.24.37-.41-.14.08-.27.16-.41.24.46,0,.58-.45.65-.81.06-.3.03-.63.01-.93-.04-.57-.16-1.13-.36-1.66-.06-.17-.21-.28-.39-.25-.17.03-.32.17-.31.35h0Z"/>
        <path class="cls-6" d="M266.75,233.2c.79-1.59,2.38-2.82,4.13-3.18.87-.18,1.77-.11,2.64.07.49.1.92.27,1.34.53.42.26.85.44,1.28.67.19.1.49-.07.4-.3-.23-.55-.44-.97-.94-1.34-.45-.33-.95-.61-1.46-.85-1.1-.52-2.37-.64-3.55-.37-2.23.51-3.94,2.31-4.4,4.53-.07.33.4.58.57.24h0Z"/>
      </g>
      <g>
        <ellipse class="cls-9" cx="246.09" cy="409.22" rx="78.2" ry="31.54"/>
        <g>
          <path class="cls-3" d="M262.98,240.31s0-.01,0-.02c0-.02-.01-.04-.02-.07-.18-.77-.56-1.54-.93-2.09-1.06-1.57-2.31-2.93-3.2-4.62-1.74-3.27-2.45-7.04-2.11-10.72.08-.9-.78-1.43-1.53-1.53-3.06-.4-6.1-.91-9.15-1.33-2.67-.36-5.42-.77-7.92.49-.15.07-.26.17-.36.28-.71-.11-1.29.67-1.18,1.38.18,1.23.79,2.3.85,3.57.06,1.25-.24,2.54-.7,3.7-.92,2.31-2.67,4.18-4.44,5.86-1.51,1.44-3.98,3.19-3.26,5.64.62,2.11,3.66,3.03,5.51,3.6,5.01,1.55,10.44,1.12,15.6.73,2.99-.22,6.01-.33,9-.64,1.85-.19,3.34-1.04,3.78-2.58.21-.49.21-1.06.08-1.64Z"/>
          <path class="cls-3" d="M267.54,196.48c-3.62.52-9.87.61-9.17-4.73.11-.86.46-1.72,1.05-2.36.57-.62,1.38-.95,1.92-1.6.81-.98.79-2.07.57-3.26-.29-1.52-.68-3.02-1.03-4.53-.22-.97-1.29-1.45-2.2-1.25-3.6.81-7.26,1.27-10.95,1.36-1.78.04-3.56,0-5.34-.12-.9-.06-1.76-.17-2.62-.22-.17-.09-.37-.15-.55-.21-.21-.07-.41-.16-.61-.24-.34-.13-.68-.25-1.01-.39-.3-.14-.61-.29-.93-.41-.11-.06-.23-.12-.34-.18-.57-.32-1.29-.18-1.69.34-.31.4-.37,1.08-.05,1.52-.23,1-.53,2-1.09,2.85-.8,1.23-1.97,2.16-3.1,3.08-2.06,1.68-3.84,3.43-4.83,5.95-1.88,4.8-.36,10.23,2.98,13.97,3.6,4.03,8.91,5.99,14.15,6.66,3.17.4,6.38.4,9.56.23,2.96-.16,5.89-.58,8.59-1.86,5.03-2.39,8.29-7.44,8.95-12.88.15-1.29-1.26-1.87-2.26-1.72Z"/>
          <path class="cls-3" d="M260.97,101.93c-4.19,1.25-8.47,1.92-12.85,1.91-4.11-.01-7.99-.91-12-1.53-.25-.32-.6-.45-1.02-.5-.47-.06-.94.3-1.17.67-1.16,1.83,1.21,3.62,2.44,4.67,1.57,1.33,3.3,2.47,4.83,3.85,1.5,1.35,2.68,2.88,3.14,4.87.56,2.49.04,5.16-.27,7.65-.26,2.08-.69,4.63.39,6.57.95,1.72,2.95,2.48,4.77,1.65,2.2-1.01,2.87-3.33,2.82-5.59-.03-1.38-.16-2.74-.1-4.12.04-1.04-.05-2.06-.09-3.08.21-.89.45-1.77.72-2.63.55-1.74,1.26-3.39,1.74-5.13,2.19-2.56,4.97-4.96,7.7-6.81,1.2-.82.5-2.9-1.03-2.45Z"/>
          <path class="cls-2" d="M258.41,82.63c-1.15-3.67-.94-7.42-.29-11.15.17-.99-.57-1.79-1.58-1.58-2.64.55-5.52.67-8.21.7-2.73.03-5.37-.22-8.07-.57-.74-.1-1.13.49-1.14,1.1-.14.17-.23.4-.21.67.08,1.27.41,2.51.55,3.78.13,1.28.15,2.58.04,3.86-.22,2.59-1.07,5.03-2.12,7.39-.92,2.07-2.18,4.49-.77,6.64.63.95,1.6,1.68,2.69,2.04.49.16.99.21,1.5.17.66.38,1.46.67,2.44.82,3.37.52,6.84.28,10.23.05,2.97-.2,6.91-.59,7.83-4.02.94-3.48-1.86-6.72-2.86-9.89Z"/>
          <path class="cls-2" d="M259.35,160.37c-.51-1.58-.96-3.17-1.34-4.78-.82-3.46-.99-6.8-1.17-10.33-.19-3.65-4.94-2.37-7.35-2.22-1.75.1-3.5.18-5.24.31-.67.05-1.23.18-1.66.42-.24-1.72-2.91-1.8-2.82.04.17,3.33-.17,6.62-1.09,9.83-.85,2.96-2.65,5.67-3.2,8.71-.54,3.03.38,5.87,2.92,7.68,2.25,1.6,5.18,2.07,7.88,2.25,4.72.31,14.28-1.08,14.13-7.51-.04-1.52-.61-2.96-1.07-4.39Z"/>
          <path class="cls-2" d="M316.71,390.65c-3.85-14.5-16.56-24.32-27.62-33.39-3.4-2.79-6.86-5.52-10.34-8.22-1.78-1.38-3.59-2.72-5.41-4.05-1.77-1.3-3.5-2.56-5.55-3.35-3.56-3.37-7.04-6.8-9.78-10.95-5.25-7.98-6.13-17.3-5.99-26.64.04-2.61.17-5.23.55-7.81.27-1.84.72-3.64,1.11-5.46.09-.07.17-.14.26-.21,0,0,0,0,0,0,.05-.04.09-.09.14-.13,1.95-1.54,3.64-3.33,4.98-5.44,1.37-2.18,2.69-4.73,2.06-7.35-.13-.55-.76-.89-1.3-.8.08-1.3.08-2.6.02-3.88-.39-8.08-2.58-16.43,1.07-24.13.67-1.41-.42-2.68-1.9-2.47-4.69.69-9.21,1.35-13.97,1.04-2.31-.15-4.61-.42-6.88-.89-2.32-.47-4.59-1.25-6.93-1.6-.23-.03-.44,0-.64.07-.88-.43-2.1.66-1.47,1.63,3.89,5.99,3.93,12.68,3.1,19.55-.81,6.73-3.02,14.25.8,20.47,1.63,2.66,4.03,4.88,5.24,7.79,1.28,3.06,1.37,6.49,1.23,9.76-.32,6.96-.95,14.62-3.9,21.01-1.48,3.2-3.54,6.1-5.51,9.01-.28.42-.57.84-.85,1.26-.31.02-.63.15-.92.45-10.17,10.24-21.87,18.56-32.91,27.78-9.14,7.64-20.92,17.64-20.77,30.56-.32.09-.59.32-.66.73-.75,4.02-.3,8.22,1.9,11.77,1.16,1.87,2.78,3.38,4.33,4.9,1.37,1.35,2.74,2.7,4.12,4.04,4.1,4.89,10.78,7.82,16.57,9.81,8.07,2.76,16.66,4.22,25.1,5.25,18.1,2.22,36.64,1.5,54.48-2.31,4.6-.98,9.15-2.24,13.53-3.95,2.66-1.03,5.52-2.14,7.98-3.73.79-.34,1.59-.67,2.33-1.08,1.63-.89,3.26-1.82,4.75-2.94,2.49-1.88,4.51-4.34,5.93-7.11,3-5.87,3.39-12.68,1.72-19Z"/>
          <path class="cls-2" d="M322.34,427.07c-2.28-.77-4.78.9-6.58,2.14-2.24,1.54-4.3,3.31-6.57,4.81-2.14,1.42-4.38,2.7-6.68,3.84-4.72,2.34-9.75,4.04-14.9,5.11-2.96.62-5.95,1.01-8.97,1.18-1.41.08-2.82.13-4.23.12-1.27,0-2.58-.14-3.84.04-.61-.37-1.28-.63-1.98-.7-.29-.03-.55.09-.78.27-.09-.02-.18-.05-.27-.07-.07-.02-.14-.04-.22-.06l-.29-.04c.17.03.19.03.07,0-.16-.06-.33-.07-.5-.06-.37-.06-.79.08-.98.42-.17.33-.18.85.14,1.11.08.07.08.06-.01-.05.05.07.1.13.16.2.1.11.22.2.35.28.06.04.08.05.08.05,0,0,.01,0,.02.02.09.07.17.12.27.18.34.18.7.34,1.06.47.28.11.57.19.86.25.04,0,.07.01.11.02.04.02.08.05.11.07.02.01.16.12.19.14.14.12.28.24.41.38.13.13.25.27.37.41.02.03.12.17.14.19.06.09.12.18.17.28.05.09.11.19.16.29.01.02.05.12.08.18.02.06.05.14.06.16.04.13.08.26.11.4.03.11.04.23.07.34,0,0,0,.01,0,.02,0,.01,0,.02,0,.04.01.23.03.47.02.7,0,.08-.01.17-.02.25-.18.32-.38.63-.59.93-.06.08-.15.21-.04.06-.1.13-.22.26-.3.4,0,.02,0,.02,0,.02,0,0-.02.02-.04.04-.08.08-.15.17-.23.26-.15.17-.24.38-.29.6-.01.01-.03.02-.04.03-.43.41-.59,1.07-.43,1.63,0,.02,0,.03.01.05.22.79.92,1.23,1.7,1.29.87.07,1.55-.39,2.08-1.02,1.6.39,3.54.12,5.07,0,2.2-.18,4.4-.49,6.58-.88,4.59-.84,9.02-2.24,13.35-3.96,4.21-1.67,8.38-3.45,12.5-5.31,2.09-.95,4.2-1.88,6.28-2.86.79-.37,1.57-.76,2.35-1.15,1.29-.45,2.51-1.04,3.66-2,1.78-1.48,3.04-3.62,3.24-5.94.19-2.19-.81-4.78-3.05-5.54Z"/>
          <path class="cls-3" d="M336.98,420.52c-.16-.77-.72-1.34-1.21-1.92-.47-.55-.94-1.11-1.4-1.67-.58-.7-1.66-.39-2.1.27-1.23,1.85-2.61,3.55-4.16,5.14-.39.4-.79.79-1.2,1.17-.39.36-.86.69-1.18,1.12-.03.04-.05.08-.07.12-.74.16-1.39.88-1.11,1.72.19.56.6,1,.87,1.4.27.41.5.85.74,1.27.34.59,1.1.84,1.72.56.34-.15.57-.38.69-.67.39-.13.76-.4,1.12-.7.54-.45,1.09-.9,1.63-1.35,1.11-.93,2.21-1.87,3.28-2.84,1.03-.93,2.68-2.01,2.36-3.62Z"/>
          <path class="cls-5" d="M299.82,51.82c-.25-.03-.48-.01-.71.02-.56-.2-1.19-.24-1.91-.3-1.35-.1-2.69-.23-4.04-.36-2.93-.3-5.85-.68-8.76-1.15-2.86-.46-5.72-.95-8.56-1.5-1.33-.26-2.65-.55-3.97-.82-1.05-.22-2.13-.52-3.2-.49-2.12-.47-4.23-.93-6.43-1.19-3.11-.37-6.23-.69-9.35-.9-6.11-.42-12.22-.4-18.3.29-5.93.67-11.78,1.82-17.62,3.02-5.77,1.19-11.55,2.72-17.46,2.82-.21,0-.38.07-.53.16-.07-.06-.14-.12-.22-.18-1.11-.84-2.29.73-1.76,1.76,1.02,1.98,2.77,3.71,4.28,5.34,1.42,1.53,2.91,2.87,4.84,3.71,4.1,1.8,9.05,1.94,13.47,2.17,4.78.25,9.57.2,14.36.19-.19,2.04,1.26,3.91,3.48,4.17,3.61.41,7.29.62,10.92.8,1.74.09,3.47.14,5.21.12,1.62-.02,3.4.06,4.95-.49,1.4-.51,2.51-1.54,3.65-2.46.61-.49,1.14-1.01,1.65-1.55,1.34.37,2.96.22,4.25.2,1.98-.03,3.95-.15,5.92-.35,3.8-.39,7.56-1.07,11.28-1.94,3.11-.73,6.25-1.59,9.08-3.09,1.31-.7,2.6-1.59,3.61-2.69.99-1.08,2.16-2.47,2.74-3.8.32-.73-.07-1.39-.85-1.49Z"/>
          <path class="cls-5" d="M261.02,95.31c-.53,1.72-2.69,2.38-4.26,2.74-2.51.57-5.11.68-7.68.6-1.89-.06-3.78-.26-5.66-.5-.22-.11-.47-.2-.7-.29-.37-.14-.77-.24-1.16-.29,0,0,0,0-.02,0,.04,0,.08.01.11.02-.05-.01-.1-.02-.15-.03-.01,0-.02-.01-.03-.02-.21-.07-.43-.13-.64-.19-.02,0-.12-.03-.18-.05-.01-.01-.45-.17-.54-.2-.21-.07-.43-.13-.64-.19-.45-.15-.9-.3-1.35-.47-.34-.13-.59-.24-1.01-.43-.4-.18-.79-.37-1.16-.59-.16-.09-.31-.2-.47-.3.22.14-.14-.12-.21-.2-.08-.08-.15-.17-.23-.24,0,0,0,0,0,0,0,0,0,0,0,0-.15-.23-.32-.44-.5-.65-.35-.41-1.03-.49-1.49-.28-.52.23-.81.69-.84,1.25-.01.23.02.44.07.65-.16.36-.21.79-.13,1.16.45,2.19,1.98,3.15,3.78,3.69.43,1.02,1.32,1.65,2.42,1.88,1.34.28,2.74.37,4.09.51,1.44.15,2.88.25,4.32.33.77.04,1.54.08,2.31.02.77-.06,1.54-.19,2.31-.23.52-.03.78-.37.83-.74,4.82-.14,10.76-1.16,12.26-5.97.68-2.2-2.77-3.14-3.45-.95Z"/>
          <path class="cls-5" d="M255.52,128.53c-.81-1.36-3.05-.81-3.02.82,0,.65.31,1.47.01,2.07-.24.49-.73.79-1.19,1.04-1.32.73-3.08.56-4.53.37-1.18-.16-2.58-.37-3.49-1.2-.24-.22-.27-.26-.39-.52-.02-.05-.06-.14-.1-.26.69-.35,1.19-1.07,1.18-1.94-.03-1.66-1.95-2.85-3.36-1.83-1,.72-1.5,2.1-1.47,3.29.01.68.15,1.3.38,1.87-.27-.06-.54-.08-.84,0-.72.2-1.36.95-1.31,1.72.17,2.48-.2,5.63,2.22,7.11,2.03,1.24,4.63,1.71,6.97,1.81,2.31.1,4.89-.12,7.11-.8,2.58-.79,3.3-3.69,3.54-6.08.27-2.58-.38-5.24-1.7-7.46Z"/>
          <path class="cls-5" d="M261.9,172.91c.2-.52.3-1.06.27-1.59-.08-1.47-1.72-2.11-2.81-1.16-3.58,3.12-8.43,3.75-13,3.26-2.22-.24-4.5-.7-6.62-1.42-1.74-.59-3.57-1.56-4.24-3.4-.6-1.65-3.12-1.01-2.67.73.08.35.18.67.3.99.12.34.27.67.45,1,.08.15.18.25.29.34.03.04.07.08.1.13-.05.08-.08.17-.1.27-.19,1.31-.01,2.2.95,3.19.85.87,1.96,1.43,3.07,1.9,2.61,1.08,5.43,1.63,8.24,1.87,2.76.23,5.6-.05,8.3-.65,1.42-.32,2.82-.75,4.17-1.3,1.22-.49,3-1,3.55-2.3.25-.6.21-1.41-.28-1.86Z"/>
          <path class="cls-5" d="M320.47,194.36c-1.6-3.93-4.02-7.46-7.42-10.05-3.1-2.36-7.42-4.22-11.36-3.3-.21.05-.37.16-.51.3-3.65-.91-7.39-1.16-11.24-.66-4.74.61-9.64,1.88-14.1,3.81-.26-.4-.57-.78-.99-1.06-2.32-1.58-4.99.42-6.96,1.63-2.1,1.28-4.15,2.65-6.05,4.21-.9.74-2.13,1.61-2.62,2.7-.36.79-.24,1.57.18,2.18.02.13.02.25.05.38.62,2.36,3.42,2.79,5.45,2.47,2.44-.39,4.68-1.71,6.87-2.78,1.96-.96,4.22-1.9,5-4.14.25-.74.24-1.52.14-2.28,3.78-1.09,7.45-2.52,11.34-3.25,4.74-.9,9.51-.77,14.1.79,2.11.71,4.12,1.68,6.06,2.76,1.89,1.06,3.94,2.16,5.18,4,1.17,1.73,1.73,3.83,2.19,5.84.53,2.33.95,4.74,1.05,7.13.21,4.63-.33,9.35-1.48,13.84-1.14,4.47-3.32,8.12-6.56,11.4-3.09,3.13-6.67,5.8-10.18,8.45-3.62,2.73-7.27,5.4-11.05,7.91-8.59,5.71-17.62,10.71-27,15-1.66.76-.78,3.35.9,3.33,1.49-.02,2.68-.52,3.59-1.54.84-.4,1.66-.83,2.49-1.24.17.03.34.03.53-.02,7.99-2.33,15.48-6.78,22.52-11.14,6.56-4.06,12.98-8.71,18.55-14.08,5.27-5.08,9.74-11.1,12.05-18.11,2.57-7.81,2.37-16.83-.73-24.46Z"/>
          <path class="cls-5" d="M263.93,211.25c-5.8,2.69-11.71,3.12-18,2.58-2.88-.25-5.74-.54-8.57-1.13-1.46-.31-2.91-.67-4.33-1.14-1.2-.4-2.34-.91-3.58-1.1-.08-.13-.17-.26-.25-.4-.35-.64-1.22-1.74-2.1-1.12-2.2,1.56.43,4.89,1.84,6.05,2.31,1.9,5.36,2.71,8.22,3.37,3.07.7,6.21,1.12,9.36,1.24,1.54.06,3.08.04,4.61-.05.41-.02.86-.04,1.31-.06,2.3.59,5.09-.31,7.21-1.09,2.47-.92,6.17-2.37,6.65-5.34.23-1.43-1.03-2.44-2.37-1.82Z"/>
          <path class="cls-5" d="M266.92,447.52c-1.5-.59-3.36-.14-4.93-.05-1.64.1-3.28.14-4.92.18-.8.02-1.59.03-2.39.05-.6.01-1.23.03-1.79.2-4.02-.7-8.12-.39-12.2-.43-4.57-.05-9.14-.23-13.7-.55-4.46-.31-8.91-.7-13.35-1.23-2.27-.27-4.53-.6-6.79-.96-1.42-.22-2.9-.53-4.38-.7-.43-.19-.87-.38-1.35-.52-.98-.29-1.99-.48-2.99-.72-1.9-.46-3.79-.96-5.67-1.5-3.85-1.11-7.65-2.38-11.4-3.81-1.62-.62-3.25-1.27-4.85-1.95-5.01-3.66-10.21-7.03-14.82-11.22-4.65-4.23-8.99-8.98-12.51-14.19-.36-.53-.92-.64-1.4-.49-1.72-3.16-3.42-6.32-4.9-9.6-.04-.14-.07-.27-.1-.41-.68-2.49-1.46-4.96-2.11-7.46-1.25-4.77-1.69-9.6-1.68-14.53,0-4.93.14-9.93.97-14.79.79-4.64,2.15-9.17,3.76-13.58,1.23-3.36,2.62-6.65,3.97-9.96.48-.84.94-1.7,1.39-2.56.51.25,1.22.12,1.48-.6.51-1.43,1.36-2.69,2.04-4.04.73-1.44,1.52-2.85,2.36-4.23,1.54-2.52,3.34-4.88,5.27-7.11,1.43-1.65,2.94-3.23,4.49-4.78.24.02.5-.06.74-.26,7.38-6.29,15.09-12.21,23.3-17.38,8.21-5.17,16.82-9.66,25.61-13.72,4.28-1.98,8.9-3.59,12.98-6.01.74.31,1.73.08,2.09-.92.22-.61.39-1.23.57-1.85.21-.74-.12-1.39-.65-1.75-.41-.69-1.49-.75-1.96-.02-6.21,3.33-12.69,5.96-19.19,8.66-6.35,2.63-12.55,5.55-18.49,9.03-6.05,3.54-11.73,7.63-17.08,12.15-5,4.23-9.93,8.68-14.29,13.59-1.34,1.51-2.62,3.09-3.81,4.73-.45-.07-.91.06-1.27.52-.09.11-.17.22-.25.33,0,0,0,0,0,0,0,.01-.01.02-.02.03-6.51,8.39-11.93,17.61-15.38,27.69-1.82,5.31-3.03,10.81-3.64,16.39-.41,3.79-.76,8.07-.23,12.06,0,.03-.01.05,0,.08.01.12.03.24.05.36h0s0,.01,0,.02c.76,6.19,2.25,12.26,4.48,18.06,1.31,4.24,2.92,8.37,5.17,12.27,2.4,4.16,5.37,7.99,8.54,11.59,3.21,3.65,6.55,7.37,10.75,9.87.11.06.22.1.33.12.02.02.05.05.08.07,1.42,1.31,3.02,2.47,4.67,3.47,1.24.75,2.54,1.42,3.85,2.06,2.44,3.32,7.31,4.77,11.03,5.99,4.81,1.58,9.67,3.05,14.53,4.45,4.93,1.41,9.9,2.75,14.94,3.72,2.44.47,4.9.86,7.37,1.19,1.36.18,2.73.38,4.11.43,1.41.06,2.72-.25,4.12-.31.12,0,.23-.04.34-.08,1.28.06,2.55.09,3.8.15,3.06.15,6.13.27,9.19.37,3.06.11,6.13.2,9.19.27,1.58.03,3.16.08,4.75.03,1.54-.04,2.9-.46,4.4-.71.17-.03.3-.12.41-.23.22,0,.43.01.65.02,2.31.05,4.6-.06,6.9-.1.57-.01,1.19-.31,1.46-.84.8-1.59.04-3.38-1.6-4.03Z"/>
          <path class="cls-8" d="M300.12,52.61c.36-.61.19-1.56-.63-1.69-3.09-.5-5.98.85-8.78,2.02-3.08,1.28-6.08,2.41-9.36,3.07-6.73,1.37-13.62,1.14-20.45,1.09-7.42-.05-14.85-.13-22.27-.2-7.29-.07-14.6-.01-21.88-.5-3.74-.25-7.33-.92-10.72-2.57-2.77-1.35-5.86-3.67-9.08-3.33-1.04.11-1.32,1.52-.25,1.87.21.07.42.13.62.2-.21.99.43,1.65,1.16,2.43.86.92,1.73,1.83,2.61,2.73,1.64,1.69,3.51,3.3,5.66,4.29,2.2,1.01,4.56,1.48,6.92,1.89,2.66.46,5.22.93,7.88.3.35-.08.55-.28.66-.52.44.02.87.04,1.28.06,2.54.16,5.09.26,7.64.34,5.44.16,10.89.16,16.33.02,4.13-.1,8.25-.28,12.38-.48,1.1.19,2.19.44,3.3.56,1.95.22,3.93.26,5.89.25,3.8-.02,7.59-.34,11.35-.92,3.61-.56,7.36-1.27,10.77-2.61,3.56-1.4,6.17-4.19,9.12-6.51.66-.52.41-1.36-.15-1.8Z"/>
          <path class="cls-8" d="M259.57,65.23c-1.85-.53-4.08-.08-5.99,0-2.01.07-4.03.11-6.04.12-2.01.01-4.03,0-6.04-.03-1.94-.04-4.08-.31-5.98.12.01.02.03.03.04.05-1.31.39-1.66,2.37-.04,2.88,1.84.58,4.06.42,5.98.46,2.01.04,4.03.05,6.04.04,2.01-.01,4.03-.05,6.04-.11,1.87-.05,4.24.22,5.99-.49,1.37-.55,1.61-2.57,0-3.03Z"/>
          <path class="cls-8" d="M260.88,87.06c-.4-.51-1.3-.2-1.44.38-.13.57-.21,1.13-.18,1.71.02.5.23,1.23.09,1.73-.23.84-2.09.73-2.79.84-2.78.43-5.57.66-8.38.66-2.61,0-5.34-.05-7.91-.53-1.04-.19-2.02-.47-2.13-1.67-.13-1.37.03-2.94.22-4.3.06-.4-.11-.72-.35-.94.06-.07.12-.14.17-.25,1.86-4.21,6.08-6.2,10.53-6.41,4.39-.2,8.3,1.84,9.7,6.13.25.78,1.4.64,1.43-.19.08-2.08-1.06-4.13-2.58-5.54.59.06,1.23-.48,1-1.13-.3-.84-.87-1.45-1.56-1.93.93-.79,1.42-2.01,1.74-3.22.24-.89-.44-1.78-1.36-1.79-1.43,0-2.86-.23-4.29-.25-1.43-.02-2.86-.03-4.29-.04-2.86-.03-5.72-.01-8.58,0-1.24,0-1.78,1.27-1.31,2.29.48,1.05.66,2.13.67,3.24-.03.16-.06.32-.06.49,0,.06.03.1.03.15,0,.17,0,.34-.02.52-.07.81.53,1.28,1.2,1.39-2,1.29-3.52,3.12-3.88,5.6-.04.29.08.57.26.78-.17.11-.3.29-.36.57-.37,1.79-1.37,3.64-1.3,5.49.06,1.52,1,2.79,2.28,3.55.52.31,1.07.52,1.64.68.1.35.36.64.73.76,1.36.44,2.68.88,4.1,1.08.4.06.8.11,1.21.16.4.05.66,0,1.02,0,.74,0,1.46-.14,2.2-.18.15,0,.28-.06.4-.12,1.14-.03,2.28-.11,3.42-.18,1.24-.07,2.5-.14,3.74-.27,1.23-.14,2.64-.47,3.75-1.02.41-.2.49-.67.34-1.04,1-.6,1.81-1.5,1.98-2.7.22-1.58-.1-3.24-1.07-4.5Z"/>
          <path class="cls-8" d="M261.14,101.19c-3.96,1.46-8.19,1.76-12.36,2.01-4.23.25-8.5.2-12.59-1.02-1.5-.45-2.81,1.57-1.69,2.69.01.1.05.2.12.3,1.54,2.14,3.23,4.17,4.78,6.3,1.42,1.95,2.09,4.3,3.53,6.21.47.62,1.71.73,1.88-.25.29-1.62,1.35-3.01,3.03-3.36,1.19-.25,3.23.22,3.67,1.51,0,.41.02.83.08,1.28.17,1.17,1.77.71,1.89-.26.05-.37.03-.73-.02-1.08.19-2.57,2.14-4.76,3.99-6.42,2.01-1.79,4.08-3.35,5.28-5.84.48-1-.34-2.54-1.6-2.08Z"/>
          <path class="cls-8" d="M260.87,162.48c-.1-1.35-.25-2.68-.58-3.98-.32-3.11-1.66-6.19-3.86-8.31.37-.23.61-.66.48-1.17-.18-.73-.64-1.29-1.23-1.73.16-.2.3-.43.38-.69.17-.52.12-1.1-.1-1.6,0-.02.02-.03.02-.05.33-1.65.57-3.33.78-5,.2-1.64.42-3.32.36-4.98,0-.28-.14-.5-.32-.66.39-.93.53-1.89.49-2.9-.04-1.06-1.61-1.06-1.64,0-.04,1.12-.8,2.94-1.94,3.38-.53.21-.87.59-.89,1.18-.09,1.8-.02,3.6.03,5.39.02.8.05,1.61.12,2.41-.32.03-.63.06-.92.06-2.06,0-4.12-.21-6.16-.48-.98-.13-1.95-.28-2.93-.41-.34-.04-.72-.12-1.1-.16.03-1.45-.08-2.92-.13-4.33-.04-1.24.06-2.75-.46-3.89-.22-.48-.62-.81-.85-1.28-.24-.49-.32-1.02-.3-1.56.04-1.04-1.54-1.24-1.81-.24-.18.68-.21,1.37-.04,2.06-.05.08-.09.17-.11.27-.11.62-.14,1.23-.15,1.86,0,.58-.03,1.21.08,1.78.03.14.05.38.07.63.03.32.08.64.13.95.09.6.16,1.22.42,1.78.08.17.21.28.37.35.02,1.07.05,2.14.19,3.2-.11.58-.08,1.22-.1,1.77-.04.88-.02,1.81.4,2.61.25.49.65.87,1.12,1.12-1.92,1.21-3.49,2.88-4.32,5.01-.18.46.02.8.34.97-1.17,2.84-2.16,5.84-1.5,8.93.12.56.31,1.07.54,1.56-.32-.3-.79-.42-1.2-.14-1.36.93-1.43,2.86-1.49,4.36-.03.77.02,1.51.16,2.27.12.66.28,1.43.72,1.97.19.32.42.64.69.9.22.21.54.26.84.2.36.79.87,1.49,1.59,1.89.86.48,1.7-.46,1.3-1.3-.3-.62-.77-1.13-1.04-1.78-.26-.63-.38-1.32-.4-2-.02-.7.06-1.39.21-2.08.13-.6.36-1.21.49-1.81,1.04.94,2.29,1.67,3.64,2.15,3.14,1.13,6.74,1.11,10,.67,3.01-.41,6.69-1.24,8.55-3.89,1.09-1.56,1.2-3.44,1.06-5.28ZM256.34,166.29c-1.15.9-2.66,1.28-4.06,1.57-1.86.39-3.76.53-5.66.45-2.61-.11-5.99-.68-7.69-2.9-2.18-2.85-1.15-6.62-.35-9.76.05-.2.01-.4-.08-.56,2.82-3.44,7.19-5.37,11.65-5.2,2.49.1,4.58,1.41,5.9,3.5.68,1.08,1.1,2.26,1.45,3.46-.01.06-.03.12-.03.19.05,2.99,1.66,7.07-1.13,9.26Z"/>
          <path class="cls-8" d="M260.93,169.59c-.59-.58-1.57-.46-2.02.22-.17.07-.34.17-.5.31-.23.2-.41.43-.57.67-.24.16-.41.44-.37.78-.06.18-.11.37-.15.56-.19-.4-.39-.79-.66-1.16-.58-.82-1.79-.13-1.35.79.24.5.41,1.03.55,1.57.07.25.13.5.17.76.04.23.06.43.08.74.03.58-.02,1.03-.11,1.48-.03.13-.06.26-.09.39-.01.05-.03.1-.05.15,0,.01,0,.01-.02.04-.03.06-.06.11-.09.17.12-.15.08-.1-.11.15-.13.22-.14.45-.15.7-.02.57.47.94.99.99.53.05.88-.21,1.13-.58.35.34.99.42,1.34.04.22-.24.32-.44.49-.65.22-.27.37-.56.52-.88.21-.46.34-.81.38-1.32.03-.32.02-.62-.01-.93,0-.01,0-.03,0-.04.09-.38.15-.76.21-1.13,0-.04.02-.08.02-.12.26-.11.49-.3.64-.55.61-1,.61-2.26-.26-3.11Z"/>
          <path class="cls-8" d="M277.46,186.47c-1.19-.51-1.88-.13-2.95.44-.86.46-1.73.93-2.59,1.39-1.73.93-3.45,1.85-5.18,2.78-1.71.92-3.39,1.87-5.08,2.82-.62.34-1.01.52-1.62.04-.48-.38-.83-.95-1.11-1.52.07-.15.14-.3.2-.45.22-.55.34-1.02.43-1.6.11-.75-.63-1.58-1.4-1.08-.92.6-1.61,1.32-2.17,2.28-.52.88-.97,1.83-1.27,2.81-.58,1.9-.49,4.02.41,5.8,1.11,2.21,3.47,3.26,5.92,3.46-1.49.91-3.2,1.43-4.91,1.72-2.41.41-4.89.42-7.32.49-2.42.08-4.84.13-7.26.03-4.21-.18-9.02-.77-12.12-3.93-1.41-1.44-2.4-3.23-2.42-5.28-.02-2.28.72-4.91,1.77-6.92.09-.17.11-.33.1-.48.79-.58,1.58-1.17,2.36-1.77,1.16-.89,2.52-2.23,4.03-2.4,1.42-.16,3.05.27,4.48.38,1.66.13,3.33.19,5,.21,3.11.03,6.12-.31,9.19-.75,1.38-.2,3.69-.94,4.95-.16.47.3.83.78,1.18,1.21.39.48.89.85,1.27,1.32.66.81,2.17-.06,1.79-1.04-.51-1.32-.82-2.39-2.03-3.31-.37-.28-.75-.47-1.16-.62.21-.12.41-.29.55-.54.27-.48.15-.97-.18-1.37.49.61.16.08.04-.26-.14-.39-.33-.77-.64-1.05-.89-.8-1.97-.44-3-.19-2.22.54-4.48.86-6.76.98-2.3.13-4.61.1-6.91.02-1.54-.05-3.73.21-4.86-1.06-.48-.54-1.54-.71-2.14-.28-.98.69-1.71,2.01-.87,3.12.06.08.13.15.2.22-.24.04-.47.09-.7.16-1.59.47-2.77,1.72-3.98,2.78-1.46,1.29-2.86,2.61-4.24,4-.34.35-.28.85-.03,1.19-1.92,3.05-3.14,6.53-1.86,10.13.63,1.76,1.67,3.26,2.96,4.5,0,.02-.01.04-.02.06-.23.04-.46.17-.61.42-2.24,3.75.93,6.9,4.2,8.49,3.95,1.93,8.32,2.98,12.68,3.46,4.34.48,8.83.31,13.14-.34,2.15-.33,4.18-1.03,6.07-2.1,1.61-.92,4.02-2.15,4.49-4.09.2-.81-.38-1.54-1.2-1.58-1.64-.08-2.92,1.23-4.22,2.06-1.57.99-3.19,1.71-5.02,2.08-3.52.72-7.31.76-10.89.59-3.52-.17-7-.67-10.37-1.73-1.92-.6-5.94-1.85-7-4.13.66.64,1.56,1.04,2.38,1.43,1.93.93,3.95,1.71,6.01,2.31,4.11,1.2,8.49,1.72,12.76,1.38,4.26-.34,8.47-1.46,12.22-3.54,2.75-1.52,6.7-4.75,6.62-8.33.3-.27.57-.56.79-.91.2-.33.31-.69.33-1.08,0-.18-.01-.37-.07-.55-.02-.06-.22-.65-.11-.26-.07-.24-.24-.46-.44-.62-.02-.11-.05-.21-.11-.31-.31-.53-1.03-.73-1.56-.41-.7.41-1.69.6-2.42.73-.8.15-2.04.13-2.74,0-.69-.12-1.45-.33-2.12-.56.95.25,1.9.07,2.82-.28.18.19.43.31.69.32,1.22.03,2.25-.45,3.32-.99,1.02-.51,2.05-1.03,3.07-1.54.99-.5,1.99-.98,2.97-1.5.99-.52,2.24-.97,2.91-1.9.29-.4.16-.83-.12-1.13.95-.45,1.97-.96,2.16-2.03.11-.59-.05-1.42-.69-1.69ZM259.7,196.98c-.4-.16-.99-.45-1.48-.59-.19-.05-.36-.09-.53-.12,0-.11,0-.21.01-.32.02-.24.09-.55.18-.88.39.82.96,1.51,1.85,1.92,0,0-.02,0-.03-.01Z"/>
          <path class="cls-8" d="M257.52,220.56c-.18-.23-.45-.39-.81-.37-1.61.07-3.2.47-4.79.73-1.47.24-2.95.39-4.44.43-3.11.1-6.22-.16-9.24-.92-.52-.13-.96-.01-1.31.22-.52-.34-1.35-.12-1.34.67.07,5.03,5.38,8.42,9.97,8.5,2.75.05,5.49-.85,7.8-2.32,1.06-.68,2.08-1.48,2.95-2.4.44-.47.89-1,1.23-1.55.41-.67.51-1.24.58-2.01.04-.47-.22-.81-.58-.99Z"/>
          <path class="cls-8" d="M264.02,238.59c-.57-2.01-1.77-3.56-3.8-4.18-.82-.25-1.32.79-.8,1.37.82.92,2.41,2.76,1.99,4.12-.48,1.54-3.37,1.51-4.58,1.61-3.97.34-7.99.33-11.97.19-3.89-.14-7.77-.47-11.64-.97-.53-.07-2.1-.08-2.16-.82-.05-.62,1.34-1.93,1.7-2.4,1.2-1.55,2.34-3.14,3.53-4.69.7-.91-.79-1.99-1.56-1.21-1.95,1.97-4.17,3.79-5.92,5.94-1.47,1.8-1.44,4.26.57,5.66,2.07,1.44,5.49,1.32,7.9,1.56,2.81.28,5.63.45,8.45.53,2.82.08,5.65.06,8.47-.06,2.48-.11,5.5-.06,7.79-1.17,2.19-1.06,2.65-3.27,2.02-5.49Z"/>
          <path class="cls-8" d="M261.91,248.42c.37-.98-.58-2.02-1.54-2.02-4.95.03-9.88.71-14.84.74-4.96.03-9.88-.41-14.68-1.7-1.63-.44-3.12,1.77-1.73,2.97,1.29,1.12,1.92,2.45,1.83,4.17-.06,1.17.9,1.7,1.81,1.6-.35.66-.56,1.41-.69,2.18-.4,2.24-.49,4.41-.4,6.67.05,1.26,1.86,1.24,1.94,0,.11-1.75.38-3.56.74-5.28.13-.64.21-1.73.63-2.26.45-.57,1.4-.43,2.04-.42,3.67.1,7.34.3,11.01.26,1.75-.02,3.49-.08,5.23-.21.88-.07,1.76-.2,2.64-.24.9-.04,1.11.16,1.31,1.02.41,1.74.68,3.52.83,5.3.1,1.26.22,2.54.32,3.81-.27.1-.48.34-.46.74.2,4.3,1.89,9.54-.74,13.4-2.58,3.79-7.35,4.44-11.63,4.65-3.56.18-9.2-.14-10.72-4.13-.77-2.04-.57-4.38-.62-6.52-.07-2.57-.29-5.13-.31-7.69,0-1.12-1.66-1.1-1.73,0-.29,4.43-1.48,9.12-.83,13.56.06.38.15.74.25,1.09-1.24-.16-1.94,1.52-.79,2.22.53.32.55,1.19.73,1.73.23.7.57,1.36.99,1.96.93,1.34,2.2,2.42,2.91,3.91.84,1.77,1.58,3.46,2.09,5.37.57,2.11.94,4.28,1.21,6.45.21,1.62,2.5,1.71,2.59,0,.07-1.4.14-3.01,1.39-3.91,1.13-.81,2.67-.82,3.95-.4,2.5.83,3.74,3.12,3.89,5.56,0,.48-.02.96-.02,1.44-.03,1.71,2.42,1.62,2.6,0,.09-.81.08-1.62-.04-2.41-.03-1.47-.05-2.94-.04-4.42,0-2.33.59-4.01,2.12-5.76,2.59-2.97,4.45-6.37,5.47-10.18.2-.76-.14-1.33-.66-1.63.06-.17.14-.31.19-.49,1.32-4.1,1.28-8.22.04-12.24.08-.1.15-.23.18-.4.19-1.11.48-2.11.51-3.25.03-1.16-.05-2.33-.15-3.49-.17-1.96-.29-4.31-1.04-6.14,0-.02-.02-.03-.03-.05.02-.02.04-.04.06-.06,1.14-1.57,1.54-3.73,2.22-5.53ZM257.82,250.98c-.18-.43-.54-.79-1.03-.87.45-.05.89-.13,1.33-.19-.11.35-.21.7-.3,1.05Z"/>
          <path class="cls-8" d="M309.68,378.9c-.2-.23-.44-.37-.69-.44-1.21-3.65-3.18-7.01-6.07-9.31-.8-.64-2.17.17-1.53,1.18,1.63,2.56,3.38,5.1,4.46,7.95,1.06,2.77,1.67,5.73,1.63,8.71-.03,3.1-.62,6.33-2.15,9.06-1.53,2.75-3.83,4.61-6.58,6.07-5.77,3.04-12.4,4.68-18.78,5.8-6.71,1.17-13.53,1.6-20.33,1.79-14.25.39-28.63-.16-42.62-3.02-6.53-1.33-13.43-2.87-19.26-6.21-5.07-2.9-9.46-7.76-9.72-13.86-.32-7.42,4.25-13.95,8.9-19.29,5.09-5.84,10.56-11.25,16.38-16.36.75-.65-.26-2-1.07-1.39-5.68,4.24-11.06,8.99-15.96,14.12-.33-.15-.72-.18-1.09.06-6.38,4.17-11.73,9.98-15.73,16.45-2.03,3.29-3.84,6.88-4.46,10.73-.57,3.47-.3,7.02.7,10.39,4.52,15.24,19.88,22.11,34.08,25.61,30.53,7.52,64.04,6.89,92.79-6.77,7.22-3.43,14.06-8.16,14.99-16.73.93-8.56-2.33-18.06-7.91-24.54Z"/>
          <path class="cls-8" d="M337.52,419.9c-.52-.68-1.36-.63-1.98-.13-.51.4-.97.85-1.48,1.25-.59.47-1.2.91-1.76,1.41-1.04.92-2.13,1.79-3.17,2.72-.88.79-1.76,1.61-2.53,2.52-.21.25-.42.51-.62.77-.12-1.02-.54-1.96-1.41-2.61-.68-.5-1.72.17-1.69.97.06,1.3.56,2.38.16,3.69-.35,1.14-1.1,2.07-1.95,2.87-1.82,1.72-4.09,3.04-6.26,4.26-4.39,2.44-9.1,4.2-13.91,5.61-4.93,1.45-9.94,2.64-14.96,3.76-2.84.64-5.7,1.2-8.59,1.63-.56.08-1.54.44-2.08.2-.46-.21-.45-.9-.6-1.42-.38-1.28-.98-2.41-1.6-3.58-.47-.9-1.72-.11-1.33.78.5,1.13.82,2.38,1.13,3.58.23.91.32,1.82,1.13,2.41.28.2.61.32.95.41-.56.42-.94.98-1.36,1.58-.76,1.09.5,2.57,1.69,2.2,1.32-.4,2.64-.78,3.95-1.15.11.03.24.03.37,0,.3-.07.59-.12.89-.19,1.75-.04,3.53-.39,5.2-.75,2.31-.5,4.59-1.16,6.83-1.92,1.2-.4,2.38-.83,3.56-1.28,1.56-.37,3.12-.76,4.66-1.19,2.59-.73,5.93-1.33,7.64-3.54.03-.04.05-.1.08-.15,1.11-.48,2.2-1,3.27-1.53,2.2-.9,4.36-1.89,6.46-3.06,3.09-1.71,6.89-3.55,7.74-7.27.06-.26,0-.48-.1-.67.2-.02.39-.1.54-.26.77-.83,1.25-1.89,1.99-2.75.76-.88,1.61-1.67,2.49-2.43.95-.83,1.91-1.68,2.93-2.43.55-.4,1.08-.84,1.62-1.25.55-.41,1.14-.74,1.7-1.12.65-.44.88-1.29.37-1.95Z"/>
          <path class="cls-4" d="M251.65,44.29c-.12-.02-.25-.06-.37-.05-.49.03-1.04.32-1.25.8-.93-.03-1.88.09-2.8.18-1.22.12-2.43.25-3.65.37-2.43.24-4.88.5-7.32.63-.61.03-1.08.36-1.31.84-.46-.55-.98-1.01-1.59-1.43-.82-.57-1.81.53-1.33,1.33.62,1.03,1.28,2.16,1.72,3.29.21.54.36,1.11.48,1.68.11.52.1,1.09.37,1.57.72,1.25,2.47.83,3.65.81,1.5-.03,3-.05,4.5-.07,1.44-.02,2.88-.03,4.32-.05.78,0,1.56-.02,2.34-.02.62,0,1.34.09,1.89-.26,1.05-.68.86-2.5.98-3.59.17-1.53.43-3.14.38-4.68-.02-.58-.42-1.22-1.02-1.34Z"/>
          <path class="cls-4" d="M277.2,47.95c-1.22-.56-2.66-.63-4.02-.74-.68-.05-1.35-.11-2.03-.16-.68-.05-1.41-.2-2.07,0-.02,0-.04.02-.06.03.02-.28.02-.56-.02-.84-.05-.34-.43-.6-.74-.64-.38-.05-.66.13-.89.43-.33.43-.45,1.05-.58,1.57-.12.46-.22.93-.31,1.4-.21,1.01-.38,2.02-.53,3.03-.11.72.28,1.31,1.04,1.36,2.52.17,5.04.36,7.57.51.59.03,1.27.17,1.85.04.77-.18,1-.81,1.27-1.47.49-1.19,1.05-2.44,1.06-3.74,0-.72-.96-1.27-1.53-.78Z"/>
          <path class="cls-4" d="M255.06,86.77c-.14-.96-.3-1.93-.45-2.89-.17-1.05-.3-2.36-1.68-2.41-.97-.03-2.01.14-2.98.23-.97.09-1.94.16-2.92.24-1.06.08-2.38-.13-3.02.93-.45.75-.66,1.8-.71,2.68-.03.08-.06.16-.08.25-.14.45-.27.9-.4,1.35-.15.5-.31.99-.17,1.51.35,1.28,1.78,1.06,2.79,1.04.98-.02,1.96-.03,2.94-.05.98-.02,1.96-.02,2.94-.05.47-.01.95-.03,1.42-.03.46,0,.98.05,1.42-.1,1.29-.44,1.04-1.66.89-2.71Z"/>
          <path class="cls-4" d="M252.76,100.3c.01-.24.01-.47,0-.7-.03-.47-.18-.92-.52-1.26-.31-.31-.82-.54-1.26-.52-.68.03-1.31.43-1.61,1.02-.65.05-1.3.1-1.95.12-.01-.01-.03-.02-.04-.03-.01-.09-.03-.17-.04-.26-.04-.09-.08-.18-.12-.27-.07-.13-.17-.24-.3-.32-.19-.15-.44-.26-.7-.25-.31.01-.57.14-.77.33-.32.05-.63.16-.85.41-.29.31-.44.68-.46,1.11-.02.73-.05,1.45-.07,2.18,0,.4.18.83.46,1.11s.72.48,1.11.46c.41-.02.83-.15,1.11-.46.08-.11.16-.21.25-.32.02-.04.03-.08.05-.12.49,0,.99,0,1.48-.03.35-.02.71-.05,1.06-.08.22.23.47.41.77.48.31.07.63.07.94,0,.39-.09.88-.45,1.06-.81.1-.21.17-.43.24-.65.17-.34.22-.73.16-1.1Z"/>
          <path class="cls-4" d="M251.73,128.29c0-.81,0-1.63-.02-2.44,0-.37,0-.73-.04-1.1-.02-.26-.06-.52-.1-.78,0-.07-.01-.1-.02-.11-.02-.17-.04-.34-.07-.51-.07-.48-.62-1.02-1.09-1.09-.94-.14-1.9-.17-2.85-.22-.39-.02-.8-.1-1.19-.08-1,.07-1.81.84-1.82,1.87-.12.59-.2,1.19-.27,1.8-.04.35-.09.69-.13,1.04,0,.07-.02.14-.03.21,0,.02-.01.08-.02.14-.01.09-.05.39-.05.35-.01.12-.03.23-.04.35-.01.09-.02.18-.03.28,0,.01,0,0,0,.01,0,0,0,0,0,.02-.02.15-.04.29-.06.44-.05.36-.1.71-.1,1.07,0,.91.32,1.72,1.08,2.26.66.46,1.49.45,2.25.42.68-.03,1.37-.03,2.05-.1.91-.08,1.82-.38,2.26-1.26.39-.77.28-1.7.28-2.53Z"/>
          <path class="cls-4" d="M253.18,159.04c-.12-.97-.14-2.06-.47-2.99-.48-1.36-1.96-1.39-3.18-1.39-1.05,0-2.1.08-3.14.19-.12.01-.24.03-.36.04-.08,0-.87.12-.56.07.27-.04-.31.04-.45.06-.09.02-.19.04-.28.06-.62.15-1.2.46-1.65.91-.73.73-.91,1.75-1.09,2.71-.1.51-.19,1.03-.28,1.54-.08.44-.18.9-.18,1.35,0,.02,0,.03,0,.05-.14,1.15.29,2.29,1.31,2.89.87.52,2.02.48,2.99.49,1.05,0,2.1.02,3.15,0,.48-.01.96-.05,1.44-.09.3-.03.61-.06.91-.11.02,0,.04,0,.06,0-.2.01-.12,0,.26-.04.11-.02.21-.04.31-.08,1.14-.38,1.68-1.42,1.57-2.58-.1-1.03-.23-2.05-.36-3.08Z"/>
          <path class="cls-4" d="M272.81,182.29c-1.18.55-2.3,1.28-3.43,1.91-1.07.59-2.14,1.19-3.21,1.78-1.07.59-2.13,1.19-3.2,1.8-1.14.65-2.32,1.3-3.26,2.22-.78.76.03,2,1.03,1.76,1.29-.3,2.48-.97,3.64-1.58,1.08-.57,2.16-1.15,3.24-1.73,1.07-.59,2.15-1.17,3.22-1.75,1.14-.62,2.36-1.18,3.46-1.87,1.62-1.02.21-3.33-1.48-2.54Z"/>
          <path class="cls-4" d="M252.15,197.46c-.07-1.72-.1-3.45-.14-5.17-.02-.87.05-1.82-.57-2.51-.51-.57-1.23-.8-1.99-.8-1.89,0-3.78.25-5.68.25-2.03,0-4.07-.04-6.08-.26-.66-.07-1.56.58-1.65,1.26-.04.27-.06.55-.09.82-.58,1.25-.94,2.6-1.16,3.96-.25,1.56-.64,3.62.47,4.94,1.08,1.28,2.77,1.2,4.29,1.23,1.76.03,3.52.04,5.28.01,1.71-.03,3.47.03,5.17-.14.82-.08,1.54-.4,1.94-1.15.39-.72.24-1.65.2-2.43Z"/>
          <path class="cls-4" d="M254.17,236.82c-.77-.95-1.32-2.01-1.6-3.21-.12-.5-.68-.97-1.21-.92-3.33.28-6.63.31-9.95,0-.28-.03-.51.04-.7.16-.02.01-.04.03-.06.04-.42.3-.63.87-.61,1.4,0,.01-.01.03-.02.04-.07-.28-.15.13-.22.37-.04.13-.07.28-.09.42-.26.55-.6,1.06-1.06,1.52-.48.48-.34,1.58.44,1.69,2.36.32,4.72.55,7.1.61,1.19.03,2.38.01,3.57-.03,1.19-.05,2.38-.21,3.56-.07,1.14.14,1.41-1.33.84-2.03Z"/>
          <path class="cls-4" d="M253.72,276.38c-.79-3.75-1.6-7.49-2.29-11.26-.12-.65-.88-1.2-1.53-1.17-3.23.15-6.45.55-9.68.67-.87.03-1.91.79-1.78,1.78.23,1.74.22,3.48,0,5.2-.12.51-.27,1.02-.43,1.52-.29.92-.8,1.86-.84,2.84-.04,1.2.82,2.17,1.96,2.42,1.06.23,2.21.13,3.28.15,1.07.01,2.13.03,3.2.02,2.22-.02,4.44-.1,6.66-.27,1.01-.07,1.66-.9,1.45-1.9Z"/>
          <path class="cls-1" d="M256.25,368.76c-.52-2.76-1.18-5.48-1.85-8.2-1.37-5.54-2.87-11.05-4-16.65-.56-2.76-1-5.54-1.34-8.34-.33-2.72-.61-5.48-1.45-8.1-.39-1.22-.85-2.48-2.1-3.04-5.07-2.27-7.24,8.95-8.32,11.76-3.33,8.71-6.91,17.06-11.24,25.3-1.88,3.59-6.93,10.03-1.8,13.16,1.94,1.19,4.39,1.13,6.58,1.25,3.05.17,6.09.37,9.14.53,2.95.15,5.9.24,8.85.22,2.12-.01,4.97.3,6.73-1.15,2.08-1.72,1.24-4.48.81-6.75Z"/>
          <path class="cls-1" d="M258.75,390.32c-.19-2.13-.38-4.26-.57-6.38-.13-1.51.02-3.45-1.71-4.07-.71-.25-1.56-.16-2.29-.17-1.19,0-2.37-.02-3.56-.04-4.15-.07-8.3-.2-12.44-.39-4.74-.22-9.47-.47-14.2-.82-1.77-.13-4.36-.93-5.32,1.11-.86,1.82-1.15,3.89-2,5.75-1.05,2.31-3.25,6.05-.47,7.95,1.83,1.26,4.33,1.29,6.46,1.54,8.23.97,16.66,1.09,24.94,1.38,2.04.07,4.08.12,6.12-.07,1.38-.13,3.58-.11,4.61-1.21,1.11-1.19.57-3.13.44-4.57Z"/>
          <path class="cls-1" d="M322.59,425.38c-2.02.49-3.9,1.85-5.6,3-1.83,1.23-3.58,2.58-5.41,3.79-3.85,2.55-7.95,4.82-12.23,6.56-8.43,3.43-17.64,4.94-26.71,5.17-1.06.03-1.05,1.58,0,1.63,9.27.47,18.39-1.32,27.05-4.61,4.28-1.62,8.44-3.54,12.34-5.95,1.88-1.16,3.68-2.45,5.49-3.72,1.97-1.38,4.02-2.3,6.11-3.43,1.37-.74.42-2.8-1.03-2.45Z"/>
          <path class="cls-1" d="M314.01,186.3c-.89-1.42-1.92-2.55-3.41-3.39-1.52-.86-3.15-1.43-4.83-1.85-1.62-.41-3.25-.8-4.91-1.04-.84-.12-1.69-.2-2.54-.24-.9-.04-1.59.14-2.43.41-.84.27-.87,1.48,0,1.74.84.25,1.55.44,2.43.51.71.06,1.43.14,2.13.25,1.49.22,2.96.57,4.36,1.14,1.4.57,2.77,1.28,4.08,2.03,1.32.75,2.65,1.29,4.04,1.87.79.33,1.49-.75,1.08-1.41Z"/>
          <path class="cls-1" d="M189.55,292.9c-4.1,1.65-7.72,4.13-11.32,6.67-3.67,2.6-7.22,5.42-10.65,8.34-3.41,2.9-6.78,5.83-9.96,8.99-1.59,1.57-3.13,3.2-4.59,4.89-1.45,1.68-3.1,3.42-3.98,5.47-.35.82.43,1.96,1.35,1.35,1.79-1.18,3.18-2.89,4.65-4.43,1.54-1.62,3.08-3.24,4.63-4.85,3.05-3.14,6.19-6.22,9.52-9.07,3.37-2.89,6.91-5.54,10.53-8.1,3.59-2.54,7.37-4.8,10.78-7.58.76-.62-.06-2.06-.98-1.69Z"/>
          <path class="cls-1" d="M245.94,447.38c-3.25-.81-6.63-.67-9.95-.66-3.43,0-6.85-.08-10.28-.26-3.32-.18-6.65-.42-9.96-.72-1.76-.16-3.51-.34-5.26-.51-1.59-.16-3.41-.58-4.95-.04-.88.3-1.02,1.41-.25,1.93,1.31.87,3.09.92,4.62,1.12,1.65.22,3.31.39,4.97.55,3.51.34,7.03.6,10.55.79,3.42.18,6.85.32,10.28.42,3.42.1,6.93.23,10.24-.75.88-.26.94-1.61,0-1.85Z"/>
        </g>
        <g>
          <path class="cls-6" d="M189.07,51.6c9.83,1.46,19.71-.31,29.38-2.04,10.11-1.81,20.11-3.51,30.42-3.41,1.83.02,1.83-2.83,0-2.84-10.17-.07-19.97,1.69-29.9,3.71-9.79,1.99-19.61,3.52-29.61,2.43-1.22-.13-1.52,1.97-.29,2.16h0Z"/>
          <path class="cls-6" d="M308.38,49.45c-10,1.09-19.82-.44-29.61-2.43-9.93-2.02-19.73-3.78-29.9-3.71-1.83.01-1.83,2.86,0,2.84,10.31-.1,20.3,1.6,30.42,3.41,9.67,1.73,19.55,3.5,29.38,2.04,1.21-.18.94-2.29-.29-2.16h0Z"/>
          <path class="cls-6" d="M308.68,49.88c-3.56-.57-7.04.99-9.26,3.78-1.19,1.49-2.11,3.18-3.47,4.52-1.43,1.41-3.21,2.44-5.08,3.15-4.13,1.57-8.65,1.72-13.01,1.95-4.68.24-9.36.43-14.04.53-8.9.18-17.84.19-26.74.06-4.68-.07-9.36-.22-14.04-.44-4.6-.22-9.37-.24-13.87-1.32-2.15-.52-4.24-1.31-6.07-2.56-1.9-1.3-3.1-3.08-4.41-4.93-2.33-3.27-5.99-5.83-10.17-4.72-.98.26-.67,1.55.22,1.65,1.8.2,3.72.65,5.27,1.62,1.69,1.05,2.71,2.74,3.85,4.31,2.23,3.06,5.25,5.1,8.84,6.26,4.14,1.34,8.58,1.45,12.88,1.67,4.68.23,9.36.38,14.04.46,8.82.15,17.67.14,26.49.04,4.6-.05,9.2-.18,13.8-.38,4.49-.19,9.09-.26,13.52-1.11,4.09-.78,8.19-2.55,10.87-5.83,1.37-1.67,2.37-3.67,4.06-5.06,1.71-1.41,3.9-1.95,6.08-1.98.91-.01,1.19-1.5.22-1.66h0Z"/>
          <path class="cls-6" d="M233.25,64.75c-1.01.93-.64,2.5.04,3.53.84,1.25,2.24,1.94,3.68,2.25,3.56.75,7.43.62,11.05.6,3.61-.02,7.4.13,10.98-.37,2.53-.35,5.82-2.69,4.33-5.62-.61-1.19-2.43-.58-2.44.66-.01,1.01-.24,1.69-1.26,2.09-1.09.43-2.36.36-3.52.42-2.78.12-5.55.23-8.33.24-2.69.01-5.39-.07-8.07-.28-1.19-.09-2.64-.11-3.68-.8-.94-.63-.9-1.61-1.3-2.53-.26-.58-1.08-.56-1.48-.19h0Z"/>
          <path class="cls-6" d="M259.7,68.84c-2.25,1.91-2.96,5.21-2.98,8.04-.02,3.26.91,6.46,2.14,9.46.98,2.39,2.9,5.19.94,7.62-1.21,1.5-3.41,1.99-5.23,2.18-1.9.2-3.82.13-5.73.08-1.77-.04-3.54-.02-5.3-.14-1.85-.13-3.94-.39-5.49-1.5-2.12-1.52-1.71-3.88-.73-5.98,2.69-5.75,5.55-14.94-.23-19.88-.88-.75-2.03.39-1.27,1.27,1.07,1.23,1.46,3.07,1.66,4.66.23,1.81.11,3.66-.26,5.43-.35,1.69-.9,3.34-1.55,4.94-.63,1.56-1.56,3.05-1.99,4.68-.65,2.46.1,5.16,2.04,6.84,1.65,1.42,3.78,2.02,5.89,2.31,3.81.52,7.98.38,11.81,0,4.17-.4,9.06-2.01,9.36-6.95.1-1.64-.57-3.13-1.26-4.57-.88-1.86-1.66-3.77-2.2-5.76-1-3.7-1.27-8.6,1.41-11.71.61-.71-.31-1.63-1.03-1.03h0Z"/>
          <path class="cls-6" d="M235.09,87.6c-.65,1.8-2.2,3.09-3.26,4.65-1.06,1.55-1.64,3.31-1.35,5.2.7,4.6,5.28,5.76,9.19,6.49,4.76.89,9.62,1.02,14.42.36,3.4-.46,7.82-.97,10.22-3.71,1.29-1.47,2-3.61,1.35-5.53-.26-.77-.75-1.41-1.23-2.06-.25-.34-.47-.69-.72-1.03-.4-.54-1.01-.88-1.32-1.47-.43-.81-1.74-.25-1.48.62.22.75.12,1.49.5,2.19.33.61.83,1.13,1.25,1.68.83,1.1.92,2.32.17,3.54-1.55,2.54-5.74,3.05-8.41,3.45-4.03.61-8.16.64-12.2.08-3.11-.43-8.12-.93-9.07-4.6-.45-1.76.36-3.27,1.25-4.73.9-1.48,1.75-3.02,2.01-4.76.13-.88-1.03-1.23-1.34-.37h0Z"/>
          <path class="cls-6" d="M230.78,95.23c-.34,3.17.37,6.28,1.92,9.05.73,1.31,1.71,2.52,2.81,3.55,1.39,1.3,3.01,2.33,4.21,3.84,2.1,2.64,3.01,6.12,3.24,9.44.13,1.88.07,3.77-.05,5.65-.09,1.4-.63,3.22,0,4.54,1.43,2.99,7.32,2.88,9.46.83.58-.56.87-1.27.89-2.07.04-2.02-.36-4.09-.39-6.13-.05-3.51.37-7.13,2.04-10.27,1.88-3.55,5.58-5.2,7.88-8.4,2.07-2.89,3.07-6.48,2.87-10.02-.08-1.35-2.2-1.36-2.12,0,.18,3.07-.62,6.09-2.36,8.63-1.79,2.62-4.71,4.01-6.65,6.48-4.02,5.1-4.06,11.89-3.61,18.06.05.72.41,1.64-.16,2.18-.52.49-1.51.53-2.17.53-.73,0-1.49-.1-2.19-.32-.29-.09-.59-.19-.84-.37-.17-.12-.26-.27-.26-.27-.05-.14.09-1.1.12-1.5.07-.94.14-1.88.18-2.83.08-1.73.09-3.46-.07-5.18-.28-3.1-1.05-6.19-2.69-8.86-.84-1.38-1.9-2.6-3.15-3.62-1.39-1.13-2.87-2.09-4.05-3.46-2.25-2.61-3.38-6.04-3.35-9.46,0-.99-1.41-.94-1.51,0h0Z"/>
          <path class="cls-6" d="M244.16,125.24c-2.76-.5-5.62,1.89-6.13,4.54-.57,2.95,1.38,5.46,3.98,6.6,2.91,1.28,6.36,1.42,9.45.78,2.8-.58,5.82-2.2,6.06-5.38.12-1.63-.62-3.32-1.65-4.55-.91-1.09-2.71-2.29-4.01-1.12-.29.26-.36.79-.14,1.12.59.92,1.8,1.14,2.47,2.02.69.9,1.08,2.23.56,3.29-.55,1.12-1.79,1.69-2.92,2.02-1.47.44-2.99.62-4.52.6-2.46-.02-5.71-.54-6.92-3.02-.54-1.12-.32-2.38.43-3.34.89-1.14,2.06-1.28,3.33-1.73.8-.29,1.01-1.66,0-1.84h0Z"/>
          <path class="cls-6" d="M239.37,127.39c-2.15,2.33-2.98,6.2-2.87,9.3.11,3.29,2.3,5.81,5.26,7.04,5.24,2.17,16.03,1.85,16.98-5.38.46-3.51-.16-8.12-2.75-10.71-.54-.54-1.52,0-1.29.75.48,1.62,1.23,3.16,1.6,4.81.38,1.67.49,3.5.23,5.2-.58,3.74-5.81,4.34-8.83,4.26-3.14-.08-7.34-.73-8.81-3.95-1.54-3.38-.13-7.49,1.65-10.44.42-.7-.58-1.5-1.15-.89h0Z"/>
          <path class="cls-6" d="M237.91,140.53c1.37,3.01,1.31,6.28.28,9.37-1,3.01-2.61,5.77-3.67,8.75-1,2.82-1.38,5.86-.04,8.63,1.1,2.28,3.15,3.99,5.44,4.99,2.83,1.25,5.99,1.42,9.04,1.45,2.93.03,6.03-.19,8.6-1.75,2.25-1.37,3.82-3.57,4.13-6.21.31-2.66-.43-5.42-1.21-7.94-.86-2.75-1.93-5.42-2.58-8.23-.34-1.49-.55-3.01-.52-4.54.03-1.65.57-3.29.41-4.92-.09-.96-1.18-1.23-1.75-.47-1.47,1.97-1.31,5.17-1.07,7.51.25,2.4.88,4.71,1.63,7,.72,2.19,1.54,4.36,2.09,6.61.59,2.41,1.07,5.2-.5,7.35-1.65,2.27-4.48,3.03-7.16,3.18-2.94.16-6.11.15-8.94-.72-2.33-.71-4.51-2.29-5.42-4.61-1.08-2.74.04-5.75,1.06-8.32,2.15-5.42,4.78-12.36,1.54-17.91-.53-.9-1.79-.11-1.38.8h0Z"/>
          <path class="cls-6" d="M234.69,163.24c-2.7,2.51-4.3,6.31-3.07,9.94,1.22,3.61,4.61,5.43,7.97,6.71,3.94,1.5,8.15,1.99,12.32,1.36,3.77-.56,7.85-1.94,10.33-5,1.33-1.66,2.03-3.63,1.69-5.76-.17-1.04-.54-2.06-1.04-3-.57-1.06-1.21-1.5-2.17-2.14-.67-.45-1.76.31-1.44,1.11.18.44.22.89.39,1.33.16.42.43.82.63,1.22.42.83.74,1.72.77,2.67.05,1.85-1.29,3.45-2.72,4.47-3.27,2.35-7.89,3.01-11.83,2.72-3.68-.27-8.22-1.5-11-4.07-1.37-1.27-2.12-3.17-1.93-5.04.21-2.04,1.46-3.74,2.45-5.47.5-.87-.64-1.72-1.36-1.05h0Z"/>
          <path class="cls-6" d="M264.75,185.37c-1.24-1.48-2.54-3.08-3.17-4.93-.65-1.89-.36-3.67,1-5.17.94-1.04-.59-2.58-1.54-1.54-1.78,1.93-2.41,4.36-1.81,6.91.56,2.35,1.92,4.49,3.29,6.45.48.69,1.37.95,2.08.4.71-.55.69-1.47.14-2.12h0Z"/>
          <path class="cls-6" d="M232.58,174.8c1.93,2.38.13,6.38-1.49,8.43-2.06,2.6-4.74,4.54-6.27,7.56-2.9,5.75-1.99,12.74,2.34,17.52,4.48,4.95,12.01,6.36,18.38,6.64,3.62.16,7.25-.11,10.82-.72,2.61-.44,5.2-1.15,7.54-2.41,5.85-3.14,7.9-9.32,6.72-15.65-.35-1.86-3.24-1.08-2.85.79.56,2.67.53,5.7-.67,8.21-.97,2.03-2.64,3.5-4.6,4.56-2.24,1.21-4.74,1.82-7.23,2.23-3.36.56-6.79.77-10.19.61-6.03-.3-13.27-1.67-17.08-6.84-3.75-5.09-3.3-12.06.85-16.76,2.12-2.41,5.05-4.51,6.3-7.56,1.09-2.68.72-5.73-1.44-7.73-.76-.7-1.75.34-1.12,1.12h0Z"/>
          <path class="cls-6" d="M227.23,206.76c-3.09,1.62-2.88,6.21-1.15,8.74,2.37,3.44,6.91,4.52,10.76,5.32,4.81,1.01,9.76,1.43,14.68,1.22,4.5-.19,9.16-.83,13.08-3.21,1.86-1.13,3.67-2.79,4.1-5.02.37-1.97-.29-4.68-2.66-4.81-.69-.04-1.27.73-1.05,1.38.26.79.86,1.51.92,2.35.07.98-.5,1.85-1.16,2.53-1.44,1.49-3.46,2.43-5.41,3.05-4.51,1.44-9.51,1.58-14.2,1.3-4.54-.26-9.63-.87-13.8-2.82-1.72-.8-3.39-2.01-3.98-3.89-.55-1.73-.16-3.29,1.09-4.58.79-.82-.21-2.08-1.2-1.56h0Z"/>
          <path class="cls-6" d="M227.06,244.11c2.65,4.62,4.13,9.75,4.36,15.07.12,2.68-.06,5.36-.54,7.99-.51,2.75-1.25,5.44-1.64,8.21-.66,4.66-.24,9.84,3.31,13.3,1.9,1.85,3.99,3.15,4.94,5.76.88,2.41.99,5.03,1.09,7.57.41,10.42-.89,21.3-7.65,29.67-5.69,7.04-13.41,12.5-20.67,17.8-13.67,9.99-28.23,20.97-34.98,37.08-1.66,3.96-2.89,8.14-2.58,12.48.27,3.86,1.63,7.54,3.77,10.76,4.53,6.81,11.84,11.58,19.22,14.84,9.79,4.32,20.42,6.62,31.01,7.8,10.62,1.18,21.39,1.31,32.06.76,8.85-.45,17.73-1.44,26.36-3.46,6.76-1.58,13.5-3.8,19.56-7.25,4.64-2.65,8.96-6.13,11.83-10.69,2.58-4.09,3.74-8.95,3.34-13.77-.53-6.39-3.33-12.28-6.73-17.63-5.15-8.09-11.91-14.93-19.22-21.08-7.29-6.13-15.06-11.65-22.4-17.7-3.93-3.24-7.87-6.61-10.98-10.68-3.14-4.1-5.13-8.84-6.17-13.88-1.07-5.14-1.19-10.45-.95-15.68.11-2.48.25-5.11,1.28-7.41,1.05-2.35,3.2-3.58,4.89-5.39,3.44-3.7,3.71-8.95,2.99-13.7-.43-2.84-1.21-5.61-1.66-8.45-.4-2.52-.54-5.12-.37-7.66.33-5,1.73-10.19,4.27-14.53.66-1.13-1.09-2.15-1.75-1.02-2.58,4.4-4.37,8.99-5.05,14.07-.34,2.52-.47,5.09-.24,7.62.25,2.71.88,5.36,1.43,8.02.99,4.78,1.59,10.43-2.29,14.12-1.8,1.71-3.7,3.11-4.77,5.42-1.03,2.22-1.4,4.63-1.58,7.05-.74,10.04.03,20.95,5.3,29.78,5.06,8.47,13.54,14.55,21.21,20.49,14.18,10.97,29.8,22.21,37.36,39.1,2,4.46,3.17,9.6,2.29,14.44-.84,4.61-3.34,8.57-6.74,11.74-4.27,3.98-9.65,6.69-15.09,8.7-7.27,2.69-14.93,4.28-22.6,5.33-9.74,1.33-19.61,1.73-29.43,1.59-10.95-.15-21.96-1.11-32.61-3.73-8.85-2.18-17.83-5.42-25.07-11.13-6.23-4.91-11.01-11.92-10.22-20.16.41-4.28,2.22-8.48,4.25-12.23,2-3.7,4.45-7.19,7.29-10.29,5.81-6.36,12.52-11.87,19.35-17.09,6.78-5.17,13.76-10.17,20.13-15.85,3.75-3.34,7.28-7.06,9.81-11.43,2.55-4.41,3.99-9.35,4.68-14.38.69-5.04.77-10.21.35-15.28-.2-2.35-.59-4.73-1.67-6.85-1.13-2.23-3.13-3.57-4.81-5.32-3.74-3.9-2.95-9.72-1.94-14.53,1.09-5.17,1.77-10.13.98-15.4-.72-4.82-2.43-9.5-4.93-13.68-.52-.87-1.86-.09-1.36.79h0Z"/>
          <path class="cls-6" d="M234.22,219.68c1.36,2.19,1.89,5.11,1.43,7.64-.55,2.96-2.28,4.94-4.41,6.93-2.03,1.89-4.68,4.91-4.41,7.91.28,3.11,3.99,4,6.5,4.52,6.66,1.39,13.6,1.74,20.37,1.16,3.08-.26,6.75-.33,9.5-1.91,2.66-1.53,3.26-4.43,1.96-7.11-1.37-2.82-4.23-4.53-5.8-7.2-.86-1.46-1.25-3.3-1.26-4.98-.01-1.75.19-3.87,1-5.45.72-1.4-1.3-2.6-2.12-1.24-1.41,2.34-1.64,5.75-1.55,8.43.09,2.81,1.36,5.12,3.2,7.18,1.47,1.65,4.47,3.82,4.39,6.28-.09,2.89-5.89,3.07-7.87,3.3-6.36.73-12.9.53-19.21-.58-1.43-.25-2.88-.57-4.21-1.18-.48-.22-1.3-.57-1.66-.99-.57-.68-.04-1.58.3-2.26,1.35-2.69,3.9-4.19,5.68-6.53,3.36-4.4,2.98-10.76-.63-14.84-.57-.65-1.65.19-1.2.92h0Z"/>
          <path class="cls-6" d="M271.97,182c-1.83.45-3.59,1.42-5.28,2.22-1.62.77-3.29,1.5-4.86,2.37-2.77,1.54-5.29,4.02-5.21,7.42.07,3.15,2.64,5.27,5.65,5.46,2.58.16,4.82-1.08,6.99-2.31,1.39-.79,2.78-1.58,4.17-2.37.73-.41,1.45-.82,2.19-1.22.71-.38,1.32-.65,1.8-1.33.43-.6-.15-1.37-.8-1.39-1.12-.04-2.21.79-3.17,1.31-1.11.6-2.22,1.21-3.33,1.82-1.74.95-3.6,2.09-5.55,2.56-1.73.42-4.45.03-4.93-2.02-.6-2.58,1.85-4.64,3.79-5.81,1.5-.91,3.07-1.71,4.62-2.54,1.59-.87,3.3-1.7,4.69-2.88.63-.53-.05-1.48-.76-1.31h0Z"/>
          <path class="cls-6" d="M271.25,184.01c.26-.05.46-.21.7-.3.19-.07.39-.11.6-.11.43-.02.87.07,1.26.23.88.36,1.5,1.15,1.98,1.95.53.88.98,1.88.92,2.92-.02.39-.12.79-.28,1.14-.22.48-.62.74-.91,1.21-.24.4-.16.95.16,1.27.35.35.85.37,1.27.16.66-.32,1.02-1.11,1.27-1.75.23-.59.34-1.25.32-1.88-.04-1.45-.54-2.93-1.32-4.16-.73-1.15-1.74-2.14-3.02-2.63-.62-.24-1.32-.29-1.98-.2-.67.09-1.53.34-1.89.96-.38.64.24,1.3.9,1.18h0Z"/>
          <path class="cls-6" d="M259.35,261.94c9.46-3.99,18.76-8.22,27.49-13.64,4.15-2.58,8.17-5.37,12.03-8.37,3.78-2.93,7.61-6.01,10.91-9.48,5.78-6.09,9.15-14.49,8.95-22.91-.11-4.59-1.23-9.3-3.39-13.36-1.95-3.65-5.33-6.29-9.08-7.92-9.05-3.92-19.91-3.32-28.78.73-1.37.63-.18,2.65,1.18,2.02,7.67-3.51,16.8-4.04,24.82-1.33,3.58,1.21,7.02,3.3,9.14,6.5,2.31,3.49,3.45,8.01,3.72,12.15.51,8.03-2.43,16.13-7.85,22.06-2.93,3.19-6.39,6-9.77,8.69-3.65,2.9-7.46,5.6-11.38,8.12-9.05,5.79-18.72,10.3-28.61,14.46-1.38.58-.77,2.86.63,2.28h0Z"/>
          <path class="cls-6" d="M229.38,277.86c-21.68,8.94-43.68,18.68-61.15,34.71-15.29,14.03-28.23,33.04-30.79,54.05-2.42,19.81,5.27,39.96,18.89,54.3,14.09,14.84,33.75,21.74,53.56,24.82,10.32,1.6,20.76,2.27,31.2,2.4,5.1.06,10.21-.01,15.31-.18,2.38-.08,4.75-.18,7.13-.29,1.56-.08,3.84-.76,4.7.98.54,1.09.36,2.6-.9,3.07-.9.34-2.1.22-3.05.27-1.27.07-2.54.13-3.8.19-5.13.23-10.26.38-15.39.4-10.56.05-21.15-.41-31.61-1.83-20.31-2.76-40.57-9.33-55.72-23.69-14.72-13.96-24.27-33.81-24.21-54.26.06-20.86,10.81-40.49,24.76-55.42,15.52-16.6,35.35-27.8,55.94-36.93,5.69-2.52,11.44-4.9,17.21-7.23,1.39-.56.78-2.84-.63-2.27-22.08,8.92-44.25,18.63-62.73,33.97-16.14,13.4-29.46,31.04-34.82,51.57-5.24,20.06-.22,41.6,11.25,58.59,5.7,8.44,12.95,15.84,21.36,21.59,8.47,5.79,18.08,9.8,27.94,12.53,20.51,5.69,42.19,6.28,63.33,5.49,2.55-.1,5.1-.22,7.65-.35,1.86-.1,3.79-.07,5.09-1.62,2.1-2.51.64-6.89-2.61-7.5-.99-.18-2.07,0-3.07.05-1.29.06-2.58.12-3.87.18-2.54.11-5.08.19-7.61.25-5.16.12-10.32.14-15.48,0-20.65-.52-42.44-3.01-61-12.72-17.97-9.4-31.42-26.6-35.58-46.52-2.09-10.01-1.63-20.38,1.38-30.14,3.21-10.43,8.65-20.13,15.39-28.68,6.74-8.56,14.77-16.13,23.62-22.48,9.78-7.02,20.63-12.5,31.54-17.51,5.74-2.64,11.56-5.12,17.4-7.53,1.37-.57.77-2.84-.62-2.26h0Z"/>
          <path class="cls-6" d="M276.07,184.36c4.69-2.31,9.96-3.36,15.16-3.65,4.74-.26,9.62.03,14.2,1.34,4.88,1.4,9.09,4.55,12.11,8.61,2.47,3.33,3.74,7.04,4.36,11.1,1.32,8.66-.37,17.73-5.09,25.15-1.48,2.32-3.23,4.45-5.18,6.39-1.82,1.81-3.52,3.7-5.43,5.43-4,3.61-8.38,6.78-12.9,9.7-10.44,6.73-21.66,12.08-33.09,16.89-1.36.57-.76,2.83.62,2.24,10.74-4.53,21.29-9.49,31.22-15.64,4.91-3.04,9.67-6.36,14.07-10.11,1.99-1.7,3.9-3.49,5.67-5.41,1.94-2.11,3.94-4.11,5.64-6.43,5.62-7.73,7.9-17.49,6.8-26.94-.47-4.09-1.44-8.07-3.62-11.61-2.77-4.48-6.91-8.3-11.78-10.36-4.98-2.11-10.71-2.59-16.07-2.43-6.07.18-12.22,1.31-17.68,4.03-1.15.57-.14,2.29,1.01,1.72h0Z"/>
          <path class="cls-6" d="M264.87,446.57c.63-1.31,2.1-2.27,3.54-2.32,1.54-.06,3,.83,3.82,2.11,1.52,2.36.64,5.77-1.69,7.27-.7.45-1.49.73-2.33.64-.37-.04-.78-.16-1.07-.4-.42-.36-.6-.88-1.21-.99-.48-.08-.84.07-1.12.46-.95,1.32.93,2.52,1.95,2.91,1.15.44,2.5.39,3.64-.06,1.97-.77,3.27-2.4,3.98-4.35.68-1.85.64-3.93-.19-5.72-.91-1.98-2.86-3.42-5.02-3.67-1.2-.14-2.46.16-3.5.76-.49.29-.96.65-1.34,1.07-.46.51-.68,1.05-.92,1.68-.32.84,1.07,1.43,1.46.62h0Z"/>
          <path class="cls-6" d="M266.03,444.59c2.37-.54,4.77-.38,7.18-.34,2.17.04,4.34.05,6.5-.08,4.22-.25,8.4-.76,12.49-1.86,8.45-2.27,16.12-6.27,23.01-11.63,1.71-1.33,3.55-3.22,5.81-3.46,2.3-.25,3.5,1.54,4.05,3.52.64,2.29-.02,3.89-1.81,5.36-1.68,1.38-3.54,2.54-5.42,3.63-7.59,4.39-15.63,8.08-23.98,10.78-4.16,1.35-8.42,2.43-12.74,3.12-4.03.64-8.02.51-12.07.73-1.09.06-1.49,1.83-.27,2.03,3.68.58,7.56.03,11.22-.54,4.2-.66,8.34-1.64,12.4-2.88,8.92-2.72,17.44-6.67,25.5-11.34,2.04-1.18,4.18-2.28,6.14-3.58,1.51-1.01,2.92-2.44,3.32-4.26.78-3.56-1.6-8.61-5.55-8.88-2.26-.15-4.28,1.02-6.01,2.35-1.98,1.52-3.92,3.09-6,4.5-3.94,2.68-8.2,4.87-12.67,6.51-4.84,1.78-9.99,3.07-15.09,3.78-2.7.38-5.46.59-8.18.57-2.77-.02-5.55-.32-8.24.49-.95.29-.56,1.71.41,1.49h0Z"/>
          <path class="cls-6" d="M322.98,427.03c2.38-.78,4.47-2.84,6.12-4.64,1.79-1.95,3.38-4.09,4.95-6.22-.47.06-.93.12-1.4.18.73.72,1.45,1.44,2.12,2.21.62.7,1.51,1.53,1.88,2.4.21.49.03.61-.33.93-.41.35-.82.69-1.24,1.02-.82.65-1.68,1.25-2.53,1.86-2.95,2.13-5.83,4.68-6.61,8.41-.14.67.85,1.19,1.17.49.22-.48.38-.96.65-1.41.29-.48.66-.83,1.02-1.25.62-.73,1.18-1.49,1.86-2.18,1.61-1.6,3.46-2.96,5.25-4.35,1.41-1.09,3.4-2.27,2.33-4.29-.48-.9-1.26-1.71-1.91-2.49-.76-.91-1.56-1.78-2.41-2.6-.44-.43-1.06-.28-1.4.18-1.47,2.02-2.95,4.04-4.66,5.87-.82.88-1.68,1.72-2.6,2.5-.95.8-2.01,1.44-2.95,2.24-.52.44.04,1.35.67,1.14h0Z"/>
          <path class="cls-6" d="M288.96,58.87c1.94-.6,3.74-1.5,5.34-2.75.78-.61,1.53-1.28,2.17-2.03.36-.42.69-.85,1-1.31.15-.22.29-.43.4-.67.07-.15.13-.29.14-.45.03-.12.02-.23-.02-.35-.09-.22-.11-.28-.08-.18-.12-.34-.45-.57-.82-.47.1,0,.08,0-.06.02-.12,0-.22.04-.32.1-.17.1-.29.26-.4.42-.12.18-.22.37-.32.56-.23.41-.47.82-.74,1.22-.52.79-1.1,1.56-1.76,2.25-1.33,1.39-2.92,2.55-4.68,3.31-.19.08-.05.39.14.33h0Z"/>
          <path class="cls-6" d="M283.93,59.95c-5.05.79-10.11,1.01-15.21.82-1.26-.05-2.52-.11-3.78-.12-.61,0-1.22-.03-1.83.04-.61.06-1.2.24-1.8.35-1.27.23-2.65.11-3.94.06-1.28-.04-2.57-.08-3.85-.11-2.89-.07-5.81-.24-8.7,0-.13.01-.12.18,0,.2,2.59.31,5.22.27,7.83.31,2.58.03,5.21-.1,7.78.13,1.29.12,2.47.55,3.78.57,1.26.01,2.52-.03,3.78-.1,2.55-.14,5.11-.38,7.66-.63,2.8-.28,5.6-.65,8.36-1.22.19-.04.11-.32-.08-.29h0Z"/>
          <path class="cls-6" d="M215.76,60.37c-2.87-.79-5.96-.73-8.75-1.83-1.32-.52-2.43-1.41-3.28-2.54-.82-1.08-1.37-2.35-2.12-3.48-.52-.79-2.01-2.84-3.09-1.62-.41.46-.09,1,.29,1.37.46.44.86.88,1.24,1.4,1.59,2.16,3.31,4.18,5.83,5.25,3.11,1.32,6.48,1.26,9.73,1.98.34.08.49-.43.15-.53h0Z"/>
          <path class="cls-6" d="M211.69,56.14c-1.52-.21-3.09-.94-4.05-2.17-.43-.55-.76-1.2-1.06-1.83-.34-.7-.6-1.76-1.48-1.9-.31-.05-.61.03-.78.32-.32.55-.17,1.03.12,1.54.23.39.49.74.78,1.09.5.62,1.08,1.12,1.7,1.62.62.49,1.27.9,2,1.2.89.36,1.79.39,2.72.48.19.02.24-.31.05-.34h0Z"/>
          <path class="cls-6" d="M235.2,50.16c1.16.13,2.37-.01,3.54-.02,1.18,0,2.37.11,3.55.16,1.18.05,2.37.04,3.55,0,1.19-.04,2.36-.21,3.55-.23,4.73-.09,9.48.18,14.18.65,2.68.27,5.33.65,8.01.84.23.02.27-.34.05-.4-4.62-1.13-9.44-1.4-14.17-1.79-2.36-.2-4.73-.32-7.1-.41-2.42-.09-4.8-.39-7.23-.2-1.31.11-2.61.3-3.92.49-1.35.2-2.77.16-4.08.53-.23.06-.16.36.05.38h0Z"/>
          <path class="cls-6" d="M276.41,52.44c1.09.19,2.17.38,3.27.53.54.08,1.07.16,1.6.25.47.08,1.05.29,1.46-.04.07-.06.09-.2.04-.28-.31-.42-.92-.36-1.4-.4-.54-.05-1.08-.1-1.61-.17-1.09-.14-2.19-.27-3.28-.41-.29-.04-.36.46-.07.51h0Z"/>
          <path class="cls-6" d="M286.1,53.7s.06.03.09.04c.03.01-.04-.02,0,0,.01,0,.02.01.04.02.08.05.16.07.25.1l.19.06s.06.02.1.03c.04,0,.08.01.11.02.05,0,.09,0,.13-.03.06-.02.06-.02,0,0-.03,0-.06,0-.09.01.04,0,.07,0,.11,0,.04,0,.07,0,.11-.02.03,0,.03,0,0,0,.04,0,.07,0,.11-.01.07,0,.12-.03.17-.08.11-.11.03-.26-.08-.33-.01,0-.09-.05-.09-.06.02.02.03.02.02.01,0,0-.01-.01-.02-.02-.03-.02-.06-.05-.09-.06,0,0-.05-.02-.05-.02.01,0,.02.02.03.03-.01-.02-.03-.03-.05-.04-.08-.06-.17-.07-.27-.09-.07,0-.15-.02-.22-.03-.07,0-.15-.02-.22-.01-.08.01-.15,0-.23,0-.12,0-.22.09-.24.21-.02.13.06.22.17.27h0Z"/>
          <path class="cls-6" d="M255.57,83.73c-.59-2.43-.88-4.95-.78-7.44.05-1.22.18-2.43.35-3.64.09-.6.21-1.2.29-1.81.09-.67-.09-1.23-.16-1.89-.03-.27-.34-.36-.5-.14-.38.53-.8.94-.99,1.58-.18.62-.26,1.28-.34,1.92-.17,1.32-.19,2.66-.11,3.99.16,2.62.64,5.17,1.53,7.64.16.45.83.27.72-.2h0Z"/>
          <path class="cls-6" d="M243.11,79.3c.28-1.6.37-3.22.44-4.84.04-.84.05-1.65-.07-2.48-.1-.68-.25-1.99-1.14-2.06-1.05-.08-.66,1.37-.52,1.93.19.79.36,1.58.52,2.37.33,1.64.18,3.35.27,5.02.02.27.45.36.5.07h0Z"/>
          <path class="cls-6" d="M242.01,83.49c-.63,1.37-1.33,2.7-2.03,4.04-.32.61-.68,1.2-.9,1.85-.12.34-.2.72-.17,1.08.02.22.08.46.24.62.11.11.25.12.37.21.17.11.39.03.49-.13-.09.07-.1.08-.03.03.1-.06.19-.14.25-.25.09-.16.11-.36.12-.54.02-.31.02-.61.08-.92.12-.63.32-1.24.53-1.85.47-1.33.9-2.67,1.42-3.98.09-.22-.29-.38-.39-.16h0Z"/>
          <path class="cls-6" d="M250.34,76.8c-.11-1.21.06-2.45.16-3.66.05-.59.1-1.18.14-1.77.03-.42-.04-1.43-.69-1.4-.27.01-.54.3-.67.52-.17.29-.17.68-.2,1-.05.59-.04,1.18,0,1.77.09,1.23.42,2.41.64,3.62.06.34.65.27.61-.08h0Z"/>
          <path class="cls-6" d="M256.13,87.04c.28.91.56,1.82.85,2.73.31.95.62,1.92.64,2.93.01.79-.22,1.43-.6,2.11-.16.29-.34.56-.55.83-.26.33-.34.73-.58,1.06-.3.42.2.89.62.81.51-.1.92-.12,1.33-.49.32-.29.59-.7.78-1.09.4-.85.49-1.94.19-2.83-.35-1.04-.72-2.07-1.06-3.13-.35-1.08-.76-2.05-1.31-3.04-.09-.16-.36-.05-.31.13h0Z"/>
          <path class="cls-6" d="M250.05,113.16c.54-2.32,2.65-3.81,4.44-5.19.88-.68,1.71-1.52,2.4-2.39.4-.5.71-1.02.93-1.63.1-.29.15-.59.12-.89-.03-.37-.18-.54-.34-.85-.15-.28-.62-.37-.83-.11-.17.21-.38.33-.52.57-.15.26-.24.55-.34.83-.17.5-.39.98-.64,1.45-.55,1.01-1.39,1.87-2.18,2.7-1.46,1.53-2.95,3.28-3.41,5.41-.05.23.31.34.36.1h0Z"/>
          <path class="cls-6" d="M248.7,109.41c.51-1.02,1.22-1.92,1.93-2.81.36-.45.74-.9.97-1.43.06-.13.11-.26.15-.39.03-.11.07-.23.07-.34,0-.15-.1-.26-.11-.4,0,.08.04.19.03.04,0-.09-.02-.17-.05-.25-.06-.18-.18-.32-.34-.42-.14-.09-.32-.08-.46,0-.12.07-.22.16-.3.27,0,.01-.09.14-.08.15l.12-.08c-.05.04-.11.08-.16.12-.22.22-.29.62-.41.91-.16.4-.44.87-.64,1.3-.24.5-.44,1.01-.64,1.52-.21.53-.35,1.08-.51,1.63-.07.24.3.41.41.17h0Z"/>
          <path class="cls-6" d="M244.31,108.4c-.17-.25-.32-.5-.48-.76-.15-.24-.28-.48-.47-.69-.39-.45-.8-.88-1.21-1.31-.4-.42-.79-.86-1.13-1.32-.16-.21-.31-.41-.46-.62-.24-.34-.44-.67-.85-.78.09.05.17.1.26.15-.2-.17-.51-.4-.79-.23-.27.16-.25.54-.18.8v-.31c-.05.26-.03.46.1.69.09.15.19.3.3.43.18.22.38.42.6.61.46.39.96.75,1.46,1.1.48.32.94.66,1.38,1.04.22.19.46.36.68.54.27.22.48.44.68.73.05.07.16,0,.11-.07h0Z"/>
          <path class="cls-6" d="M253.11,152.01c-.16,3.55,1.08,6.82,1.77,10.25.34,1.69.6,3.37.69,5.09.04.72.17,1.6-.35,2.18-.26.29-.61.51-.85.82-.2.25-.25.64-.45.87-.12.13-.04.35.15.35.33,0,.65.21,1,.2.44-.02.98-.31,1.31-.59.72-.59,1.08-1.42,1.18-2.33.2-1.87-.35-3.84-.91-5.61-.58-1.83-1.36-3.59-1.92-5.43-.57-1.88-1.09-3.83-1.22-5.8-.02-.23-.36-.24-.37,0h0Z"/>
          <path class="cls-6" d="M241.37,157.39c-1.03,2.55-2.21,5.05-2.78,7.75-.27,1.26-.44,2.58-.11,3.85.23.9,1.03,2.32,2.16,2.06.17-.04.24-.19.26-.34.05-.42-.17-.91-.31-1.3-.15-.43-.32-.84-.41-1.3-.24-1.19-.04-2.42.13-3.6.36-2.37.69-4.74,1.54-6.99.12-.31-.37-.43-.49-.13h0Z"/>
          <path class="cls-6" d="M244.22,149.57c.16-1.17.46-2.34.47-3.53,0-.58,0-1.15-.06-1.73-.07-.6-.4-1.21-.82-1.65-.2-.21-.52-.09-.61.16-.19.52-.29,1.17-.2,1.71.09.56.22,1.13.3,1.69.16,1.12.39,2.21.33,3.34-.02.39.54.37.59,0h0Z"/>
          <path class="cls-6" d="M252.51,147.05c.01.17.01.34.03.51.02.17.04.35.05.52.01.11.02.21.04.32.02.09.03.19.06.28.03.08.09.16.13.24.05.08.09.16.16.22.09.09.25.08.32-.04.08-.14.1-.31.13-.46.02-.11,0-.23-.02-.34-.01-.11-.03-.21-.05-.32-.04-.17-.07-.33-.11-.5-.04-.17-.09-.34-.13-.51-.04-.15-.2-.25-.35-.23-.14.02-.29.15-.27.31h0Z"/>
          <path class="cls-6" d="M250.8,162.15c.34,1.74.52,3.5.54,5.28,0,.8-.01,1.64-.33,2.4-.13.31-.31.58-.53.83-.23.27-.44.51-.41.89.01.13.06.28.19.33.82.37,1.41-.51,1.7-1.17.38-.87.45-1.81.4-2.75-.12-2.01-.53-4.01-1.08-5.95-.09-.32-.55-.18-.49.13h0Z"/>
          <path class="cls-6" d="M242.36,163.54c-.32,1.75-.72,3.52-.48,5.31.1.75.29,1.49.62,2.18.17.35.38.72.65,1,.26.27.62.34.96.45.15.05.3-.11.25-.25-.08-.29-.07-.59-.21-.88-.13-.29-.33-.56-.47-.84-.3-.62-.52-1.27-.67-1.94-.36-1.62-.34-3.31-.25-4.96.01-.23-.37-.29-.41-.06h0Z"/>
          <path class="cls-6" d="M247.56,168.44c.08.56.06,1.11-.07,1.65-.07.28-.13.56-.21.84-.04.14-.1.29-.13.43-.04.19,0,.27.06.44-.03-.05-.03-.05,0,.01.02.05.04.1.06.14.09.21.37.22.55.14.09-.04.16-.1.23-.16-.08.04-.15.09-.23.13.27-.11.39-.26.48-.53.05-.14.08-.29.12-.44.08-.33.12-.68.1-1.01-.02-.3-.03-.6-.06-.9-.03-.33-.08-.65-.15-.97-.05-.21-.28-.33-.48-.27-.22.06-.3.27-.27.48h0Z"/>
          <path class="cls-6" d="M250.68,158.19c.04-.61.02-1.22-.05-1.82-.03-.23-.13-.37-.35-.46,0,0,0,0-.01,0,.09.07.17.13.26.2,0,.03,0,.02-.01-.03-.01-.03-.02-.06-.03-.09-.02-.06-.04-.11-.06-.17-.05-.1-.11-.19-.2-.25-.08-.05-.18-.03-.25.03-.08.07-.12.18-.15.28-.01.04-.02.09-.03.13,0,.02-.04.15,0,.09.05-.05.1-.1.16-.16,0,0-.01,0-.02.01-.15.08-.24.25-.24.41,0,.65.07,1.29.2,1.93.04.2.26.32.45.29.21-.03.34-.2.36-.4h0Z"/>
          <path class="cls-6" d="M258.51,184.42c-.31-.85-.46-1.76-.52-2.66-.03-.44-.05-.89-.04-1.33,0-.24-.02-.48-.03-.72-.02-.27-.05-.56-.26-.75.04.07.08.14.12.21-.04-.2-.05-.42-.22-.56-.09-.08-.2-.09-.31-.04-.2.1-.27.3-.35.49.06-.06.11-.11.17-.17-.27.17-.36.44-.41.74-.04.27-.09.54-.08.8.02.51.07,1.01.18,1.5.21.98.6,1.9,1.06,2.79.19.37.83.11.69-.29h0Z"/>
          <path class="cls-6" d="M231.62,192.92c1.37-2.56,3.39-4.64,5.05-6.99.83-1.17,1.64-2.32,2.15-3.68.25-.67.43-1.41.46-2.13.02-.35-.03-.64-.17-.96-.14-.32-.36-.42-.53-.69-.14-.21-.43-.16-.51.07-.08.22-.3.4-.39.62-.14.32-.18.61-.21.96-.07.67-.19,1.34-.36,1.99-.35,1.34-.85,2.6-1.58,3.78-1.42,2.28-3.19,4.33-4.29,6.8-.11.26.25.48.38.22h0Z"/>
          <path class="cls-6" d="M238.92,187.15c.6-1.25,1.5-2.27,2.27-3.41.4-.59.72-1.2,1-1.85.14-.33.25-.68.34-1.03.09-.36.05-.78-.02-1.14-.04-.2-.35-.3-.48-.13-.2.25-.42.55-.53.85-.12.33-.19.71-.28,1.05-.18.69-.43,1.34-.77,1.97-.63,1.16-1.45,2.22-2.01,3.42-.15.33.33.61.49.28h0Z"/>
          <path class="cls-6" d="M253.81,184.5c-.05-.34-.07-.7-.07-1.05,0-.37,0-.74-.02-1.12-.01-.36,0-.72-.02-1.08,0-.1-.02-.21-.04-.31,0-.07-.03-.14-.07-.21-.1-.12-.12-.14-.05-.08-.07-.17-.11-.32-.27-.43-.08-.05-.19-.04-.26,0-.18.1-.2.26-.29.43.05-.07.03-.04-.06.08-.04.06-.06.13-.07.21-.02.1-.03.2-.04.31-.02.38.04.78.09,1.16.05.4.12.78.24,1.17.11.36.23.72.34,1.08.12.39.65.22.6-.16h0Z"/>
          <path class="cls-6" d="M254.27,194.49c-.17,2.41.26,4.97,2.01,6.75.9.91,2.12,1.43,3.36,1.67.65.13,1.31.19,1.97.2.31,0,.61-.04.92-.09.34-.06.64-.24.96-.37.19-.07.23-.37,0-.43-.28-.07-.55-.19-.83-.25-.29-.06-.62-.08-.92-.09-.56-.02-1.12-.02-1.68-.09-1.12-.14-2.22-.51-3.12-1.22-1.77-1.4-2.22-3.96-2.17-6.08,0-.33-.49-.33-.52,0h0Z"/>
          <path class="cls-6" d="M258.41,194.3c.24,1.07.87,2.35,2.18,2.19.66-.08,1.32-.52,1.85-.89.66-.44,1.32-.87,2.01-1.24,1.35-.73,2.73-1.43,4.09-2.13,1.31-.68,2.86-1.24,3.87-2.34.08-.09.03-.28-.11-.27-1.22.15-2.26.81-3.34,1.36-1.11.57-2.22,1.14-3.34,1.7-1.14.58-2.28,1.17-3.48,1.61-.29.11-.58.22-.86.34-.25.11-.57.37-.83.41-.54.09-.67-.69-.77-1.09-.21-.84-1.48-.48-1.29.36h0Z"/>
          <path class="cls-6" d="M274.89,188.61c.11-.06.12-.05.23-.1.07-.03.13-.06.19-.09-.11.06.14-.07.17-.08.17-.1.35-.2.52-.31.2-.13.38-.26.56-.41.08-.07.17-.13.25-.2-.04.03-.04.03.02-.02.03-.02.06-.04.08-.07.09-.09.13-.19.17-.3-.03.06-.07.12-.1.18.14-.14.3-.27.4-.45.09-.16-.02-.35-.21-.36-.2,0-.4.07-.59.13h.22c-.12-.02-.23-.04-.35,0-.07.02-.14.06-.2.09-.1.05-.19.1-.29.15-.19.1-.36.2-.53.33-.19.14-.37.29-.55.45-.1.09-.19.19-.26.29-.04.05-.08.11-.16.2-.28.31.07.76.44.57h0Z"/>
          <path class="cls-6" d="M228.75,197.49c-.55,1.47-.99,2.87-1.1,4.45-.09,1.42.06,2.88.55,4.22.73,1.99,2.53,4.59,4.92,4.49.25-.01.32-.32.12-.46-.87-.61-1.79-1.1-2.55-1.85-.79-.78-1.39-1.72-1.77-2.75-.91-2.49-.53-5.5.21-7.99.08-.25-.3-.35-.39-.11h0Z"/>
          <path class="cls-6" d="M231.19,202.12c-.31,2.67-.19,5.51,1.42,7.78.76,1.07,1.78,1.91,2.94,2.51,1.18.61,2.49,1.12,3.84,1.1.29,0,.33-.34.13-.49-.98-.75-2.17-1.12-3.26-1.65-1.07-.52-2.1-1.16-2.89-2.06-1.66-1.9-1.87-4.77-1.8-7.18,0-.26-.37-.25-.4,0h0Z"/>
          <path class="cls-6" d="M258.81,205.94c.02,1.86-.19,4.13-1.94,5.2-.79.48-1.65.79-2.54,1.02-.52.14-1.05.25-1.56.41-.61.18-1.15.49-1.67.86-.23.16-.13.48.14.51.73.09,1.41.07,2.13-.1.55-.13,1.09-.26,1.62-.43,1.02-.31,2.03-.71,2.8-1.45,1.68-1.61,1.48-3.9,1.32-6.01-.01-.19-.3-.19-.3,0h0Z"/>
          <path class="cls-6" d="M262.66,207.32c.06,1.17-.42,2.14-1.08,3.07-.28.39-.63.75-.96,1.09-.1.1-.19.2-.28.31-.03.03-.12.11-.2.16-.23.15-.46.29-.68.44-.13.09-.1.33.09.32.29-.02.57-.09.83-.2.06-.03.13-.05.19-.08.02,0,.17-.07.08-.04.16-.05.31-.08.46-.16.58-.28,1-.72,1.37-1.23.74-1.03.87-2.45.72-3.68-.04-.33-.55-.35-.53,0h0Z"/>
          <path class="cls-6" d="M252.68,232.33c-.02-1.83-.16-3.66-.06-5.49.05-.92.14-1.84.3-2.74.15-.87.41-1.82.27-2.7-.08-.53-.96-.64-1.18-.15-.36.81-.34,1.81-.34,2.68,0,.97,0,1.94.03,2.91.03,1.86.06,3.74.41,5.57.06.33.58.25.58-.08h0Z"/>
          <path class="cls-6" d="M241.59,227.6c.18-1.36.32-2.73.26-4.1-.03-.68-.1-1.36-.23-2.03-.06-.35-.14-.66-.28-.99-.15-.32-.41-.49-.62-.76-.14-.19-.4-.01-.42.17-.03.35-.16.61-.13.97.03.35.12.68.19,1.02.13.61.25,1.22.36,1.83.23,1.27.33,2.59.26,3.88-.02.4.56.38.61,0h0Z"/>
          <path class="cls-6" d="M239.92,233.11c-1.01,3.09-4.62,4.29-6.1,7.07-.7,1.31-1.04,2.9-.44,4.32.27.65.77,1.29,1.39,1.62.7.37,1.29.38,2.05.28.33-.04.5-.46.18-.66-.46-.28-.89-.77-1.27-1.16-.41-.42-.75-.84-.9-1.43-.33-1.32.29-2.65,1.03-3.71.78-1.11,1.8-2.02,2.68-3.04.81-.93,1.43-2,1.76-3.19.07-.24-.3-.34-.38-.1h0Z"/>
          <path class="cls-6" d="M253.54,236.19c.91,1.88,1.97,3.71,2.69,5.68.28.77.4,1.61-.03,2.33-.19.32-.36.62-.57.92-.24.34-.5.66-.36,1.11v-.38c-.02.11-.04.14-.13.22-.17.15-.07.44.13.5.08.02.17.07.25.09.33.09-.03.03-.05-.08.06.31.75.25.94.19.53-.16.94-.62,1.19-1.1.49-.95.3-2.08-.06-3.05-.42-1.11-1.07-2.11-1.65-3.13-.66-1.17-1.27-2.37-1.92-3.54-.16-.29-.58-.03-.44.26h0Z"/>
          <path class="cls-6" d="M254.43,262.16c.25-2.97,1.08-5.79,2.09-8.58.49-1.34,1.09-2.63,1.62-3.96.44-1.11,1.21-2.91.07-3.81-.12-.1-.3-.16-.44-.06-.55.38-.78.85-.91,1.52-.14.71-.3,1.4-.51,2.1-.41,1.4-.94,2.76-1.28,4.18-.68,2.82-.95,5.73-1.09,8.62-.01.29.42.28.45,0h0Z"/>
          <path class="cls-6" d="M236.54,267.16c.59-4.01,1.49-8.15,1.25-12.22-.11-1.9-.45-3.78-1-5.59-.28-.92-.61-1.82-1.01-2.69-.18-.4-.36-.82-.65-1.16-.32-.37-.69-.59-1.12-.8-.24-.12-.52.03-.53.3-.02.45-.03.83.09,1.29.1.43.34.83.52,1.23.39.82.75,1.65,1.06,2.51.61,1.69,1.03,3.46,1.26,5.24.25,1.95.24,3.91.2,5.87-.04,2-.12,4-.34,5.98-.02.15.25.19.27.04h0Z"/>
          <path class="cls-6" d="M240.81,256.06c.04-1.74,0-3.48-.1-5.21-.05-.87-.12-1.72-.25-2.58-.06-.43-.12-.87-.24-1.29-.05-.18-.11-.35-.23-.51-.11-.14-.33-.26-.39-.31-.25-.22-.6-.12-.71.19-.03.09-.17.29-.19.47-.02.19,0,.37.05.56.09.42.21.84.33,1.26.2.78.41,1.56.57,2.35.34,1.68.49,3.36.48,5.07,0,.44.67.44.68,0h0Z"/>
          <path class="cls-6" d="M250.4,260.27c.06-2.43.79-4.81,1.46-7.13.33-1.13.64-2.29.82-3.45.08-.55.2-1.18.14-1.75-.07-.56-.3-.9-.65-1.31-.12-.14-.36-.09-.45.06-.29.5-.46.88-.49,1.47-.02.59-.01,1.18-.04,1.76-.06,1.17-.24,2.33-.44,3.49-.4,2.28-.87,4.53-.87,6.86,0,.34.52.34.53,0h0Z"/>
          <path class="cls-6" d="M247.88,253.61c.35-1.16.7-2.33.89-3.53.1-.6.19-1.21.23-1.82.04-.55-.07-1.21-.57-1.53-.06-.04-.15-.04-.2,0-.46.32-.58.92-.58,1.46,0,.58.02,1.16,0,1.73-.04,1.19-.09,2.37-.3,3.54-.06.34.42.49.53.15h0Z"/>
          <path class="cls-6" d="M254.67,270.92c.19,1.59.17,3.21.21,4.8.02.77.03,1.55.02,2.32,0,.42,0,.86.08,1.28.07.36.25.67.41,1,.07.15.32.19.43.06.54-.65.8-1.3.82-2.15.02-.85-.07-1.7-.18-2.53-.23-1.66-.77-3.23-1.11-4.86-.08-.37-.72-.3-.68.09h0Z"/>
          <path class="cls-6" d="M254.43,283.05c-.47,1.24-1.21,2.36-2.01,3.42-.39.52-.83,1.01-1.24,1.52-.19.24-.43.49-.58.76-.15.28-.39.56-.47.87-.05.19.15.3.3.23.28-.12.53-.39.77-.57.27-.2.51-.51.72-.78.43-.54.85-1.09,1.25-1.66.78-1.12,1.41-2.34,1.86-3.63.13-.38-.46-.54-.6-.17h0Z"/>
          <path class="cls-6" d="M234.94,273.22c-.11,1.02-.23,2.04-.35,3.06-.12,1.04-.35,2.07-.41,3.11-.05.94.03,1.9.34,2.8.32.92.8,1.58,1.44,2.29,1.16,1.27,2.38,2.51,3.63,3.71.61.59,1.22,1.19,1.71,1.88.23.32.44.67.62,1.03.18.37.42.74.59,1.11.12.27.52.12.52-.14,0-.45.04-.76-.14-1.18-.14-.32-.3-.63-.49-.92-.45-.66-1.01-1.23-1.58-1.79-1.18-1.16-2.75-2.28-3.48-3.81-.35-.74-.58-1.54-.88-2.31-.34-.85-.62-1.73-.79-2.63-.37-2.04-.35-4.15-.21-6.21.02-.34-.49-.33-.52,0h0Z"/>
          <path class="cls-6" d="M239.29,278.41c.1,1.03.18,2.07.45,3.07.24.87.66,1.69,1.14,2.44.47.74,1.1,1.38,1.65,2.06.27.33.53.67.82.98.13.14.31.23.44.36.15.15.24.29.41.42.17.13.41-.01.46-.19.1-.33.07-.83,0-1.16-.08-.4-.31-.82-.56-1.15-.54-.71-1.18-1.32-1.83-1.92-.66-.61-1.24-1.17-1.63-1.98-.45-.93-.63-2.01-.8-3.02-.05-.32-.6-.25-.57.08h0Z"/>
          <path class="cls-6" d="M250.99,269.95c-.04.12-.07.22-.08.35,0,.11,0,.22,0,.32,0,.21-.01.42,0,.63,0,.21.01.42.02.63,0,.13.03.24.05.37.02.13.05.24.14.33.11.1.28.11.39,0,.11-.11.13-.23.14-.38.01-.1.03-.2.03-.32,0-.21,0-.42,0-.63,0-.21-.02-.42-.03-.63,0-.11,0-.22-.02-.32-.01-.13-.05-.23-.1-.35-.09-.24-.43-.26-.51,0h0Z"/>
          <path class="cls-6" d="M251.27,275.66c.05.4.1.81.1,1.22,0,.42-.06.85-.1,1.27-.03.41-.1.81-.12,1.22-.03.42.08.83.06,1.25,0,.18.23.18.28.04.17-.4.42-.79.49-1.22.07-.42.08-.86.08-1.28,0-.42-.05-.85-.11-1.27-.06-.43-.08-.86-.14-1.29-.05-.31-.59-.24-.55.07h0Z"/>
          <path class="cls-6" d="M247.98,313.51c-.05,3.18.23,6.34.64,9.5.41,3.12,1.26,6.11,2.47,9.02.29.7.65,1.33,1.03,1.98.43.75,1.03,1.37,1.47,2.12.77,1.31,1.54,2.61,2.4,3.86,1.79,2.58,3.79,4.98,6.1,7.11,1.5,1.38,3.11,2.63,4.71,3.87,1.7,1.32,3.36,2.75,5.23,3.82.23.13.46-.17.28-.36-1.29-1.31-2.81-2.37-4.26-3.48-1.48-1.14-2.97-2.26-4.4-3.47-2.39-2.03-4.51-4.35-6.34-6.89-.88-1.23-1.69-2.52-2.4-3.85-.34-.64-.75-1.32-.95-2.03-.21-.76-.37-1.52-.62-2.26-.48-1.44-1.11-2.84-1.6-4.28-.49-1.45-.9-2.93-1.36-4.38-1.06-3.32-1.6-6.78-1.85-10.25-.03-.36-.56-.37-.57,0h0Z"/>
          <path class="cls-6" d="M245.17,325.54c.33,1.91.76,3.82,1.31,5.67.55,1.82,1.23,3.59,1.79,5.41.57,1.85,1.15,3.74,2.3,5.33.57.79,1.26,1.46,1.82,2.26.55.78,1.06,1.59,1.58,2.4,1.17,1.82,2.45,3.58,4.03,5.07.27.26.76-.08.54-.42-1.02-1.58-2.18-3.03-3.28-4.55-1.13-1.56-2.25-3.12-2.83-4.98-.56-1.8-1.7-3.35-2.66-4.95-.99-1.64-1.72-3.36-2.35-5.17-.71-2.04-1.32-4.1-1.78-6.2-.07-.31-.53-.18-.47.13h0Z"/>
          <path class="cls-6" d="M305.75,383.42c.24.63.33,1.27.52,1.91.21.71.42,1.42.62,2.14.37,1.33.73,2.66,1.05,4,.63,2.66.95,5.49.91,8.22-.04,2.49-.46,4.84-1.44,7.14-.92,2.15-2.2,4.15-3.8,5.86-1.72,1.84-3.9,3.39-6.13,4.55-.29.15-.09.59.22.51,1.16-.31,2.27-.68,3.3-1.33,1.01-.64,1.95-1.41,2.81-2.24,1.75-1.69,3.17-3.73,4.23-5.92,1.07-2.23,1.77-4.63,2.22-7.05.55-2.97.46-5.89-.12-8.84-.31-1.62-.76-3.18-1.4-4.71-.31-.75-.68-1.47-1.06-2.19-.42-.79-.98-1.48-1.45-2.24-.15-.24-.59-.09-.48.2h0Z"/>
          <path class="cls-6" d="M302.5,390.36c.24.91.21,1.84.23,2.78.01.86,0,1.7-.06,2.56-.12,1.74-.5,3.46-.88,5.16-.19.82-.27,1.67-.49,2.48-.19.72-.52,1.42-.9,2.06-.8,1.34-1.91,2.51-3.18,3.42-.17.12-.08.43.15.36,1.53-.44,2.68-1.51,3.57-2.8.48-.69.88-1.42,1.28-2.14.47-.84.98-1.64,1.33-2.54.69-1.82.83-3.84.74-5.77-.04-.95-.17-1.91-.38-2.83-.22-.98-.67-1.89-.98-2.85-.09-.27-.5-.16-.43.12h0Z"/>
          <path class="cls-6" d="M183.24,407.33c-.48-1.49-.97-2.97-1.21-4.52-.24-1.56-.27-3.09-.19-4.66.17-3.28.95-6.62.57-9.91-.02-.15-.22-.23-.31-.08-1.77,2.95-2.27,6.72-2.12,10.1.14,3.13.73,6.74,2.58,9.34.22.31.8.14.66-.28h0Z"/>
          <path class="cls-6" d="M184.67,383.16c2.06-3.43,4.45-6.66,7.07-9.68,1.29-1.48,2.65-2.91,4.06-4.29,1.43-1.4,2.84-2.83,4.34-4.14.26-.23-.09-.7-.38-.49-1.65,1.22-3.25,2.44-4.74,3.86-1.45,1.39-2.82,2.85-4.13,4.37-2.64,3.09-4.93,6.43-6.94,9.95-.26.46.44.88.72.42h0Z"/>
          <path class="cls-6" d="M187.97,399.48c.5-4.38,1.33-8.7,3.16-12.74.46-1.02.98-1.97,1.32-3.03.32-1.02.98-2,1.55-2.89,1.16-1.83,2.48-3.55,3.95-5.14.83-.9,1.7-1.77,2.6-2.59.93-.84,1.71-1.82,2.62-2.68.22-.2-.06-.54-.31-.4-1.01.55-2.05,1.02-2.94,1.77-.86.72-1.69,1.51-2.46,2.32-1.55,1.63-2.94,3.42-4.18,5.3-.62.94-1.19,1.92-1.77,2.89-.3.5-.69.94-.97,1.45-.28.52-.49,1.09-.71,1.64-.83,2.09-1.48,4.27-1.94,6.47-.53,2.52-.83,5.08-.65,7.65.03.47.67.46.73,0h0Z"/>
          <path class="cls-6" d="M204.29,361.6c1.87-1.3,3.77-2.57,5.66-3.84,1.89-1.26,3.84-2.43,5.55-3.94.83-.73,1.53-1.58,2.33-2.33.86-.81,1.73-1.6,2.62-2.38,1.72-1.51,3.41-3.05,4.97-4.72.09-.1-.03-.28-.15-.19-1.77,1.35-3.47,2.79-5.18,4.22-.88.74-1.77,1.45-2.7,2.12-.92.66-1.91,1.22-2.83,1.88-1.81,1.32-3.38,2.91-5.07,4.37-1.76,1.53-3.57,3.02-5.44,4.41-.23.17-.01.57.23.4h0Z"/>
          <path class="cls-6" d="M185.81,411.27c1.04,1.42,2.29,2.63,3.5,3.9.61.64,1.23,1.3,1.98,1.78.89.57,1.87.81,2.86,1.13,2.04.65,4,1.57,5.97,2.4,1.96.83,4.02,1.4,6.01,2.14.23.09.4-.3.17-.41-1.81-.85-3.56-1.87-5.41-2.63-1.95-.8-3.92-1.57-5.82-2.49-.88-.43-1.66-1.03-2.51-1.5-.76-.41-1.58-.71-2.34-1.11-1.61-.84-2.85-2.14-3.96-3.56-.2-.26-.66.09-.46.35h0Z"/>
          <path class="cls-6" d="M290.94,448.72c-2.75.75-5.55,1.23-8.36,1.68-1.4.22-2.82.37-4.24.49-1.43.13-2.87.07-4.29.2-1.17.11-1.21,1.92,0,1.86,1.42-.07,2.85-.39,4.25-.62,1.46-.23,2.9-.53,4.34-.85,2.86-.62,5.63-1.51,8.39-2.46.2-.07.12-.37-.09-.32h0Z"/>
          <path class="cls-6" d="M280.21,447.94c-1.02.25-2.02.36-3.07.45-.5.04-1,.07-1.5.04-.53-.03-1.12-.16-1.64-.01-.66.19-.75,1.3,0,1.43.57.1,1.13-.07,1.69-.22.52-.14,1.05-.24,1.57-.36,1.04-.23,2.06-.56,3.08-.84.31-.09.18-.57-.13-.49h0Z"/>
          <path class="cls-6" d="M309.01,441.42c3.2-1.31,6.35-2.76,9.39-4.41,1.53-.83,2.98-1.77,4.45-2.69.71-.45,1.43-.89,2.1-1.39.62-.46,1.38-1.06,1.53-1.87.16-.87-.85-1.6-1.55-.9-.5.5-.89,1.04-1.44,1.5-.64.53-1.26,1.09-1.92,1.6-1.31,1.02-2.69,1.97-4.06,2.91-2.74,1.87-5.63,3.53-8.64,4.92-.19.09-.05.41.14.34h0Z"/>
          <path class="cls-6" d="M263.83,359.83c3.06,2.66,5.97,5.76,8.07,9.25,2.1,3.48,3.73,7.24,5.04,11.08,1.35,3.98,1.96,8.02,2.37,12.19.1,1.05.3,2.09.46,3.13.08.54.19,1.08.15,1.62-.04.61-.14,1.21-.25,1.81-.41,2.14-.79,4.29-1.35,6.4-.62,2.34-1.42,4.63-2.43,6.83-.51,1.12-1.08,2.22-1.67,3.3-.29.53-.58,1.05-.86,1.58-.31.57-.47,1.18-.75,1.76-.13.27.22.6.44.34.35-.4.78-.73,1.08-1.16.33-.46.62-.95.9-1.44.55-.98,1.05-2,1.51-3.03.91-2.04,1.69-4.14,2.31-6.29.61-2.11,1.07-4.25,1.32-6.43.13-1.12.12-2.24.18-3.36.06-1.11.4-2.2.59-3.3.38-2.24.11-4.55-.23-6.78-.32-2.1-.79-4.17-1.41-6.2-1.23-4.05-3.14-7.86-5.63-11.28-2.78-3.82-5.87-7.38-9.59-10.31-.19-.15-.45.1-.27.27h0Z"/>
          <path class="cls-6" d="M273.63,382.94c.47,1.59.78,3.22.96,4.87.17,1.57.12,3.13.1,4.7-.02,1.57-.18,3.15-.33,4.72-.07.76-.15,1.52-.17,2.29-.02.83.07,1.66.09,2.49,0,.23.34.34.45.12.37-.71.76-1.41,1.03-2.17.29-.8.41-1.65.5-2.5.18-1.65.14-3.3.01-4.95-.12-1.62-.48-3.23-.82-4.82-.36-1.65-.83-3.27-1.35-4.88-.09-.3-.56-.17-.47.13h0Z"/>
          <path class="cls-6" d="M273.79,403.9c-.45,1.65-1.1,3.25-1.91,4.76-.39.72-.82,1.44-1.17,2.18-.37.78-.97,1.46-1.42,2.19-.11.17.12.32.26.2.67-.58,1.15-1.31,1.74-1.96.57-.63,1.03-1.37,1.41-2.13.82-1.6,1.43-3.29,1.85-5.03.12-.49-.63-.7-.76-.21h0Z"/>
          <path class="cls-6" d="M278.53,371.5c.9,1.47,1.73,3.03,2.52,4.55.81,1.56,1.65,3.13,2.18,4.81.5,1.61.68,3.37.94,5.03.27,1.72.59,3.46.98,5.15.05.23.42.23.47,0,.38-1.74.39-3.61.1-5.36-.15-.91-.38-1.81-.65-2.68-.26-.85-.66-1.66-.95-2.5-.58-1.68-1.16-3.38-2-4.96-.87-1.63-1.93-3.02-3.17-4.38-.21-.23-.58.07-.42.33h0Z"/>
          <path class="cls-6" d="M217.04,281.16c2.36-.88,4.73-1.77,7.05-2.76,1.19-.5,2.38-1.01,3.57-1.5.55-.23,2.77-.58,2.33-1.6-.45-1.03-2.08.37-2.61.64-1.14.59-2.31,1.13-3.48,1.66-2.34,1.06-4.67,2.14-7.02,3.17-.21.09-.06.46.16.38h0Z"/>
          <path class="cls-6" d="M272.18,258.11c-2.26.81-4.53,1.61-6.75,2.52-1.09.45-2.2.83-3.28,1.28-.54.22-1.08.45-1.63.66-.58.23-1.11.43-1.44.98-.29.48.09,1.02.61,1.06.66.04,1.14-.34,1.66-.68.46-.3.94-.58,1.42-.86.99-.58,1.96-1.18,2.98-1.7,2.14-1.09,4.27-2.13,6.5-3.04.14-.06.08-.29-.06-.23h0Z"/>
          <path class="cls-6" d="M190.63,377.33c-1.19,1.05-1.98,2.57-2.74,3.93-.78,1.39-1.71,2.72-2.27,4.22-.29.77-.43,1.49-.38,2.3.05.82-.07,1.63-.16,2.44-.19,1.55-.38,3.26.03,4.79.07.24.38.16.41-.06.17-1.5.04-3.02.2-4.53.09-.81.22-1.63.61-2.35.38-.71.62-1.39.81-2.18.37-1.5.61-3.03,1.35-4.42.73-1.37,1.72-2.56,2.48-3.9.12-.21-.15-.4-.33-.25h0Z"/>
          <path class="cls-6" d="M178.08,390.79c-.58.92-.97,1.98-1.18,3.05-.2,1.01-.42,2.39.37,3.2.08.08.23.09.31,0,.32-.38.46-.84.53-1.32.07-.56.1-1.14.13-1.7.06-1.05.16-2.09.2-3.13,0-.2-.26-.25-.36-.1h0Z"/>
          <path class="cls-6" d="M177.21,398.92c.07.89.17,1.78.31,2.67.07.44.18.87.3,1.29.06.22.17.39.26.6.09.2.17.41.31.57.12.14.33.02.34-.14.01-.21-.05-.42-.09-.62-.05-.22-.06-.44-.12-.65-.12-.39-.22-.79-.33-1.19-.23-.83-.4-1.67-.49-2.53-.03-.31-.52-.32-.49,0h0Z"/>
          <path class="cls-6" d="M179.89,387.51c.08-.2.19-.39.26-.59.08-.21.16-.42.24-.64.15-.4.32-.79.52-1.17.2-.38.39-.76.59-1.13.05-.1.07-.2.11-.31.04-.11.12-.21.18-.31.11-.18.23-.36.3-.56.05-.14-.13-.26-.25-.19-.19.12-.34.29-.49.46-.07.08-.14.15-.21.24-.11.14.03,0-.07.07-.05.04-.1.06-.14.11-.16.17-.29.4-.42.6-.13.2-.25.4-.36.62-.21.43-.39.87-.55,1.32-.07.21-.13.43-.19.65-.06.25-.06.5-.09.76-.04.35.46.36.57.08h0Z"/>
          <path class="cls-6" d="M259.52,354.34c.09.17.15.36.26.55.1.17.21.35.33.51.13.18.26.37.41.54.15.17.31.39.54.46-.06-.03-.11-.06-.17-.1.1.08.19.16.29.23.12.09.22.19.37.19.13,0,.21-.11.22-.22.01-.13-.07-.24-.13-.35-.05-.1-.11-.2-.16-.3.02.06.03.13.05.19-.02-.25-.18-.44-.31-.64-.11-.16-.23-.31-.34-.47-.11-.16-.23-.32-.35-.48-.13-.17-.28-.32-.39-.48-.11-.16-.31-.23-.49-.13-.18.1-.22.32-.13.49h0Z"/>
          <path class="cls-6" d="M279.56,359.72c3.36,2.38,6.85,4.49,9.88,7.3,1.47,1.36,2.92,2.73,4.43,4.05.74.65,1.46,1.33,2.24,1.93.42.33.82.64,1.31.86.22.1.39.2.61.32.26.15.57.19.82.35.2.13.49-.14.34-.34-.18-.24-.24-.53-.4-.78-.12-.19-.25-.35-.36-.54-.27-.47-.56-.84-.95-1.24-.69-.7-1.47-1.33-2.22-1.95-1.61-1.32-3.31-2.51-5.08-3.61-3.49-2.17-6.81-4.69-10.47-6.59-.15-.08-.27.13-.13.23h0Z"/>
          <path class="cls-6" d="M301.4,377.68c.31.39.6.78.89,1.19.14.21.27.42.42.63.04.06.1.09.15.14.04.04.08.1.11.15.07.1.15.19.23.29.08.09.25,0,.21-.12-.07-.21-.16-.4-.25-.6,0,.03.02.07.03.11,0-.06,0-.12-.03-.18-.02-.05-.05-.1-.08-.15-.05-.08-.1-.16-.15-.24-.11-.18-.22-.36-.34-.54-.23-.35-.46-.69-.71-1.03-.11-.15-.29-.21-.45-.09-.15.12-.14.31-.03.45h0Z"/>
          <path class="cls-6" d="M275.72,423.61c2.72-.21,5.45-.67,8.11-1.33.63-.16,1.24-.33,1.79-.68.64-.41,1.32-.51,2.06-.64,1.36-.25,2.74-.64,3.87-1.45.17-.12.13-.44-.12-.43-1.31.07-2.55.5-3.75,1-.68.28-1.31.66-2.06.67-.72.01-1.31.08-2.01.27-2.65.72-5.31,1.41-7.95,2.14-.23.06-.2.46.06.44h0Z"/>
          <path class="cls-6" d="M294.56,411.06c-.27.17-.56.33-.84.48-.32.17-.63.34-.94.52-.3.17-.58.35-.87.54-.14.1-.28.2-.41.31-.18.14-.28.24-.31.48.06-.1.11-.19.17-.29-.25.17-.52.34-.74.56-.1.1-.03.32.12.3.3-.03.59-.13.87-.24-.09-.01-.17-.02-.26-.03.32.17.77-.06,1.07-.2.33-.15.62-.32.92-.51.3-.2.6-.4.86-.64.26-.23.51-.47.78-.7.31-.26-.09-.78-.43-.56h0Z"/>
          <path class="cls-6" d="M296.98,379.15c.48.61.92,1.28,1.33,1.94.2.33.43.65.65.97.22.32.52.59.73.91.42.64.36,1.41.43,2.14.04.39.12.78.22,1.16.06.22.16.37.28.56.1.17.16.32.31.44.17.14.42.14.55-.07.4-.69.09-1.67-.25-2.33-.38-.75-1.06-1.32-1.29-2.16-.1-.37-.14-.7-.3-1.06-.17-.37-.36-.74-.59-1.08-.48-.69-1.02-1.3-1.6-1.9-.31-.31-.73.14-.47.47h0Z"/>
          <path class="cls-6" d="M247.46,297.47c-.16.91-.19,1.82-.21,2.74-.02.99,0,1.87.22,2.83.22.96-.04,2.05-.05,3.03,0,.92.16,1.91.37,2.8.04.15.24.1.25-.03.11-.93.17-1.94.1-2.88-.08-.92-.37-1.93-.2-2.84.34-1.8.35-3.75.14-5.57-.04-.32-.55-.47-.62-.08h0Z"/>
          <path class="cls-6" d="M274.23,356.95c.16.15.31.3.47.44.08.07.15.15.23.22.04.04.08.07.13.11.12.1.21.15.38.16l-.11-.02c-.06-.03-.07-.03-.03,0,.01.01.03.02.04.03.02.01.04.03.07.05.05.03.09.07.14.1.11.08.22.15.35.17.18.03.31-.1.28-.28-.02-.13-.1-.24-.17-.35-.03-.05-.07-.09-.1-.14-.02-.02-.03-.04-.05-.07-.01-.01-.02-.03-.03-.04-.02-.04-.02-.03,0,.03v.11c0-.16-.05-.26-.15-.38-.04-.04-.07-.08-.11-.12-.07-.08-.15-.15-.22-.23-.15-.15-.3-.31-.45-.46-.18-.18-.51-.19-.68,0-.17.19-.19.49,0,.68h0Z"/>
          <path class="cls-6" d="M228.72,341.57c1.43-1.19,2.77-2.44,4.08-3.77.64-.65,1.28-1.3,1.9-1.97.29-.31.62-.62.87-.97.26-.36.58-.74.74-1.15.09-.22-.19-.38-.37-.29-.38.19-.68.54-1,.81-.35.29-.65.66-.96.99-.62.67-1.25,1.33-1.88,1.99-1.27,1.31-2.55,2.62-3.8,3.94-.26.28.13.65.41.41h0Z"/>
        </g>
      </g>
      <g>
        <path class="cls-14" d="M147.79,310.81c-10.95-18.05-17.26-39.23-17.26-61.89,0-58.73,42.38-107.56,98.23-117.59"/>
        <path class="cls-14" d="M266.67,130.61c58.09,8.11,102.8,57.99,102.8,118.31,0,46.83-26.95,87.37-66.18,106.96"/>
        <path class="cls-14" d="M124.49,361.4c-26.75-29.83-43.02-69.25-43.02-112.47,0-84.88,62.75-155.1,144.39-166.82"/>
        <path class="cls-14" d="M272.33,81.86c82.52,10.92,146.2,81.56,146.2,167.07,0,64.53-36.27,120.59-89.54,148.91"/>
        <path class="cls-15" d="M150.93,305.71c-9.61-16.72-15.1-36.11-15.1-56.78,0-55.73,39.93-102.14,92.75-112.16"/>
        <path class="cls-15" d="M267.39,136.07c54.8,8.37,96.78,55.71,96.78,112.86,0,44.96-25.99,83.86-63.77,102.47"/>
        <path class="cls-15" d="M124.48,368.88c-29.8-31.17-48.1-73.43-48.1-119.95,0-87.31,64.45-159.57,148.37-171.8"/>
        <path class="cls-15" d="M271.56,76.64c85.71,10.62,152.06,83.71,152.06,172.29,0,66.24-37.09,123.81-91.64,153.08"/>
      </g>
    </g>
    <g id="TEXTS">
      <text>
        <textPath startOffset=".01%" xlink:href="#path"><tspan class="cls-12"><tspan x="0" y="0">HOOKAH</tspan></tspan>
        </textPath></text>
      <text>
        <textPath startOffset="5.59%" xlink:href="#path-2"><tspan class="cls-12"><tspan x="0" y="0">LOUNGE</tspan></tspan>
        </textPath></text>
      <text class="cls-11" transform="translate(184.21 323.69)"><tspan x="0" y="0">EST.</tspan></text>
      <text class="cls-10" transform="translate(271.31 323.69)"><tspan x="0" y="0">2002</tspan></text>
    </g>
  </g>
</svg>