<svg width="347" height="102" viewBox="0 0 347 102" fill="none" xmlns="http://www.w3.org/2000/svg">
<g clip-path="url(#clip0_326_1262)">
<rect width="347" height="102" fill="white"/>
<path d="M42.972 45.32C42.972 47.1973 42.532 48.9133 41.652 50.468C40.8013 51.9933 39.496 53.2253 37.736 54.164C36.0053 55.0733 33.8787 55.528 31.356 55.528H27.088V66H18.464V34.98H31.356C33.8493 34.98 35.9613 35.42 37.692 36.3C39.452 37.18 40.772 38.3973 41.652 39.952C42.532 41.5067 42.972 43.296 42.972 45.32ZM30.52 48.664C32.9547 48.664 34.172 47.5493 34.172 45.32C34.172 43.0613 32.9547 41.932 30.52 41.932H27.088V48.664H30.52ZM45.0287 53.636C45.0287 51.084 45.4833 48.8547 46.3927 46.948C47.3313 45.0413 48.5927 43.5747 50.1767 42.548C51.79 41.5213 53.5793 41.008 55.5447 41.008C57.246 41.008 58.7127 41.3453 59.9447 42.02C61.1767 42.6947 62.13 43.604 62.8047 44.748V41.316H71.4287V66H62.8047V62.568C62.13 63.712 61.162 64.6213 59.9007 65.296C58.6687 65.9707 57.2167 66.308 55.5447 66.308C53.5793 66.308 51.79 65.7947 50.1767 64.768C48.5927 63.7413 47.3313 62.2747 46.3927 60.368C45.4833 58.432 45.0287 56.188 45.0287 53.636ZM62.8047 53.636C62.8047 52.052 62.3647 50.8053 61.4847 49.896C60.634 48.9867 59.578 48.532 58.3167 48.532C57.026 48.532 55.9553 48.9867 55.1047 49.896C54.254 50.776 53.8287 52.0227 53.8287 53.636C53.8287 55.22 54.254 56.4813 55.1047 57.42C55.9553 58.3293 57.026 58.784 58.3167 58.784C59.578 58.784 60.634 58.3293 61.4847 57.42C62.3647 56.5107 62.8047 55.2493 62.8047 53.636ZM101.599 41.316V66H92.9309V62.48C92.1976 63.5947 91.1856 64.504 89.8949 65.208C88.6042 65.8827 87.1229 66.22 85.4509 66.22C82.5762 66.22 80.3029 65.2813 78.6309 63.404C76.9882 61.4973 76.1669 58.916 76.1669 55.66V41.316H84.7469V54.56C84.7469 55.968 85.1136 57.0827 85.8469 57.904C86.6096 58.696 87.6069 59.092 88.8389 59.092C90.1002 59.092 91.0976 58.696 91.8309 57.904C92.5642 57.0827 92.9309 55.968 92.9309 54.56V41.316H101.599ZM115.131 33.44V66H106.507V33.44H115.131ZM118.634 53.636C118.634 51.084 119.089 48.8547 119.998 46.948C120.937 45.0413 122.198 43.5747 123.782 42.548C125.395 41.5213 127.185 41.008 129.15 41.008C130.851 41.008 132.318 41.3453 133.55 42.02C134.782 42.6947 135.735 43.604 136.41 44.748V41.316H145.034V66H136.41V62.568C135.735 63.712 134.767 64.6213 133.506 65.296C132.274 65.9707 130.822 66.308 129.15 66.308C127.185 66.308 125.395 65.7947 123.782 64.768C122.198 63.7413 120.937 62.2747 119.998 60.368C119.089 58.432 118.634 56.188 118.634 53.636ZM136.41 53.636C136.41 52.052 135.97 50.8053 135.09 49.896C134.239 48.9867 133.183 48.532 131.922 48.532C130.631 48.532 129.561 48.9867 128.71 49.896C127.859 50.776 127.434 52.0227 127.434 53.636C127.434 55.22 127.859 56.4813 128.71 57.42C129.561 58.3293 130.631 58.784 131.922 58.784C133.183 58.784 134.239 58.3293 135.09 57.42C135.97 56.5107 136.41 55.2493 136.41 53.636ZM166.096 41.096C168.942 41.096 171.2 42.0493 172.872 43.956C174.544 45.8333 175.38 48.3853 175.38 51.612V66H166.756V52.756C166.756 51.348 166.39 50.248 165.656 49.456C164.923 48.6347 163.94 48.224 162.708 48.224C161.418 48.224 160.406 48.6347 159.672 49.456C158.939 50.248 158.572 51.348 158.572 52.756V66H149.948V41.316H158.572V44.836C159.335 43.7213 160.362 42.8267 161.652 42.152C162.943 41.448 164.424 41.096 166.096 41.096ZM203.696 53.372C203.696 54.0467 203.652 54.7213 203.564 55.396H187.24C187.328 56.7453 187.695 57.7573 188.34 58.432C189.015 59.0773 189.866 59.4 190.892 59.4C192.33 59.4 193.356 58.7547 193.972 57.464H203.168C202.787 59.1653 202.039 60.6907 200.924 62.04C199.839 63.36 198.46 64.4013 196.788 65.164C195.116 65.9267 193.268 66.308 191.244 66.308C188.81 66.308 186.639 65.7947 184.732 64.768C182.855 63.7413 181.374 62.2747 180.288 60.368C179.232 58.4613 178.704 56.2173 178.704 53.636C178.704 51.0547 179.232 48.8253 180.288 46.948C181.344 45.0413 182.811 43.5747 184.688 42.548C186.595 41.5213 188.78 41.008 191.244 41.008C193.679 41.008 195.835 41.5067 197.712 42.504C199.59 43.5013 201.056 44.9387 202.112 46.816C203.168 48.664 203.696 50.8493 203.696 53.372ZM194.896 51.216C194.896 50.16 194.544 49.3387 193.84 48.752C193.136 48.136 192.256 47.828 191.2 47.828C190.144 47.828 189.279 48.1213 188.604 48.708C187.93 49.2653 187.49 50.1013 187.284 51.216H194.896ZM215.85 45.672C216.818 44.264 217.991 43.1493 219.37 42.328C220.748 41.5067 222.23 41.096 223.814 41.096V50.292H221.394C219.516 50.292 218.123 50.6587 217.214 51.392C216.304 52.1253 215.85 53.4013 215.85 55.22V66H207.226V41.316H215.85V45.672Z" fill="#1E234C"/>
<line x1="238.5" y1="16" x2="238.5" y2="86" stroke="#1E234C"/>
<path d="M260.144 37.312C261.136 37.536 261.92 38.032 262.496 38.8C263.088 39.552 263.384 40.416 263.384 41.392C263.384 42.832 262.888 43.96 261.896 44.776C260.904 45.592 259.512 46 257.72 46H249.344V29.08H257.456C259.184 29.08 260.536 29.464 261.512 30.232C262.504 31 263 32.08 263 33.472C263 34.464 262.736 35.296 262.208 35.968C261.696 36.624 261.008 37.072 260.144 37.312ZM254.048 35.8H256.424C257.608 35.8 258.2 35.312 258.2 34.336C258.2 33.328 257.608 32.824 256.424 32.824H254.048V35.8ZM256.784 42.208C257.968 42.208 258.56 41.712 258.56 40.72C258.56 40.208 258.4 39.816 258.08 39.544C257.776 39.272 257.336 39.136 256.76 39.136H254.048V42.208H256.784ZM278.31 39.112C278.31 39.48 278.286 39.848 278.238 40.216H269.334C269.382 40.952 269.582 41.504 269.934 41.872C270.302 42.224 270.766 42.4 271.326 42.4C272.11 42.4 272.67 42.048 273.006 41.344H278.022C277.814 42.272 277.406 43.104 276.798 43.84C276.206 44.56 275.454 45.128 274.542 45.544C273.63 45.96 272.622 46.168 271.518 46.168C270.19 46.168 269.006 45.888 267.966 45.328C266.942 44.768 266.134 43.968 265.542 42.928C264.966 41.888 264.678 40.664 264.678 39.256C264.678 37.848 264.966 36.632 265.542 35.608C266.118 34.568 266.918 33.768 267.942 33.208C268.982 32.648 270.174 32.368 271.518 32.368C272.846 32.368 274.022 32.64 275.046 33.184C276.07 33.728 276.87 34.512 277.446 35.536C278.022 36.544 278.31 37.736 278.31 39.112ZM273.51 37.936C273.51 37.36 273.318 36.912 272.934 36.592C272.55 36.256 272.07 36.088 271.494 36.088C270.918 36.088 270.446 36.248 270.078 36.568C269.71 36.872 269.47 37.328 269.358 37.936H273.51ZM279.467 39.256C279.467 37.864 279.715 36.648 280.211 35.608C280.723 34.568 281.411 33.768 282.275 33.208C283.155 32.648 284.131 32.368 285.203 32.368C286.131 32.368 286.931 32.552 287.603 32.92C288.275 33.288 288.795 33.784 289.163 34.408V32.536H293.867V46H289.163V44.128C288.795 44.752 288.267 45.248 287.579 45.616C286.907 45.984 286.115 46.168 285.203 46.168C284.131 46.168 283.155 45.888 282.275 45.328C281.411 44.768 280.723 43.968 280.211 42.928C279.715 41.872 279.467 40.648 279.467 39.256ZM289.163 39.256C289.163 38.392 288.923 37.712 288.443 37.216C287.979 36.72 287.403 36.472 286.715 36.472C286.011 36.472 285.427 36.72 284.963 37.216C284.499 37.696 284.267 38.376 284.267 39.256C284.267 40.12 284.499 40.808 284.963 41.32C285.427 41.816 286.011 42.064 286.715 42.064C287.403 42.064 287.979 41.816 288.443 41.32C288.923 40.824 289.163 40.136 289.163 39.256ZM295.779 39.256C295.779 37.864 296.067 36.648 296.643 35.608C297.219 34.568 298.019 33.768 299.043 33.208C300.083 32.648 301.267 32.368 302.595 32.368C304.307 32.368 305.747 32.84 306.915 33.784C308.083 34.712 308.835 36.016 309.171 37.696H304.179C303.891 36.816 303.331 36.376 302.499 36.376C301.907 36.376 301.435 36.624 301.083 37.12C300.747 37.6 300.579 38.312 300.579 39.256C300.579 40.2 300.747 40.92 301.083 41.416C301.435 41.912 301.907 42.16 302.499 42.16C303.347 42.16 303.907 41.72 304.179 40.84H309.171C308.835 42.504 308.083 43.808 306.915 44.752C305.747 45.696 304.307 46.168 302.595 46.168C301.267 46.168 300.083 45.888 299.043 45.328C298.019 44.768 297.219 43.968 296.643 42.928C296.067 41.888 295.779 40.664 295.779 39.256ZM319.981 32.416C321.517 32.416 322.733 32.936 323.629 33.976C324.541 35 324.997 36.392 324.997 38.152V46H320.293V38.776C320.293 38.008 320.093 37.408 319.693 36.976C319.293 36.528 318.757 36.304 318.085 36.304C317.381 36.304 316.829 36.528 316.429 36.976C316.029 37.408 315.829 38.008 315.829 38.776V46H311.125V28.24H315.829V34.456C316.245 33.848 316.805 33.36 317.509 32.992C318.229 32.608 319.053 32.416 319.981 32.416Z" fill="#1E234C"/>
<path d="M277.144 63.312C278.136 63.536 278.92 64.032 279.496 64.8C280.088 65.552 280.384 66.416 280.384 67.392C280.384 68.832 279.888 69.96 278.896 70.776C277.904 71.592 276.512 72 274.72 72H266.344V55.08H274.456C276.184 55.08 277.536 55.464 278.512 56.232C279.504 57 280 58.08 280 59.472C280 60.464 279.736 61.296 279.208 61.968C278.696 62.624 278.008 63.072 277.144 63.312ZM271.048 61.8H273.424C274.608 61.8 275.2 61.312 275.2 60.336C275.2 59.328 274.608 58.824 273.424 58.824H271.048V61.8ZM273.784 68.208C274.968 68.208 275.56 67.712 275.56 66.72C275.56 66.208 275.4 65.816 275.08 65.544C274.776 65.272 274.336 65.136 273.76 65.136H271.048V68.208H273.784ZM281.678 65.256C281.678 63.864 281.926 62.648 282.422 61.608C282.934 60.568 283.622 59.768 284.486 59.208C285.366 58.648 286.342 58.368 287.414 58.368C288.342 58.368 289.142 58.552 289.814 58.92C290.486 59.288 291.006 59.784 291.374 60.408V58.536H296.078V72H291.374V70.128C291.006 70.752 290.478 71.248 289.79 71.616C289.118 71.984 288.326 72.168 287.414 72.168C286.342 72.168 285.366 71.888 284.486 71.328C283.622 70.768 282.934 69.968 282.422 68.928C281.926 67.872 281.678 66.648 281.678 65.256ZM291.374 65.256C291.374 64.392 291.134 63.712 290.654 63.216C290.19 62.72 289.614 62.472 288.926 62.472C288.222 62.472 287.638 62.72 287.174 63.216C286.71 63.696 286.478 64.376 286.478 65.256C286.478 66.12 286.71 66.808 287.174 67.32C287.638 67.816 288.222 68.064 288.926 68.064C289.614 68.064 290.19 67.816 290.654 67.32C291.134 66.824 291.374 66.136 291.374 65.256ZM303.462 60.912C303.99 60.144 304.63 59.536 305.382 59.088C306.134 58.64 306.942 58.416 307.806 58.416V63.432H306.486C305.462 63.432 304.702 63.632 304.206 64.032C303.71 64.432 303.462 65.128 303.462 66.12V72H298.758V58.536H303.462V60.912Z" fill="#1E234C"/>
<rect x="-14" y="5" width="375" height="11" fill="url(#paint0_linear_326_1262)"/>
<rect x="-14" y="86" width="375" height="11" fill="url(#paint1_linear_326_1262)"/>
</g>
<defs>
<linearGradient id="paint0_linear_326_1262" x1="-14" y1="10.5" x2="361" y2="10.5" gradientUnits="userSpaceOnUse">
<stop stop-color="#24BD86" stop-opacity="0.7"/>
<stop offset="1" stop-color="#008461" stop-opacity="0.4"/>
</linearGradient>
<linearGradient id="paint1_linear_326_1262" x1="-14" y1="91.5" x2="361" y2="91.5" gradientUnits="userSpaceOnUse">
<stop stop-color="#24BD86" stop-opacity="0.7"/>
<stop offset="1" stop-color="#008461" stop-opacity="0.4"/>
</linearGradient>
<clipPath id="clip0_326_1262">
<rect width="347" height="102" fill="white"/>
</clipPath>
</defs>
</svg>
